<?xml version="1.0" encoding="UTF-8"?><svg id="Dewds" xmlns="http://www.w3.org/2000/svg" viewBox="0 0 500 500"><defs><style>.cls-1{fill:#fff;}</style></defs><path class="cls-1" d="M429.28,209.86c-13.42-3.2-25.79.28-36.89,7.88-3.95,2.7-7.33,6.55-7.21,12.21.05,2.04-.88,4.09-1.21,6.16-.48,2.97-1.4,5.82-4.98,5.53-2.94-.25-3.49-2.82-3.68-5.49-.39-5.58-2.3-10.67-5.02-15.72-8.61,4.67-17.17,7.89-24.41,13.57-1.99,1.56-4.52,1.76-6.9,2.37-7.2,1.86-7.26,2.01-4.85,9.33,2.19,6.65,4.84,13.21,3.98,20.44-1.19,10.03-2.71,20-1.2,30.19.61,4.09-.21,8.39-.4,12.6-.07,1.51-.69,2.86-2.3,2.89-.89.02-2.2-.64-2.64-1.39-1.22-2.09-2.92-4.39-2.93-6.61-.08-9.37-2.58-18.42-.85-28.19,1.8-10.15,5.01-21.69-4.18-30.85-19.97,7.68-19.75,11.39-32.26,28.96-8.52,11.96-7.5,12.72,2.33,23.51,6.38,7,13.13,13.68,19.18,20.95,5.09,6.13,7.25,13.12,2.31,21.5-6.58-5.02-10.52-11.23-12.92-18.07-1.75-4.98-4.45-9.28-8.59-11.5-5.8-3.12-9.5-7.85-13.64-12.52-5.96-6.71-9-6.91-14.13.14-5.11,7.02-11.47,12.12-18.68,16.59-4.18,2.59-8.66,5.48-10.68,9.92-2.98,6.56-8.29,11.16-12.15,16.86-7.73,11.42-28.81,13.68-39.21,9.02-15.99-7.15-30.3-16.18-38.21-32.74-.13-.28-1.19-.11-2.94-.22-.16,14.67-3.11,29.22.64,44.05-9.02-6.85-12.4-15.67-11.59-26.25.73-9.4,1.48-18.8,2.34-29.77-6.72,3.07-11.87,6.51-17.5,7.77-13.32,2.97-10.47,4.45-6.66,14.78.12.33.29.64.45.95,15.22,28.46,36.01,51.47,65.19,66.13,7.43,3.73,14.56,8.58,23.64,7.45,1.55-.19,3.41.75,4.87,1.61,3.77,2.22,7.94,2.28,12.05,3.12,14.27,2.91,28.58,2.61,42.94,1.66,22.88-1.51,45.35-4.47,65.54-16.79,17.52-10.69,33.09-23.64,46.54-39.09,4.71-5.41,4.49-6.49-1.91-8.88-7.4-2.76-10.52-8.36-13.46-15.06-5.62-12.8.64-22.99,6.09-33.51.93-1.8,2.7-2.27,4.49-1.91,7.28,1.47,9.67,1.74,5.88,9.99-2.46,5.35-5.79,10.44-4.82,16.91.61,4.09,2.38,6.11,6.59,6.73,12.5,1.84,22.73-5.57,22.87-18.09.12-10.52,4.01-17.34,14.05-20.81,15.33-5.3,24.07-17.65,31.56-30.91,7.29-12.9,5.73-25.66-2.46-37.69-3-4.41-6.83-8.43-12.09-9.68ZM227.57,381.47c-4.14-.51-9.68-6.31-9.36-9.8.41-4.46,5.74-9.15,10.07-8.85,4.82.34,10.73,5.85,10.45,9.75-.28,3.87-7.19,9.39-11.16,8.9ZM266.69,361.15c-.04,5.16-1.64,10.24-6.3,14.09-2.13,1.76-4.13,2.6-6.35.47-1.85-1.77-3.17-3.94-1.46-6.4,2.41-3.46,4.86-6.78,3.44-11.38-.64-2.08-.84-4.25,1.68-5.24,2.93-1.15,5.39-.05,7.46,2.13,1.53,1.62,2.07,3.54,1.54,6.33ZM425.53,248.67c-10.5,1.53-15.44,7.29-17.95,16.98-1.25,4.8-8.73,9.14-12.58,8.95-3.73-.19-5.71-2.29-3.78-5.39,5.76-9.21,7.75-19.28,8.85-29.85.42-4.02,2.71-7.93,4.53-11.71,3.88-8.04,11.13-12.27,17.39-10.47,6.97,2.01,14.57,12.04,14.46,20.56-.69,5.3-4.9,10.04-10.93,10.92Z"/><path class="cls-1" d="M138.4,284.98c2.86-6.34.49-10.23-6.79-10.87-6.93-.61-13.87-1.08-20.81-1.6-10.77.1-12.29,1.64-11.2,12.13.5,4.82,1.36,9.61,2.35,14.36.6,2.86,2.07,4.88,5.66,4.93,9.01.13,27.11-10.83,30.78-18.95Z"/><path class="cls-1" d="M415.32,234.69c3.47,0,6.07.1,8.66-.02,3.63-.17,3.95-2.17,2.17-4.75-3.33-4.82-6.26-3.68-10.84,4.77Z"/><path class="cls-1" d="M104.74,227.12c12.64,4.26,27.37.11,35.94-9.94,2.54-2.98,2.81-6.24,2.42-9.77-.22-2.06-1.66-2.89-3.57-3.05-2.01-.17-3.33.57-3.53,2.75-.09,1.04-.11,2.1-.31,3.12-.71,3.6-1.93,7.09-6.33,7.02-3.77-.06-6.45-2.29-7.59-6.03-.38-1.24.08-2.78-1.94-3.91-2.19.68-4.79,1.67-7.47,2.29-6.86,1.6-9.28,6.55-10.33,12.84-.43,2.56.31,3.87,2.7,4.67Z"/><path class="cls-1" d="M137.45,246.76c.23-2.03,1.84-3.86.82-6.21-5.24,5.18-10.02,9.92-14.75,14.6,12.23,3.69,12.61,3.5,13.93-8.39Z"/><path class="cls-1" d="M103.83,251.92c9.06-1.51,15.97-6.52,22.58-14.68-6.9-1.23-12.6-2.45-18.36-3.21-7.82-1.03-8.97-.04-10.26,7.7-.23,1.37-.36,2.77-.41,4.16-.19,6.14.67,6.99,6.44,6.03Z"/><path class="cls-1" d="M80.65,291.45c-1.42-18.29.35-16.55-18.63-10.32-.66.22-1.27.6-1.86.97-4.96,3.08-5.77,5.93-3.49,11.48,3.63,8.86,9.2,14.88,17.38,13.62,8.1.65,8.4.35,7.76-5.33-.39-3.47-.89-6.94-1.16-10.42Z"/><path class="cls-1" d="M144.87,192.78c-8.76-9.35-25.54-7.62-31.83,2.53,10.92,1.2,21.09-3.82,31.83-2.53Z"/><path class="cls-1" d="M79.23,244.63c-4.43,6.53-12.52,7.54-13.72,15.76q14.5.11,13.72-15.76Z"/><path class="cls-1" d="M278.2,262.25c.38-2.24-.3-4.63-2.86-4.73-9.79-.38-19.43-5.3-30.79-.98,11.46,5,22.35,8.63,31.23,17.24.93-4.33,1.81-7.9,2.42-11.53Z"/><path class="cls-1" d="M201.19,301.3c-9.89-6.49-21.41-10.71-28.87-20.61-2.72-3.6-6.66-5-10.85-5.79-5.55-1.06-7.44.16-7.12,5.75.44,7.67,1.17,15.4,2.71,22.91,3.12,15.21,11.17,26.95,25.73,33.58,10.3,4.69,16.49,3.7,24.59-4.51,8.09-8.19,15.42-17.04,22.73-27.28-5.87-2.46-10.77-1.94-15.61-2.13-4.49-.17-9.3.72-13.32-1.92Z"/><path class="cls-1" d="M256.76,282.12c.69-4.83-2.63-9.16-6.29-12.58-1.55-1.45-3.51-2.32-5.68-2.5-2.91-.24-5.69-1.18-7.51-3.37-5.31-6.39-12.32-5.08-18.39-3.06-11.26,3.75-22.28,7.88-34.41,7.61-2.77-.06-5.88.92-7.04,3.72-1.31,3.18,1.54,5.19,3.49,6.99,9.49,8.79,20.65,13.01,32.76,11.61,12.27.64,23.33-1.12,34.08-4.46,3.15-.98,8.47-.29,8.99-3.96Z"/><path class="cls-1" d="M136.84,169.89c5.27-.34,10.15.94,13.3,4.96,7.09,9.06,14.02,18.28,10.78,31.17-3.59,14.3-4.84,28.95-5.74,43.64-.27,4.37,1.22,5.48,5.42,5.04,18.13-1.92,35.96-5.34,53.55-10.14,4.08-1.11,8.25-1.86,12.38-2.77-10.95-5.27-17.5-14.2-25.08-21.85-6.7-6.75-6.11-9.26,1.52-14.63,5.42-3.82,12.26-4.89,17.14-9.54-6.23-1.06-11.71,1.52-17.1,3.91-4.7,2.08-8.79,2.57-11.98-2.19-2.73-4.08-1.14-10.17,3.39-13.72,5.99-4.69,13-6.46,20.37-7.61,19.43-3.03,38.82-4.65,58.04,1.13,7.92,2.38,14.68,6.42,18.65,14.21,1.69,3.32,2.54,6.41.61,10.25-7.04-1.28-13.4-4.08-19.49-7.33-7.35-3.92-14.79-5.39-23.11-3.97-7.86,1.34-15.93,1.34-23.65,3.66,23.85-2.32,44.03,8.02,64.14,18.59-5.38,7.17-5.14,6.54-12.44,3.69-6.24-2.44-11.49-6.63-17.82-8.73-4.54-1.5-8.33-1.76-9.64,4.16-.89,4-2.5,7.33-7.48,7.31-4.74-.01-7.09-2.78-7.81-6.96-.59-3.41-2.51-5.6-5.59-4.68-5.51,1.64-11.5,2.32-17.11,6.67,9.77,4.13,18.58,8.38,28.74,7.87,8.98-.45,18.16,1.42,26.88-2.38,1.52-.66,3.6-.82,4.15,1.59.42,1.85-.2,3.55-1.93,4.46-1.54.8-3.19,1.5-4.88,1.88-9.28,2.05-18.56,3.02-28.11,1.51-7.04-1.12-13.65-3.9-21.2-5.69,2.61,6.46,7.64,8.25,12.44,10.4,16.15,7.23,32.97,4.65,49.69,3.4,3.66-.27,6.46-2.15,8.86-5.04,2.33-2.8,5.2-5.16,8.88-8.72.44,6.16-2.75,9.28-4.34,12.94-2,4.61-.73,7.52,3.98,8.39,2,.37,4.34.4,6.21-.28,6.52-2.36,13.03-4.85,18.79-9.65-2.86-4.77-5.59-9.25-8.23-13.79-.92-1.58-1.42-3.37.33-4.71,1.63-1.24,3.35-.67,4.8.46,3.45,2.68,4.93,6.78,7.04,10.36,1.96,3.32,4.06,4.46,7.64,2.65,2.81-1.42,5.89-2.35,8.63-3.88,11.63-6.51,23.28-12.96,35.91-17.42,3-1.06,5.37-3.22,7.91-5.11,3.64-2.7,4.74-5.72,3.08-9.97-3.81-9.76-7.26-19.68-13.18-28.44-3.08.48-3.49,3.51-5.39,4.91-.72.53-2.03.88-2.8.59-1.5-.56-1.66-2.09-1.21-3.48.32-.98.79-2,1.46-2.77,5.12-5.88,3.35-8.96-1.46-14.57-6.38-7.43-12.84-14.86-18.54-22.81-4.82-6.73-10.51-11.95-17.78-15.89-17.38-9.43-35.93-15.7-54.87-20.99-1.96-.55-4-2.55-6.02.08,2.82,3.47,7.92,2.83,10.86,6.05,1.21,1.32,2.44,2.7,1.69,4.62-.88,2.27-2.93,1.79-4.43,1.16-7.09-2.99-15.01-4.07-21.39-8.59-16.16-11.45-31.82-3.37-47.72.67,10.11,3.96,20.05,7.91,31.09,7.5,7.04-.26,14.05.12,20.47,3.63,1.48.81,3.63,1.21,3.03,3.47-.53,2.02-2.47,1.9-4.28,2.04-18.48,1.35-36.14-3.04-53.52-8.25-11.98-3.59-16.46-2.6-23.26,8.73,1.43.28,2.71.67,4.01.75,17.84,1.1,35.44,4.07,53.11,6.56,1.4.2,2.91.13,3.42,1.75.62,1.99-.42,3.31-2.12,4.19-4.26,2.21-8.76,2.55-13.29,1.22-12.55-3.68-25.95-2.78-38.32-6.17-13-3.57-21.39-.51-29.42,9.95-5.22,6.8-12.12,12.41-17.51,19.65,6.24,4.22,13.23,2.81,19.59,3.98,8.54,1.57,17.38,2.6,26.03,2.27,18.18-.69,36.24-3.55,54.49-3.48,5.28.02,10.43-.47,15.61-1.8,8.72-2.22,17.43-1.57,26.02,1.78-12.24,2.27-24.51,3.7-36.83,4.43-10.47.62-20.94,1.75-31.29,2.92-15.23,1.72-30.19,3.14-45.42.76-6.9-1.08-14.08-.69-20.83-2.27-10.55-2.48-17.32,1.24-21.67,10.61-.25.53-.03,1.28-.03,2.04,3.75,1.43,7.48-.09,11.21-.33ZM323.82,153.66c2.43,5.08,4.46,10.55,4.57,16.07.19,9.83,4.3,16.67,12.84,21.14.91.48,1.71,1.16,2.98,2.03-3.18,3.79-5.7,2.82-7.65,1.59-8.13-5.13-15.12-11.03-16.61-21.59-.87-6.16-3.15-12.12-4.89-18.15-1.1-3.83-3.36-6.94-6.7-9.11-2.13-1.38-3.8-2.97-4.47-5.56,7.9-.28,15.85,5.09,19.93,13.59ZM169.32,138.56c2.88-1.23,3.59-1.85,4.11-1.72,14.86,3.75,29.7,2.73,44.65.42,4.14-.64,9.09-1.87,13.12,3.51-20.51,3.82-40.31,10.79-61.88-2.21Z"/><path d="M413.6,193.88c-1.51-.22-3.72.29-3.53-2.58,3.26-2.95,7.87-2.53,11.59-4.41,1.88-.95,4.32-1.64,3.93-4.21-.47-3.06-3.02-3.5-5.67-3.07-3.79.61-7.55,1.51-11.37,1.86-2.49.23-8.54-5.78-8.24-8.27.48-3.95,4-4.6,7.04-4.68,8.67-.21,17.23-3.54,26.03-.82,1.9.59,4.54.79,5-2.1.33-2.07-1.73-2.71-3.33-3.42-10.19-4.5-20.6-2.92-30.93-.85-2.38.48-4.69,1.33-7.17,1.28-3.97-.08-7.91-3.71-8.3-7.81-.36-3.77,2.87-4.49,5.33-5.47,2.91-1.16,6.02-1.81,9.07-2.58,2.7-.69,5.5-1.05,8.12-1.93,2.19-.74,3.34-2.82,3.12-4.99-.3-2.96-2.8-2.58-4.88-2.34-6.63.76-13.13,1.86-19.23,4.94-7.35,3.71-7.64,3.64-12.21-3.32-5.25-7.99-11.18-15.44-18.8-21.13-23.59-17.61-49.55-30.51-78.5-36.46-10.89-2.24-21.55-6-32.83-6.15-6.85-.09-13.93,2.05-20.01-3.38-1.31-1.17-5.38-.93-5.07,1.21,1.02,7.1-4.36,5.63-7.83,6.7-4.35,1.34-9.18,1.69-13.07,3.82-13.7,7.5-27.27,6-41.04.68-1.63-.63-3.31-1.18-5.02-1.53-2.12-.44-4.28-.6-4.61,2.57,7.17,5.41,16.55,5.78,24.69,9.7-2.54,3.47-6.43,3.26-8.52,5.52-4.82,5.21-10.02,4.67-16.11,2.64-3.41-1.14-7.58-3.65-11.93.11,4.41,3.62,9.23,4.76,14.03,6.87-4.2,8.36-12.18,11.59-17.51,17.59-7.67,8.64-12.74,19.28-21.2,27.23-6.15,5.78-7.5,14.07-11.73,20.82-7.28,11.61-14.11,23.75-15.97,37.34-1.71,12.54-8.63,21-17.06,29.02-2.78,2.65-5.87,4.99-8.93,7.32-7.04,5.38-12.31,12.25-16.72,19.81-1.99,3.41-3.16,7.14-1.36,11.03,3.67,7.9,7.19,15.89,11.26,23.59,3.85,7.28,10.04,11.49,18.52,12.06,3.83.26,7.63,1.04,11.45,1.52,2.57.32,4.58,1.32,5.98,3.67,5.54,9.3,11.94,18.18,16.62,27.88,7.67,15.89,17.99,28.93,33.34,38.01,7.12,4.22,14.6,8.06,19.9,15.02,2.74,3.6,7.21,5.24,11.79,6.42,10.83,2.78,21.44,6.46,32.34,8.91,17.67,3.98,34.98,10.01,53.57,8.99,8.42-.46,16.6-1.91,24.89-3.12,11.95-1.75,22.96-5.7,34.03-10.35,21.64-9.09,39.14-24.19,57.48-38.06,3.66-2.77,7.48-6.37,9.44-11.1,4.07-9.85,10.54-18.02,17.82-25.71,5.78-6.11,11.13-12.83,14.43-20.53,4.8-11.19,13.58-18.29,22.98-24.97,2.34-1.66,4.45-3.45,5.97-5.81,6.87-10.61,13.58-21.48,17.23-33.56,3.8-12.58,2.07-25.3-6.3-35.78-10.68-13.37-24.98-21.15-42.03-23.64ZM79.23,244.63q.78,15.87-13.72,15.76c1.2-8.22,9.29-9.23,13.72-15.76ZM74.05,307.2c-8.19,1.26-13.75-4.76-17.38-13.62-2.27-5.55-1.47-8.4,3.49-11.48.59-.37,1.21-.75,1.86-.97,18.98-6.23,17.21-7.98,18.63,10.32.27,3.48.77,6.95,1.16,10.42.64,5.68.34,5.98-7.76,5.33ZM125.67,168.18c4.35-9.37,11.12-13.09,21.67-10.61,6.75,1.59,13.93,1.19,20.83,2.27,15.23,2.38,30.2.96,45.42-.76,10.35-1.17,20.82-2.3,31.29-2.92,12.31-.73,24.58-2.16,36.83-4.43-8.58-3.36-17.3-4.01-26.02-1.78-5.18,1.32-10.33,1.82-15.61,1.8-18.25-.07-36.31,2.8-54.49,3.48-8.65.33-17.49-.7-26.03-2.27-6.36-1.17-13.35.25-19.59-3.98,5.39-7.23,12.29-12.85,17.51-19.65,8.03-10.46,16.41-13.52,29.42-9.95,12.37,3.39,25.77,2.49,38.32,6.17,4.53,1.33,9.03.99,13.29-1.22,1.7-.88,2.74-2.21,2.12-4.19-.51-1.62-2.02-1.55-3.42-1.75-17.67-2.49-35.27-5.46-53.11-6.56-1.3-.08-2.58-.47-4.01-.75,6.8-11.33,11.28-12.32,23.26-8.73,17.38,5.21,35.04,9.6,53.52,8.25,1.81-.13,3.74-.02,4.28-2.04.6-2.26-1.55-2.66-3.03-3.47-6.42-3.51-13.43-3.89-20.47-3.63-11.03.41-20.97-3.54-31.09-7.5,15.9-4.04,31.56-12.12,47.72-.67,6.38,4.52,14.3,5.61,21.39,8.59,1.5.63,3.55,1.11,4.43-1.16.75-1.93-.48-3.3-1.69-4.62-2.94-3.22-8.04-2.58-10.86-6.05,2.02-2.63,4.06-.62,6.02-.08,18.94,5.29,37.48,11.56,54.87,20.99,7.27,3.94,12.96,9.16,17.78,15.89,5.7,7.95,12.15,15.38,18.54,22.81,4.82,5.61,6.59,8.69,1.46,14.57-.67.77-1.14,1.79-1.46,2.77-.45,1.4-.29,2.92,1.21,3.48.77.29,2.08-.06,2.8-.59,1.9-1.4,2.31-4.43,5.39-4.91,5.92,8.76,9.37,18.68,13.18,28.44,1.66,4.25.56,7.27-3.08,9.97-2.55,1.89-4.91,4.05-7.91,5.11-12.63,4.46-24.28,10.91-35.91,17.42-2.74,1.53-5.82,2.46-8.63,3.88-3.58,1.81-5.68.67-7.64-2.65-2.11-3.58-3.59-7.68-7.04-10.36-1.45-1.13-3.18-1.7-4.8-.46-1.76,1.34-1.25,3.14-.33,4.71,2.64,4.54,5.37,9.02,8.23,13.79-5.75,4.8-12.27,7.28-18.79,9.65-1.87.68-4.21.65-6.21.28-4.71-.87-5.99-3.78-3.98-8.39,1.59-3.66,4.78-6.78,4.34-12.94-3.68,3.56-6.55,5.91-8.88,8.72-2.4,2.89-5.2,4.76-8.86,5.04-16.72,1.25-33.54,3.83-49.69-3.4-4.8-2.15-9.84-3.94-12.44-10.4,7.55,1.79,14.16,4.58,21.2,5.69,9.55,1.52,18.83.54,28.11-1.51,1.69-.37,3.34-1.07,4.88-1.88,1.73-.91,2.35-2.61,1.93-4.46-.55-2.41-2.63-2.25-4.15-1.59-8.72,3.81-17.9,1.93-26.88,2.38-10.17.51-18.97-3.74-28.74-7.87,5.61-4.35,11.61-5.03,17.11-6.67,3.08-.92,5,1.27,5.59,4.68.72,4.18,3.07,6.94,7.81,6.96,4.98.01,6.59-3.31,7.48-7.31,1.31-5.93,5.1-5.66,9.64-4.16,6.34,2.09,11.59,6.29,17.82,8.73,7.31,2.86,7.06,3.48,12.44-3.69-20.11-10.57-40.29-20.91-64.14-18.59-1.91.55-3.81,1.1-5.72,1.65-4.88,4.64-11.72,5.72-17.14,9.54-7.62,5.37-8.22,7.87-1.52,14.63,7.59,7.65,14.14,16.58,25.08,21.85-4.13.91-8.31,1.66-12.38,2.77-17.58,4.8-35.41,8.22-53.55,10.14-4.2.44-5.69-.67-5.42-5.04.9-14.69,2.15-29.34,5.74-43.64,3.24-12.89-3.69-22.11-10.78-31.17-3.15-4.03-8.03-5.31-13.3-4.96-3.73.24-7.46,1.76-11.21.33,0-.77-.21-1.51.03-2.04ZM213.68,290.54c-12.11,1.41-23.27-2.81-32.76-11.61-1.95-1.8-4.8-3.81-3.49-6.99,1.16-2.8,4.27-3.78,7.04-3.72,12.13.26,23.15-3.86,34.41-7.61,6.07-2.02,13.08-3.33,18.39,3.06,1.82,2.19,4.6,3.13,7.51,3.37,2.17.18,4.13,1.05,5.68,2.5,3.66,3.42,6.98,7.75,6.29,12.58-.53,3.67-5.84,2.98-8.99,3.96-10.76,3.34-21.82,5.1-34.08,4.46ZM230.12,305.34c-7.32,10.24-14.64,19.09-22.73,27.28-8.11,8.21-14.3,9.2-24.59,4.51-14.56-6.63-22.61-18.37-25.73-33.58-1.54-7.51-2.27-15.24-2.71-22.91-.32-5.59,1.57-6.81,7.12-5.75,4.19.8,8.14,2.19,10.85,5.79,7.46,9.9,18.98,14.12,28.87,20.61,4.02,2.64,8.83,1.74,13.32,1.92,4.84.19,9.74-.33,15.61,2.13ZM244.55,256.54c11.36-4.32,21,.6,30.79.98,2.56.1,3.24,2.49,2.86,4.73-.61,3.62-1.5,7.2-2.42,11.53-8.88-8.61-19.77-12.24-31.23-17.24ZM144.87,192.78c-10.74-1.29-20.91,3.73-31.83,2.53,6.29-10.15,23.07-11.88,31.83-2.53ZM102.03,222.45c1.06-6.29,3.48-11.24,10.33-12.84,2.68-.63,5.28-1.61,7.47-2.29,2.01,1.13,1.56,2.67,1.94,3.91,1.14,3.74,3.82,5.97,7.59,6.03,4.39.07,5.62-3.43,6.33-7.02.2-1.02.22-2.08.31-3.12.2-2.18,1.52-2.92,3.53-2.75,1.91.16,3.35.99,3.57,3.05.38,3.53.11,6.79-2.42,9.77-8.57,10.05-23.3,14.2-35.94,9.94-2.4-.81-3.13-2.12-2.7-4.67ZM137.45,246.76c-1.32,11.9-1.7,12.08-13.93,8.39,4.73-4.68,9.52-9.42,14.75-14.6,1.02,2.35-.6,4.18-.82,6.21ZM97.38,245.89c.04-1.39.18-2.79.41-4.16,1.3-7.75,2.45-8.74,10.26-7.7,5.76.76,11.45,1.99,18.36,3.21-6.61,8.16-13.52,13.17-22.58,14.68-5.78.96-6.63.11-6.44-6.03ZM101.96,299c-.99-4.74-1.85-9.54-2.35-14.36-1.09-10.49.43-12.03,11.2-12.13,6.94.52,13.88.98,20.81,1.6,7.27.64,9.65,4.53,6.79,10.87-3.66,8.12-21.77,19.08-30.78,18.95-3.59-.05-5.07-2.07-5.66-4.93ZM443.83,257.23c-7.49,13.26-16.23,25.61-31.56,30.91-10.04,3.47-13.92,10.29-14.05,20.81-.14,12.52-10.37,19.93-22.87,18.09-4.21-.62-5.98-2.64-6.59-6.73-.97-6.47,2.36-11.56,4.82-16.91,3.79-8.25,1.4-8.52-5.88-9.99-1.79-.36-3.56.11-4.49,1.91-5.46,10.53-11.71,20.72-6.09,33.51,2.94,6.7,6.06,12.3,13.46,15.06,6.4,2.39,6.62,3.47,1.91,8.88-13.44,15.44-29.01,28.4-46.54,39.09-20.19,12.32-42.65,15.28-65.54,16.79-14.36.95-28.67,1.25-42.94-1.66-4.11-.84-8.29-.9-12.05-3.12-1.46-.86-3.33-1.8-4.87-1.61-9.08,1.13-16.21-3.72-23.64-7.45-29.18-14.66-49.97-37.67-65.19-66.13-.17-.31-.33-.62-.45-.95-3.81-10.32-6.66-11.8,6.66-14.78,5.63-1.26,10.78-4.7,17.5-7.77-.87,10.98-1.62,20.38-2.34,29.77-.82,10.58,2.57,19.4,11.59,26.25-3.75-14.84-.8-29.39-.64-44.05,1.76.11,2.81-.05,2.94.22,7.92,16.56,22.23,25.59,38.21,32.74,10.4,4.66,31.49,2.4,39.21-9.02,3.86-5.7,9.17-10.3,12.15-16.86,2.02-4.45,6.5-7.33,10.68-9.92,7.2-4.47,13.57-9.57,18.68-16.59,5.13-7.05,8.16-6.85,14.13-.14,4.14,4.67,7.84,9.4,13.64,12.52,4.14,2.22,6.84,6.52,8.59,11.5,2.4,6.84,6.34,13.06,12.92,18.07,4.94-8.38,2.79-15.38-2.31-21.5-6.05-7.27-12.8-13.95-19.18-20.95-9.83-10.79-10.85-11.55-2.33-23.51,12.51-17.57,12.29-21.28,32.26-28.96,9.19,9.16,5.98,20.7,4.18,30.85-1.73,9.77.78,18.82.85,28.19.02,2.23,1.72,4.52,2.93,6.61.44.75,1.74,1.41,2.64,1.39,1.61-.03,2.23-1.38,2.3-2.89.19-4.21,1.01-8.51.4-12.6-1.51-10.2.01-20.16,1.2-30.19.86-7.23-1.8-13.79-3.98-20.44-2.4-7.32-2.35-7.47,4.85-9.33,2.38-.61,4.9-.8,6.9-2.37,7.23-5.68,15.8-8.9,24.41-13.57,2.72,5.05,4.63,10.14,5.02,15.72.19,2.67.74,5.24,3.68,5.49,3.58.3,4.5-2.56,4.98-5.53.34-2.07,1.26-4.12,1.21-6.16-.13-5.66,3.26-9.51,7.21-12.21,11.1-7.6,23.47-11.09,36.89-7.88,5.26,1.26,9.09,5.28,12.09,9.68,8.2,12.03,9.75,24.79,2.46,37.69Z"/><path d="M272.57,194.44c6.09,3.25,12.45,6.04,19.49,7.33,1.94-3.85,1.08-6.94-.61-10.25-3.97-7.79-10.73-11.83-18.65-14.21-19.22-5.78-38.6-4.16-58.04-1.13-7.37,1.15-14.38,2.92-20.37,7.61-4.53,3.54-6.13,9.64-3.39,13.72,3.19,4.75,7.28,4.27,11.98,2.19,5.39-2.39,10.86-4.97,17.1-3.91,1.91-.55,3.81-1.1,5.72-1.65,7.72-2.32,15.79-2.32,23.65-3.66,8.32-1.42,15.76.05,23.11,3.97Z"/><path d="M421.99,217.18c-6.26-1.8-13.51,2.43-17.39,10.47-1.82,3.77-4.11,7.68-4.53,11.71-1.1,10.57-3.08,20.64-8.85,29.85-1.94,3.09.04,5.2,3.78,5.39,3.85.19,11.33-4.15,12.58-8.95,2.51-9.69,7.45-15.44,17.95-16.98,6.03-.88,10.24-5.62,10.93-10.92.1-8.53-7.49-18.55-14.46-20.56ZM423.98,234.66c-2.59.12-5.19.02-8.66.02,4.58-8.45,7.51-9.59,10.84-4.77,1.77,2.57,1.46,4.57-2.17,4.75Z"/><path d="M228.28,362.83c-4.33-.3-9.66,4.39-10.07,8.85-.32,3.49,5.22,9.29,9.36,9.8,3.97.49,10.88-5.02,11.16-8.9.28-3.89-5.63-9.41-10.45-9.75Z"/><path d="M257.69,352.69c-2.52.99-2.32,3.16-1.68,5.24,1.42,4.6-1.03,7.92-3.44,11.38-1.72,2.47-.39,4.63,1.46,6.4,2.22,2.13,4.23,1.29,6.35-.47,4.66-3.85,6.25-8.94,6.3-14.09.53-2.79,0-4.7-1.54-6.33-2.06-2.18-4.52-3.28-7.46-2.13Z"/><path d="M308.36,145.63c3.34,2.17,5.59,5.28,6.7,9.11,1.74,6.03,4.02,11.99,4.89,18.15,1.49,10.57,8.49,16.46,16.61,21.59,1.95,1.23,4.47,2.21,7.65-1.59-1.27-.87-2.07-1.56-2.98-2.03-8.55-4.47-12.66-11.3-12.84-21.14-.1-5.52-2.14-11-4.57-16.07-4.07-8.5-12.03-13.87-19.93-13.59.67,2.59,2.34,4.18,4.47,5.56Z"/><path d="M218.07,137.27c-14.95,2.3-29.79,3.33-44.65-.42-.52-.13-1.23.48-4.11,1.72,21.57,13,41.37,6.03,61.88,2.21-4.03-5.38-8.98-4.15-13.12-3.51Z"/></svg>