<?xml version="1.0" encoding="UTF-8"?><svg id="Dewds" xmlns="http://www.w3.org/2000/svg" viewBox="0 0 500 500"><defs><style>.cls-1{fill:#fff;}</style></defs><path class="cls-1" d="M145.08,126.92c-4.1,4.06-3.3,8.11-2.38,12.13-.11-3.87,4.91-6.77,2.38-12.13Z"/><path class="cls-1" d="M315.68,354.3c-2.25-14.19-.58-28.6-2.96-42.96-2.38-14.31.27-29.13-4.25-43.58-3.46-11.05-5.88-13.56-16.81-10.74-12.92,3.34-25.77,5.49-39.1,1.17-4.13-1.34-8.97-2.4-14.94-1.18,7.66,10.59,16.54,16.09,28.07,17.5,4.24.52,8.38,1.92,12.55,2.97,1.83.46,4.29.72,4.03,3.22-.23,2.19-2.35,3.09-4.44,2.91-7.78-.69-15.69-.88-23.28-2.54-5.08-1.11-9.75-3.48-13.81-7.95-5.53-6.11-11.59-11.93-20.38-14.62-6.75-2.07-13.49-3.69-20.34-5.15-9.64-2.04-11.61-.83-10.02,8.5,1.53,8.98,1.18,17.84,1.03,26.83-.21,12.46-1.31,25.07,3.33,37.15,1.43,3.73.82,7.73.84,11.64.03,5.08-.01,10.2.65,15.21,1.29,9.81,5.76,12.84,15.28,11.05,14.86-2.8,23.76-14.17,33.89-23.7,1.3-1.22,1.93-3.44,2.28-5.3.67-3.47.18-5.92-4.59-5.94-7.88-.02-7.88-.34-6.22-8.01,1.8-8.35,3.75-9.68,11.38-7.39,3.4,1.02,7.01,2.32,8.3,5.93,1.06,2.98,3.57,3.58,5.57,5.23,7.11,5.83,13.84,12.14,20.51,18.48,4.6,4.38,7.98,9.63,9.21,16.01.32,1.65-.16,3.26-1.64,4.03-1.89.99-3.85.62-5.25-1.1-.72-.87-1.33-1.95-1.62-3.03-1.99-7.36-8.36-10.47-13.82-15.72-1.06,5.42.95,8.4,3.26,11.76,4.31,6.27,2.61,11.42-5.07,17.16-2.93-7.34-1.23-16.42-9.17-23.19-5.93,12.36-16.43,18.66-27.57,24.35-6.59,3.37-12.86,7.4-19.08,11.43-4.81,3.11-8.05,3.37-11.17-2.55-3.11-5.92-8.37-9.89-15.84-10.85-2.95,6.59-5.78,12.99-8.69,19.34-.67,1.46-1.9,2.71-3.57,2.56-1.72-.16-2.65-1.62-2.68-3.3-.18-10.01-1.78-20.17-1.83-29.83-.07-13.93,2.3-28.8,10.4-41.35,3.19-4.94,3.58-10.29,3.43-15.75-.2-7.43-.87-14.83.5-22.24.42-2.28.7-4.98-1.49-6.46-2.76-1.87-3.99,1.12-5.72,2.43-1.55,1.17-3.13,2.34-4.82,3.3-2.89,1.63-6.06,2.85-7.85-1.24-1.64-3.76.34-5.89,4.07-6.7,7.21-1.57,9.2-6.24,8.2-13.11-.47-3.24-.08-6.61-.08-11.17-7.76,4.78-12.02,11.52-17.8,16.55-5.02,4.38-10.62,6.52-16.91,7.25-4.95.57-7.4-2.6-5.72-7.15,1.12-3.04,2.69-5.4,6.83-4.95,6.04.66,9.67-3.86,13.89-6.75-3.86-6.7-9.6-2.05-14.25-3.23-5.18-1.31-8.92-6.39-15.85-5.69,2.38,16.23-1.07,32.44,2.78,48.08,3.73,15.16,7.85,30.21,10.86,45.55.3,1.53.58,3.16,1.32,4.49,5.01,9,7.39,18.81,9.75,28.74,2.73,11.51,7.81,22.49,17.34,29.61,14.04,10.5,28.57,20.39,43.19,30.15,12.14,8.11,26.26,9.59,39.29,14.56,1.32.5,3.19.22,4.61-.27,11.17-3.84,22.22-8.07,28.16-19.36,2.27-4.31,5.22-8.67,9.16-10.32,5.71-2.4,6.98-6.78,8.75-11.49,3.4-9.04,4.68-19.22,13.6-25.34.83-.57,1.63-2,1.54-2.94-.66-7.03,1.93-13.85.8-20.97ZM258.49,409.22c-1.86,1.02-4.43.74-4.64.77-3.61,0-5.18.2-6.67-.04-2.82-.45-5.7-1.83-5.64-4.82.06-3.47,3.39-3.45,6.09-3.53,2.7-.07,5.23-.3,7.69-1.85,2.68-1.69,5.18-.91,6.64,2.1,1.85,3.82-.86,5.95-3.47,7.37ZM268.83,386.19c-8.64,2.43-16.72,5.35-24.78,9.44-5.14,2.61-11.73,4.08-17.93,4.76-7.33.8-14.84.24-21.64,4.1-1.82,1.03-3.87.32-4.92-1.75-1.02-2.01-.41-4.07,1.18-5.26,1.84-1.38,4.07-2.34,6.27-3.11,6.98-2.44,14.22-4.38,17.69-11.98.15-.33.52-.76.83-.79,12.26-1.35,22.68-12.68,36.26-6.76,5.61,2.44,10.64-.48,16.75-2,1.55,9.06-4.8,11.98-9.71,13.36Z"/><path class="cls-1" d="M137.6,143.49c-2.35,4.96-3.48,10.3-4.89,15.58-3.35,12.58-2.2,25.56-3.75,38.3-1,8.2-.22,17.19,3.52,25.23,2.39,5.15,5.17,9.91,11.82,11.33-4.85-31.78-8.78-62.71-1.59-93.95-2.78-.48-4.09,1.36-5.11,3.5Z"/><path class="cls-1" d="M121.55,379.36c2.34,11.38,10.68,16.39,22.28,14.12,1.56-.3,3.34-.93,3.59-2.53.23-1.52-1.11-3.25-2.64-3.12-7.73.65-9.53-5.08-12.11-10.42-9.79-20.27-19.03-40.71-23.97-63.04-2.09,12.86-.69,25.32,4.17,37.22,3.69,9.04,6.73,18.18,8.69,27.78Z"/><path class="cls-1" d="M165.3,77.45c.99-.31,2.19-.56,2.35-1.95-.71-.17-1.44-.56-2.12-.47-1.16.16-2.29.68-2.04,2.16.03.2,1.25.42,1.81.25Z"/><path class="cls-1" d="M108.08,248.45c3.66-10.66,5.34-21.3-1.06-32.19,1.27,11.07-2.26,21.7,1.06,32.19Z"/><path class="cls-1" d="M72.49,266.82c-1.25-.6-.95,1.14-1.08,1.93.25,1.57.59,3.15,2.35,3.41.85.12,1.28-.81.88-1.65-.63-1.31-1.08-3.19-2.15-3.7Z"/><path class="cls-1" d="M149.39,100.41c4.98,3.41.06,8.16,3.39,11.45,5.2-6.27,7.66-13.49,8.67-21.39.57-4.46-2.04-4.28-5.03-3.85-2.52.36-3.99,2.28-5.73,3.82-7.38,6.53-10.71,15.44-15.47,24.1,9.96-.14,10.63-8.67,14.16-14.13Z"/><path class="cls-1" d="M87.04,138.59c-2.14,4.22-3.84,7.52-5.5,10.84-7.53,15.05-13.89,30.43-13.95,47.68-.02,5.83.92,12-.62,17.43-4.09,14.38,2.72,26.19,7.61,38.66.92-22.22.66-44.1,4.99-66.02,2.33-11.79,4.56-23.67,6.92-35.5.78-3.9,2.95-7.9.55-13.09Z"/><path class="cls-1" d="M104.21,174.5c12.74-26.11,17.14-54.31,33.36-80.37-23.03,14.83-40.06,56.51-33.36,80.37Z"/><path class="cls-1" d="M97.36,253.2c-.11-11.08-5.24-22.01-.83-33.26.52-1.33-.1-3.09-.16-4.65-.9-25.86-4.72-51.72,3.21-77.39,2.34-7.56,4.66-14.66,9.05-21.27,4.01-6.02,7.19-12.58,10.74-18.9-6.17,3.31-13.77,5.33-15.37,11.76-2.83,11.38-7.42,22.33-9.53,33.74-5.33,28.72-12.15,57.19-11.71,86.85.32,21.49,3.18,42.85,2.37,64.35-.03.77.02,1.62.31,2.32,6.31,15.52,9.97,31.89,15.06,49.74.61-2.97,1.19-4.08.99-5.03-3.25-15.12-2.64-30.21.11-45.32.57-3.11.38-6.26-.52-9.31-3.25-11-3.6-22.28-3.71-33.64Z"/><path class="cls-1" d="M118.43,169.23c-7.58,9.72-9.78,20.12-7.43,36,2.48-12,4.95-24,7.43-36Z"/><path class="cls-1" d="M233.98,166.5c1.66,23.83,8.03,46.91,11.73,70.42,1.57,10,6.34,12.84,18.34,11.31-8.48-16.25-8.6-33.38-12.25-49.68-5.44-24.27-.4-48.25,3.13-72.07,1.45-9.81,1.79-20.69,8.07-29.08,3.87-5.17,3.13-8.86-.71-13.71-4.46,3.47-11.89.21-15.21,6.67-5.34,10.4-11.59,20.54-11.25,32.89.22,7.84-1.12,15.55-1.77,23.32-.55,6.6-.54,13.3-.08,19.91Z"/><path class="cls-1" d="M352.64,143.58c-2.83-4.8-6.64-8.6-12.01-10.94,1.61,6.16,5.64,9.8,12.01,10.94Z"/><path class="cls-1" d="M398.02,158.66c4,5.94,5.36,12.77,7.39,19.53,6.88,22.98,7.96,46.83,11.7,70.26,1.92,12.03,3.08,24.19,4.79,38,4.16-16.06,4.99-48.19,3-62-1.34-9.31-4.18-18.28-5.43-27.5-1.84-13.44-7.2-25.54-12.74-37.57-2.26-4.91-4.73-10.66-11.48-11.52-.92,4.05.57,7.51,2.78,10.79Z"/><path class="cls-1" d="M350.11,247.48c-1.61,2.7-2.54,6.47-4.38,6.97-9.54,2.63-7.04,9.55-6.21,15.8.51,3.85,1.55,7.66,2.64,11.4,7.3,24.88,12.27,50,8.54,76.12-.82,5.77-2.23,11.58-2.08,17.33.26,9.36,1.76,18.66-2.54,27.63-1,2.08-.86,4.8,2.25,5.56,3.2.79,5.98,1.02,7.05-3.5.99-4.17,2.64-8.07,1.43-12.54-.8-2.98-1.51-6.17-1.3-9.2,1.39-19.69,1.44-39.51,3.08-59.1,1.98-23.6-5.4-46.09-4.98-69.32.04-2.21-.16-4.74-3.52-7.16Z"/><path class="cls-1" d="M344.26,339.36c-.32-7.21.32-14.68-1.23-22.03-2.82-13.36-7.5-26.23-9.53-39.85-.96-6.46-2.99-12.9-4.05-19.46-.32-2-1.41-3.75-3.85-3.43-2,.26-3.78,1.36-4.8,3.07-1.26,2.11.74,3.44,1.61,5.11,2.66,5.15,7.97,9.88,2.88,16.5-.48.63.21,2.27.54,3.38,2.9,9.81,3.15,20.05,4.93,30.02,3.44,19.34,2.42,38.88,3.75,58.31.79,11.56-3.48,22.37-4.82,33.62-.22,1.84-.79,4.22,1.5,5.07,2.78,1.03,4.61-.95,5.31-3.25,2.6-8.49,7.21-16.59,5.06-26.08-1.04-4.59-1.57-9.45-.12-13.98,2.81-8.78,1.58-17.89,2.82-27Z"/><path class="cls-1" d="M406.2,231.64c.55-14.84-.55-29.47-6.07-43.5-1.13-2.88-2.12-6.02-2.23-9.07-.19-5.36-2.27-9.82-5.23-14.01-2.49-3.53-4.66-6.9-4.85-11.62-.25-6.02-4.59-8.07-10.09-8.65-.7,4.38,1.85,6.51,3.48,9.11,3.53,5.62,7.54,11.08,9.11,17.64,3.71,15.56,8.61,31.02,10.35,46.81,2.52,22.87,4.65,46.12,3.17,68.96-1.03,15.8-.83,31.86-3.54,47.56-1.32,7.68-4.48,15.08-5.4,22.78-1.89,15.82-3.53,31.56-12.16,45.96,8.03-2.59,12.09-8.95,14.44-16.09,3.38-10.31,6.83-20.51,8.66-31.47,2.27-13.61,6.75-26.45,6.78-40.92.04-23.4.65-46.63-4.22-69.66-.97-4.57-2.37-9.03-2.19-13.84Z"/><path class="cls-1" d="M392.65,221.86c-3.93-19.12-4.64-39-14.4-58.49-3.57,6.69-.62,10.74,1.34,14.55,3.47,6.77,5.07,13.46,4.23,21.26-.92,8.52,2.28,16.33,8.83,22.68Z"/><path class="cls-1" d="M377.96,314.49c-2.12-15.47-3.9-30.98-1.92-46.66.44-3.45.81-7.28-.22-10.48-3.5-10.85-4.73-22.12-7-33.2-3.35-16.34-8.58-32.3-11.97-48.51-3.8-18.17-16.4-27.8-28.34-38.87,5.58,12.35,12.33,24.1,17.41,36.53,8.47,20.73,12.56,42.49,14.31,64.92.88,11.24.14,22.92,2.77,33.65,4.29,17.48,3.96,34.93,3.65,52.47-.34,19.1-.96,38.21-2.89,57.24-.3,2.96-.75,6.26,2.25,8.8,3.46-2.74,4.58-6.49,3.95-10.3-1.49-8.97,2.02-16.8,4.33-25.08,3.67-13.18,5.57-26.69,3.67-40.53Z"/><path class="cls-1" d="M337.71,176.17c-1.3-3.4-2.32-7.33-7.6-9.15-3.56,27.41,6.66,49.89,20.38,73.61,1.12-23.92-5.08-44.35-12.78-64.46Z"/><path class="cls-1" d="M294.24,197.27c2.27,13.37,4.06,26.92,9.7,39.44,1.94,4.3,5.71,5.63,10.4,4.67-2.63-19.17-14.67-34.7-15.22-54.31-4.85,3.15-5.47,6.7-4.88,10.2Z"/><path class="cls-1" d="M310.24,132.8c1.25-3.6.62-6.24-2.44-7.97-2.88-1.63-5.43.58-7.23,2.3-4.68,4.47-4.95,10.71-3.9,16.34,1.19,6.41,2.24,12.8,2.93,19.19,5.79-9.59,7.23-20.06,10.64-29.87Z"/><path class="cls-1" d="M324.2,240.91c.75.71,2,1.07,3.07,1.2,1.5.18,1.99-1.12,2.08-2.26.46-5.81,1.57-11.77-3.02-16.66-1.89-2.01-4.45-4.18-3.11-7.03,3.64-7.77-1.1-13.45-4.16-19.62-1.2-2.43-3.6-5.06-3.29-7.31,1.54-11.38-.98-23.09,3.29-34.28,1.91-5.01,2.36-10.55-3.56-15.3-2.8,10.09-5.6,19.69-8.1,29.37-1.38,5.33-.84,10.72-.27,16.24,1.91,18.55,11.47,34.75,15.57,52.59.25,1.09.73,2.32,1.51,3.05Z"/><path class="cls-1" d="M334.08,124.17c-3.08-11.9-11.85-15.97-20.64-19.9,8.28,4.39,9.25,16.45,20.64,19.9Z"/><path class="cls-1" d="M394.75,147.05c-3.47-8.1-15.13-23.11-20.15-25.8-.76,1.57.02,2.9.58,4.35,3.72,9.72,13.15,14.21,19.57,21.45Z"/><path class="cls-1" d="M271.65,246.62c.89,2.86,3.61,2.11,6.12.53-3.74-7.42-7.48-14.84-11.22-22.26-1.57,7.96,2.88,14.63,5.1,21.73Z"/><path class="cls-1" d="M221.12,104.7c-1.72,9.12-6.23,17.8-4.38,27.51.14.71.04,1.87-.41,2.24-8.11,6.49-6.85,15.67-6.05,24.04,1.43,15.13,3.47,30.17,4.46,45.38.74,11.21,4.04,22.24,7.65,32.96,2.33,6.92,6.5,11.69,15.99,8.62.54-7.39,2.35-15.09-1.2-21.82-4.52-8.56-6.59-17.33-6.34-26.87.05-1.9-.73-3.82-1.05-5.74-5.83-34.66-7.55-68.73,9.63-101.46,4.47-8.52,8.71-14.16,18.72-13.58,1.55.09,3.16-.01,4.66-.36,1.5-.34,2.9-1.05,3.05-2.98.14-1.76-.65-3.18-2-3.94-4.22-2.35-8.4-3.53-13.28-.99-15.34,8.02-26.16,19.46-29.46,36.98Z"/><path class="cls-1" d="M177.77,113.29c1.59,4.7,1.33,9.37-.45,13.77-5.92,14.66-6.29,30.27-8.36,45.61-.42,3.11-1.4,6.37-.13,9.26,4.26,9.74,2.55,20,3.13,30.07.27,4.67.66,9.34,1.05,14.01.45,5.3,2.98,9.59,8.55,9.1,4.61-.41,6.59,3.33,13.13,5.52-5.34-16.19-5.37-30.91-7.11-45.36-2.14-17.76-5.24-35.2-4.74-53.3.38-13.56,2.01-26.47,9.22-37.84,6.21-9.79,8.58-21.58,16.51-30.4,1.25-1.39,1.8-3.45,2.5-5.27,1.43-3.75-.54-5.01-3.93-5.01-2.39,0-4.98.17-6.14,2.56-4.87,9.95-13.83,16.81-19.52,26.16-4.05,6.65-6.31,13.46-3.71,21.13Z"/><path class="cls-1" d="M197.87,127.73c.16,1.76-.2,5.35-2.11,4.46-6.32-2.92-5.2,2.04-5.21,4.67-.05,13.66-1.45,27.45,1.77,40.9,4.55,18.98,1.85,39.03,9.45,57.64,3.84,9.4,2.86,9.8,13.53,9.78-2.13-17.43-11.02-33.8-8.2-52.21.34-2.2-.66-4.59-.95-6.91-1.54-12.37-4.88-24.86-4.15-37.1,1.09-18.39,5.95-36.37,13.25-53.5,4.93-11.56,11.44-22.07,20.53-31.35-5.75,1.61-12.84-.47-16.21,5.43-10.39,18.17-23.84,35.28-21.7,58.18Z"/><path class="cls-1" d="M260.05,139.63c-.96,13.21-4.23,26.37-2.74,39.62,1.57,13.94,4.37,27.75,6.65,41.62.25,1.55,1.05,2.73,2.48,3.4,1.92-18.52-3.32-36.81-.6-55.58,3.06-21.14,3.82-42.58,14.47-61.86.38-.68.8-1.35,1.1-2.07,1.68-3.89-1.26-5.84-3.62-7.67-3.13-2.41-4.91.44-6.71,2.41-3.56,3.9-5.03,8.77-6.06,13.77-1.8,8.76-4.31,17.5-4.96,26.36Z"/><path class="cls-1" d="M364.62,122.01c.25-2.64-1.91-4-3.05-5.94-4.25-7.2-12.48-11.12-15.35-19.67-1.21-3.6-5.48-3.46-8.92-1.38,8.12,13.06,16.87,21.69,27.32,26.98Z"/><path class="cls-1" d="M372.08,201.77c5.83,18.77,9.42,38,10.88,57.41,1.69,22.53.65,45.24,2.95,67.79.31,3.07-.08,6.26-.5,9.35-2.7,19.99-9.57,39.24-10.12,61.6,6.91-9.99,10.61-19.6,11.21-30.37.48-8.62,1.71-17.02,4.98-25.15,2.32-5.79,4.31-12.04,3.24-18.31-1.89-11-.3-21.55,1.51-32.39,2.12-12.72-1.05-25.57-1.59-38.37-.16-3.91,1.05-8.46-2.33-12.14-3.9,5.38,1.05,11.51-2.51,18.15-3.76-6.98-5.41-13.5-3.66-19.09,2.66-8.51-.43-15.16-3.65-22.2-4.08-8.92-8.65-17.71-3.8-27.91.59-1.23.46-3.28-.17-4.55-4.18-8.43-7.7-17.34-15.71-23.49,2.49,13.46,5.26,26.75,9.27,39.66Z"/><path class="cls-1" d="M301.14,93.57q-5.45-9.51-12.77-12.49c3.74,4.59,4.79,10.32,12.77,12.49Z"/><path class="cls-1" d="M309.84,90.23c12.79,8.16,22.92,18.61,31.25,31.09,2.56,3.83,5.38,7.79,13.01,4.77-12.29-9.43-18.38-22.75-30.34-31.56-6.23-4.59-16.47-5.56-18.29-15.98-.32-1.82-4.51-3.81-8.04-2.67,2.5,6.61,7.34,11.12,12.4,14.35Z"/><path class="cls-1" d="M273.23,162.63c-1.7,15.68.71,31.05.79,46.57.08,13.72,7.11,24.97,14.77,36.56.61-4.81,7.12-8.27,5.46-11.01-5.75-9.51-3.3-20.65-7.6-30.35-3.35-7.56-2.85-15.4,3.46-21.71,2.78-2.78,3.97-5.69,2.75-9.45-3.3-10.21-1.82-20.93-3.3-31.29-1.59-11.1-.39-20.22,11.58-24.71.53-.2.75-1.24,1.11-1.89-7.82-6.75-11.58-6.84-16.86.35-2.51,3.42-5.42,7.38-5.83,11.33-1.25,12.03-5.02,23.53-6.33,35.6Z"/><path class="cls-1" d="M151.78,135.89c-8.58,28.4-5.48,57.07-1.79,85.73.39,3.04,1.91,5.93,2.72,8.94,1.18,4.38,4.18,3.63,7.41,3,3.05-.59,4.35-1.39,4.12-5.26-.9-15.28,3.83-30.9-3.11-45.82-.61-1.31-.65-3.18-.28-4.62,2.18-8.43,1.34-17.07,2.04-25.59,1.39-16.94,8.78-33.08,6.63-50.57-.3-2.41,1.58-5.11,2.53-7.65,4.25-11.41,14.48-18.43,20.07-28.94-12.28,5.04-19.38,14.9-23.8,26.64-4.71,12.51-4.38,26.85-13.93,37.65-1.46,1.65-1.93,4.24-2.61,6.48Z"/><path d="M266.55,224.89c.03-.17.05-.33.09-.5-.08-.03-.13-.08-.2-.12-.01.11-.02.23-.03.34.05.09.09.19.14.28Z"/><path d="M395.24,147.87c.02-.08.02-.15.04-.23-.17-.2-.36-.4-.53-.6.12.27.23.54.32.79.06,0,.11.02.17.03Z"/><path d="M112.98,409.9c3.65,4.69,7.6,5.97,13.2,3.06,6.88-3.57,14.18-6.3,21.15-9.72,2.89-1.42,5.39-2.07,6.76,1.31,2.72,6.75,7.75,10.07,14.46,12.49,5.77,2.08,11.31,5.46,16.2,9.24,16.74,12.97,34.12,24.59,54.89,30.17,6.02,1.62,12.82,4.03,18.16,1.92,11.17-4.41,22.31-9.83,31.91-16.94,5.23-3.88,8.82-4.08,14.54-3.34,7.47.96,15.17,4.27,22.84-.49,10.13-6.28,21.34-4.82,32.73-4.65,25.02.38,37.36-2.48,42.77-26.06,3.77-16.46,12.38-31.05,17.65-47.01,4.45-13.46,9.35-27.19,9.53-40.7.26-19.37,3.97-38.09,6.83-56.83,5.25-34.37-2.4-66.07-15.48-96.97-8.46-20-23.51-35.91-37.93-51.63-10.19-11.1-23.11-19.79-35.22-29.02-8.08-6.16-17.16-12.47-26.78-14.02-12.37-1.99-23.44-8.81-36.24-8.54-2.39.05-6.2-.45-6.57-3.75-.46-4.11,3.24-3.19,5.8-3.64,2.98-.52,3.33-3.13,3.13-5.47-.37-4.3-3.21-7.25-6.91-8.63-2.46-.92-3.78,1.55-4.93,3.83-3.59,7.16-4.46,7.15-10.77,3.04-3.23-2.11-5.18-8.53-10.41-4.9-4.97,3.45,2.33,7.46.86,11.32-18.43-1.34-36.61-2.67-54.75.12-18.51,2.85-36.59,7.74-54.74,12.26-5.06,1.26-9.17,3.22-13.22,6.74-7.16,6.22-17.54,8.27-22.83,17.14-.16.27-.7.45-1.05.44-8.01-.13-10.63,6.01-14.72,11.34-3.6,4.7-6.12,10.12-8.57,15.01-4.03,8.03-11.36,14.09-13.52,22.92-1.87,7.68-5.41,14.18-10.25,20.37-3.29,4.22-6.23,8.82-7.74,14.3-4.51,16.43-4.95,33.24-4.78,50.04.11,10.52.23,21.32,2.56,31.48,3.63,15.86,4.99,32.33,12.09,47.37,4.95,10.49,8.35,21.68,14.56,31.62,12.82,20.52,25.56,41.09,30.35,65.34.7,3.52,2.2,6.59,4.43,9.45ZM314.87,375.27c.09.95-.71,2.37-1.54,2.94-8.92,6.12-10.2,16.3-13.6,25.34-1.77,4.71-3.04,9.1-8.75,11.49-3.94,1.65-6.89,6.02-9.16,10.32-5.95,11.29-16.99,15.52-28.16,19.36-1.42.49-3.29.77-4.61.27-13.03-4.97-27.15-6.46-39.29-14.56-14.61-9.76-29.14-19.65-43.19-30.15-9.52-7.12-14.6-18.1-17.34-29.61-2.36-9.93-4.74-19.74-9.75-28.74-.74-1.33-1.02-2.96-1.32-4.49-3.01-15.33-7.13-30.39-10.86-45.55-3.85-15.65-.4-31.85-2.78-48.08,6.93-.7,10.66,4.38,15.85,5.69,4.66,1.18,10.4-3.47,14.25,3.23-4.22,2.89-7.84,7.41-13.89,6.75-4.13-.45-5.71,1.91-6.83,4.95-1.67,4.55.77,7.72,5.72,7.15,6.29-.73,11.89-2.87,16.91-7.25,5.77-5.03,10.04-11.77,17.8-16.55,0,4.56-.39,7.93.08,11.17,1,6.87-.99,11.54-8.2,13.11-3.73.81-5.71,2.95-4.07,6.7,1.79,4.1,4.96,2.88,7.85,1.24,1.69-.95,3.27-2.12,4.82-3.3,1.73-1.31,2.96-4.29,5.72-2.43,2.19,1.48,1.92,4.18,1.49,6.46-1.37,7.4-.7,14.81-.5,22.24.15,5.46-.24,10.81-3.43,15.75-8.1,12.55-10.47,27.42-10.4,41.35.05,9.66,1.65,19.82,1.83,29.83.03,1.68.96,3.14,2.68,3.3,1.66.15,2.9-1.1,3.57-2.56,2.91-6.36,5.74-12.75,8.69-19.34,7.47.96,12.73,4.93,15.84,10.85,3.11,5.92,6.35,5.66,11.17,2.55,6.23-4.02,12.49-8.06,19.08-11.43,11.14-5.69,21.64-12,27.57-24.35,7.94,6.77,6.24,15.85,9.17,23.19,7.67-5.74,9.38-10.9,5.07-17.16-2.31-3.36-4.32-6.33-3.26-11.76,5.46,5.25,11.83,8.36,13.82,15.72.29,1.08.91,2.16,1.62,3.03,1.4,1.71,3.36,2.09,5.25,1.1,1.48-.77,1.96-2.38,1.64-4.03-1.23-6.38-4.61-11.64-9.21-16.01-6.67-6.34-13.4-12.65-20.51-18.48-2.01-1.65-4.51-2.25-5.57-5.23-1.29-3.61-4.9-4.91-8.3-5.93-7.63-2.29-9.58-.96-11.38,7.39-1.66,7.67-1.66,7.99,6.22,8.01,4.77.01,5.25,2.47,4.59,5.94-.36,1.87-.99,4.08-2.28,5.3-10.13,9.53-19.03,20.9-33.89,23.7-9.53,1.79-14-1.24-15.28-11.05-.66-5.01-.61-10.14-.65-15.21-.03-3.91.59-7.91-.84-11.64-4.63-12.08-3.53-24.69-3.33-37.15.15-8.99.5-17.85-1.03-26.83-1.59-9.33.38-10.54,10.02-8.5,6.86,1.45,13.6,3.08,20.34,5.15,8.79,2.69,14.84,8.52,20.38,14.62,4.05,4.47,8.73,6.85,13.81,7.95,7.58,1.65,15.49,1.85,23.28,2.54,2.09.19,4.21-.72,4.44-2.91.26-2.5-2.2-2.76-4.03-3.22-4.17-1.05-8.31-2.46-12.55-2.97-11.53-1.4-20.41-6.9-28.07-17.5,5.97-1.22,10.82-.16,14.94,1.18,13.33,4.32,26.18,2.17,39.1-1.17,10.93-2.82,13.35-.31,16.81,10.74,4.53,14.45,1.88,29.27,4.25,43.58,2.38,14.36.71,28.77,2.96,42.96,1.13,7.11-1.46,13.94-.8,20.97ZM145.08,126.92c2.54,5.36-2.48,8.25-2.38,12.13.07.32.15.64.22.96-.08-.02-.14-.01-.21-.02-7.18,31.23-3.26,62.16,1.59,93.95-6.65-1.42-9.43-6.18-11.82-11.33-3.73-8.04-4.51-17.03-3.52-25.23,1.55-12.74.4-25.72,3.75-38.3,1.41-5.29,2.53-10.62,4.89-15.58,1.02-2.14,2.33-3.98,5.11-3.5.02-.09.03-.17.05-.26-.04-.23-.06-.45-.06-.68-.92-4.01-1.72-8.07,2.38-12.13ZM235.83,123.27c-.34-12.35,5.91-22.49,11.25-32.89,3.32-6.47,10.75-3.2,15.21-6.67,3.84,4.86,4.58,8.55.71,13.71-6.28,8.39-6.62,19.26-8.07,29.08-3.53,23.83-8.56,47.8-3.13,72.07,3.65,16.29,3.77,33.42,12.25,49.68-12,1.53-16.77-1.32-18.34-11.31-3.7-23.51-10.07-46.59-11.73-70.42-.46-6.61-.47-13.32.08-19.91.65-7.77,1.98-15.48,1.77-23.32ZM299.12,187.07c.55,19.61,12.59,35.14,15.22,54.31-4.69.96-8.46-.37-10.4-4.67-5.64-12.52-7.43-26.06-9.7-39.44-.59-3.5.03-7.05,4.88-10.2ZM300.57,127.14c1.8-1.72,4.35-3.93,7.23-2.3,3.06,1.72,3.69,4.37,2.44,7.97-3.42,9.82-4.85,20.28-10.64,29.87-.69-6.39-1.73-12.78-2.93-19.19-1.05-5.63-.78-11.87,3.9-16.34ZM307.12,185.27c-.57-5.52-1.1-10.9.27-16.24,2.5-9.68,5.3-19.28,8.1-29.37,5.92,4.75,5.47,10.28,3.56,15.3-4.27,11.19-1.75,22.9-3.29,34.28-.3,2.25,2.09,4.88,3.29,7.31,3.06,6.17,7.81,11.85,4.16,19.62-1.33,2.85,1.23,5.02,3.11,7.03,4.58,4.88,3.48,10.85,3.02,16.66-.09,1.14-.58,2.44-2.08,2.26-1.08-.13-2.32-.49-3.07-1.2-.78-.73-1.26-1.96-1.51-3.05-4.1-17.84-13.66-34.04-15.57-52.59ZM313.44,104.26c8.79,3.93,17.56,8,20.64,19.9-11.4-3.45-12.36-15.52-20.64-19.9ZM330.1,167.03c5.28,1.82,6.3,5.75,7.6,9.15,7.7,20.11,13.9,40.54,12.78,64.46-13.73-23.72-23.94-46.2-20.38-73.61ZM341.55,380.34c2.15,9.49-2.46,17.58-5.06,26.08-.7,2.3-2.53,4.28-5.31,3.25-2.29-.85-1.72-3.23-1.5-5.07,1.33-11.24,5.61-22.06,4.82-33.62-1.33-19.43-.31-38.97-3.75-58.31-1.77-9.97-2.02-20.21-4.93-30.02-.33-1.11-1.02-2.76-.54-3.38,5.09-6.62-.22-11.36-2.88-16.5-.86-1.67-2.87-3-1.61-5.11,1.02-1.7,2.8-2.81,4.8-3.07,2.44-.32,3.53,1.43,3.85,3.43,1.06,6.56,3.08,13,4.05,19.46,2.03,13.62,6.71,26.49,9.53,39.85,1.55,7.35.91,14.82,1.23,22.03-1.25,9.11-.02,18.21-2.82,27-1.45,4.53-.92,9.39.12,13.98ZM358.61,323.96c-1.64,19.59-1.69,39.41-3.08,59.1-.21,3.03.49,6.22,1.3,9.2,1.21,4.47-.45,8.37-1.43,12.54-1.07,4.52-3.85,4.28-7.05,3.5-3.11-.77-3.25-3.49-2.25-5.56,4.31-8.96,2.8-18.27,2.54-27.63-.16-5.75,1.25-11.56,2.08-17.33,3.73-26.12-1.24-51.24-8.54-76.12-1.1-3.74-2.13-7.55-2.64-11.4-.83-6.24-3.33-13.16,6.21-15.8,1.84-.51,2.77-4.28,4.38-6.97,3.35,2.42,3.56,4.95,3.52,7.16-.42,23.22,6.96,45.71,4.98,69.32ZM369.96,380.11c.63,3.81-.49,7.56-3.95,10.3-3-2.54-2.55-5.84-2.25-8.8,1.93-19.04,2.55-38.15,2.89-57.24.31-17.53.64-34.99-3.65-52.47-2.63-10.74-1.89-22.41-2.77-33.65-1.76-22.44-5.84-44.19-14.31-64.92-5.08-12.43-11.83-24.18-17.41-36.53,11.93,11.07,24.54,20.69,28.34,38.87,3.39,16.21,8.61,32.17,11.97,48.51,2.27,11.08,3.5,22.35,7,33.2,1.03,3.19.66,7.03.22,10.48-1.98,15.68-.2,31.19,1.92,46.66,1.9,13.85,0,27.35-3.67,40.53-2.31,8.29-5.82,16.11-4.33,25.08ZM340.63,132.64c5.37,2.34,9.18,6.15,12.01,10.94-6.36-1.14-10.4-4.78-12.01-10.94ZM412.61,315.15c-.02,14.46-4.51,27.31-6.78,40.92-1.83,10.96-5.28,21.16-8.66,31.47-2.34,7.15-6.41,13.5-14.44,16.09,8.63-14.4,10.27-30.15,12.16-45.96.92-7.7,4.08-15.1,5.4-22.78,2.7-15.7,2.51-31.76,3.54-47.56,1.49-22.84-.64-46.1-3.17-68.96-1.74-15.79-6.64-31.25-10.35-46.81-1.56-6.56-5.58-12.02-9.11-17.64-1.63-2.6-4.18-4.73-3.48-9.11,5.5.58,9.84,2.63,10.09,8.65.19,4.72,2.36,8.09,4.85,11.62,2.96,4.19,5.04,8.64,5.23,14.01.11,3.05,1.09,6.19,2.23,9.07,5.52,14.03,6.62,28.66,6.07,43.5-.18,4.81,1.23,9.27,2.19,13.84,4.87,23.03,4.26,46.26,4.22,69.66ZM379.59,177.92c-1.95-3.81-4.91-7.86-1.34-14.55,9.76,19.48,10.47,39.37,14.4,58.49-6.55-6.35-9.75-14.16-8.83-22.68.84-7.8-.76-14.49-4.23-21.26ZM374.6,121.25c5.02,2.69,16.68,17.7,20.15,25.8.18.2.36.39.53.6-.02.08-.02.15-.04.23,6.75.86,9.22,6.61,11.48,11.52,5.54,12.03,10.9,24.13,12.74,37.57,1.26,9.22,4.1,18.19,5.43,27.5,1.98,13.81,1.16,45.93-3,62-1.71-13.81-2.87-25.96-4.79-38-3.73-23.44-4.82-47.29-11.7-70.26-2.02-6.76-3.39-13.59-7.39-19.53-2.21-3.28-3.69-6.73-2.78-10.79-.06,0-.11-.02-.17-.03-.1-.26-.21-.52-.32-.79-6.41-7.24-15.84-11.73-19.57-21.45-.56-1.46-1.33-2.78-.58-4.35ZM378.51,185.6c.63,1.26.76,3.31.17,4.55-4.85,10.19-.28,18.99,3.8,27.91,3.22,7.04,6.32,13.68,3.65,22.2-1.75,5.59-.1,12.12,3.66,19.09,3.56-6.64-1.39-12.77,2.51-18.15,3.38,3.67,2.17,8.22,2.33,12.14.54,12.81,3.71,25.66,1.59,38.37-1.81,10.84-3.4,21.39-1.51,32.39,1.08,6.27-.91,12.51-3.24,18.31-3.26,8.13-4.49,16.53-4.98,25.15-.6,10.77-4.3,20.38-11.21,30.37.55-22.35,7.43-41.6,10.12-61.6.42-3.09.81-6.28.5-9.35-2.3-22.55-1.26-45.26-2.95-67.79-1.46-19.4-5.04-38.64-10.88-57.41-4.01-12.91-6.78-26.2-9.27-39.66,8.01,6.15,11.53,15.06,15.71,23.49ZM346.22,96.4c2.87,8.55,11.1,12.47,15.35,19.67,1.14,1.94,3.3,3.3,3.05,5.94-10.45-5.29-19.2-13.92-27.32-26.98,3.44-2.08,7.71-2.22,8.92,1.38ZM305.48,78.54c1.82,10.42,12.06,11.39,18.29,15.98,11.95,8.81,18.05,22.13,30.34,31.56-7.63,3.02-10.45-.93-13.01-4.77-8.34-12.48-18.47-22.93-31.25-31.09-5.06-3.23-9.89-7.74-12.4-14.35,3.53-1.14,7.72.85,8.04,2.67ZM301.14,93.57c-7.99-2.17-9.03-7.9-12.77-12.49q7.33,2.98,12.77,12.49ZM285.39,115.7c5.28-7.19,9.04-7.11,16.86-.35-.36.65-.58,1.69-1.11,1.89-11.97,4.48-13.17,13.6-11.58,24.71,1.49,10.37,0,21.08,3.3,31.29,1.21,3.76.03,6.67-2.75,9.45-6.31,6.31-6.81,14.16-3.46,21.71,4.3,9.7,1.85,20.83,7.6,30.35,1.66,2.74-4.85,6.21-5.46,11.01-7.67-11.59-14.69-22.84-14.77-36.56-.09-15.51-2.49-30.89-.79-46.57,1.31-12.07,5.08-23.56,6.33-35.6.41-3.96,3.32-7.92,5.83-11.33ZM271.07,99.5c1.8-1.97,3.58-4.82,6.71-2.41,2.37,1.82,5.31,3.77,3.62,7.67-.31.72-.73,1.38-1.1,2.07-10.64,19.28-11.41,40.72-14.47,61.86-2.71,18.78,2.53,37.07.6,55.58.07.03.13.08.2.12-.04.17-.06.33-.09.5,3.74,7.42,7.48,14.84,11.22,22.26-2.51,1.57-5.23,2.33-6.12-.53-2.21-7.1-6.67-13.77-5.1-21.73-.05-.09-.09-.19-.14-.28.01-.11.02-.23.03-.34-1.43-.67-2.22-1.86-2.48-3.4-2.28-13.86-5.07-27.67-6.65-41.62-1.5-13.25,1.77-26.41,2.74-39.62.65-8.86,3.16-17.59,4.96-26.36,1.03-5,2.5-9.88,6.06-13.77ZM263.86,68.71c1.36.76,2.14,2.18,2,3.94-.15,1.93-1.55,2.64-3.05,2.98-1.51.34-3.12.45-4.66.36-10.02-.58-14.25,5.06-18.72,13.58-17.18,32.74-15.46,66.8-9.63,101.46.32,1.92,1.1,3.84,1.05,5.74-.25,9.54,1.82,18.31,6.34,26.87,3.55,6.73,1.74,14.43,1.2,21.82-9.49,3.07-13.67-1.7-15.99-8.62-3.61-10.73-6.91-21.76-7.65-32.96-1-15.2-3.04-30.25-4.46-45.38-.79-8.38-2.05-17.56,6.05-24.04.46-.36.55-1.52.41-2.24-1.85-9.71,2.66-18.38,4.38-27.51,3.3-17.53,14.12-28.97,29.46-36.98,4.87-2.55,9.06-1.37,13.28.99ZM235.78,64.12c-9.09,9.28-15.6,19.78-20.53,31.35-7.29,17.12-12.16,35.11-13.25,53.5-.73,12.24,2.61,24.73,4.15,37.1.29,2.32,1.29,4.71.95,6.91-2.82,18.41,6.07,34.79,8.2,52.21-10.67.02-9.69-.38-13.53-9.78-7.6-18.61-4.9-38.66-9.45-57.64-3.23-13.45-1.82-27.24-1.77-40.9.01-2.63-1.1-7.6,5.21-4.67,1.91.88,2.27-2.7,2.11-4.46-2.14-22.9,11.31-40.01,21.7-58.18,3.37-5.9,10.46-3.82,16.21-5.43ZM201,66c1.17-2.39,3.76-2.56,6.14-2.56,3.39,0,5.36,1.26,3.93,5.01-.69,1.82-1.25,3.88-2.5,5.27-7.93,8.82-10.3,20.6-16.51,30.4-7.21,11.37-8.84,24.28-9.22,37.84-.51,18.1,2.6,35.54,4.74,53.3,1.74,14.45,1.78,29.17,7.11,45.36-6.54-2.19-8.51-5.93-13.13-5.52-5.57.49-8.1-3.8-8.55-9.1-.4-4.67-.78-9.33-1.05-14.01-.58-10.06,1.13-20.33-3.13-30.07-1.27-2.9-.29-6.15.13-9.26,2.07-15.33,2.44-30.95,8.36-45.61,1.78-4.4,2.04-9.07.45-13.77-2.6-7.67-.34-14.48,3.71-21.13,5.69-9.35,14.65-16.2,19.52-26.16ZM192.11,65.11c-5.59,10.51-15.82,17.53-20.07,28.94-.94,2.54-2.82,5.24-2.53,7.65,2.15,17.48-5.24,33.63-6.63,50.57-.7,8.53.13,17.16-2.04,25.59-.37,1.44-.33,3.3.28,4.62,6.95,14.92,2.21,30.55,3.11,45.82.23,3.87-1.07,4.67-4.12,5.26-3.23.63-6.23,1.38-7.41-3-.81-3.01-2.33-5.89-2.72-8.94-3.69-28.66-6.78-57.33,1.79-85.73.67-2.23,1.15-4.83,2.61-6.48,9.55-10.81,9.22-25.14,13.93-37.65,4.42-11.75,11.51-21.6,23.8-26.64ZM165.53,75.03c.67-.09,1.41.3,2.12.47-.16,1.39-1.36,1.64-2.35,1.95-.55.17-1.77-.06-1.81-.25-.25-1.48.88-2.01,2.04-2.16ZM150.7,90.44c1.74-1.54,3.21-3.46,5.73-3.82,2.98-.42,5.59-.6,5.03,3.85-1.01,7.9-3.47,15.11-8.67,21.39-3.33-3.3,1.59-8.04-3.39-11.45-3.53,5.46-4.2,13.99-14.16,14.13,4.76-8.66,8.09-17.57,15.47-24.1ZM73.76,272.16c-1.76-.26-2.1-1.84-2.35-3.41.13-.79-.17-2.53,1.08-1.93,1.07.51,1.52,2.38,2.15,3.7.4.83-.02,1.77-.88,1.65ZM74.57,253.19c-4.89-12.47-11.7-24.27-7.61-38.66,1.55-5.43.6-11.6.62-17.43.06-17.25,6.42-32.63,13.95-47.68,1.66-3.32,3.36-6.62,5.5-10.84,2.4,5.19.23,9.19-.55,13.09-2.36,11.83-4.59,23.7-6.92,35.5-4.33,21.92-4.08,43.8-4.99,66.02ZM101.59,296.15c-2.76,15.1-3.37,30.19-.11,45.32.2.95-.37,2.06-.99,5.03-5.09-17.85-8.75-34.22-15.06-49.74-.28-.7-.34-1.55-.31-2.32.82-21.5-2.05-42.86-2.37-64.35-.44-29.67,6.39-58.14,11.71-86.85,2.11-11.4,6.7-22.36,9.53-33.74,1.6-6.43,9.2-8.45,15.37-11.76-3.55,6.32-6.74,12.88-10.74,18.9-4.4,6.6-6.72,13.7-9.05,21.27-7.93,25.67-4.11,51.53-3.21,77.39.05,1.56.68,3.33.16,4.65-4.41,11.25.72,22.19.83,33.26.11,11.36.46,22.65,3.71,33.64.9,3.04,1.08,6.19.52,9.31ZM137.58,94.13c-16.23,26.06-20.62,54.26-33.36,80.37-6.7-23.86,10.34-65.54,33.36-80.37ZM118.43,169.23c-2.48,12-4.95,24-7.43,36-2.35-15.88-.15-26.28,7.43-36ZM107.02,216.26c6.4,10.89,4.73,21.53,1.06,32.19-3.32-10.49.2-21.12-1.06-32.19ZM108.69,314.37c4.94,22.33,14.18,42.77,23.97,63.04,2.58,5.34,4.38,11.07,12.11,10.42,1.54-.13,2.88,1.6,2.64,3.12-.25,1.6-2.03,2.23-3.59,2.53-11.6,2.26-19.94-2.74-22.28-14.12-1.97-9.59-5-18.73-8.69-27.78-4.86-11.9-6.26-24.36-4.17-37.22Z"/><path d="M142.71,139.98c.07.01.14,0,.21.02-.07-.32-.15-.64-.22-.96,0,.22.02.45.06.68-.02.09-.03.17-.05.26Z"/><path d="M261.79,374.83c-13.58-5.92-24,5.42-36.26,6.76-.31.03-.68.46-.83.79-3.47,7.6-10.72,9.54-17.69,11.98-2.19.77-4.43,1.73-6.27,3.11-1.6,1.19-2.2,3.25-1.18,5.26,1.05,2.07,3.11,2.78,4.92,1.75,6.8-3.86,14.3-3.3,21.64-4.1,6.2-.67,12.79-2.15,17.93-4.76,8.07-4.09,16.15-7.01,24.78-9.44,4.91-1.38,11.26-4.3,9.71-13.36-6.12,1.52-11.15,4.44-16.75,2Z"/><path d="M255.33,399.75c-2.46,1.55-5,1.78-7.69,1.85-2.7.07-6.03.06-6.09,3.53-.06,2.99,2.83,4.37,5.64,4.82,1.5.24,3.06.04,6.67.04.21-.03,2.77.25,4.64-.77,2.61-1.42,5.32-3.55,3.47-7.37-1.45-3.01-3.96-3.79-6.64-2.1Z"/></svg>