<?xml version="1.0" encoding="UTF-8"?><svg id="Dewds" xmlns="http://www.w3.org/2000/svg" viewBox="0 0 500 500"><defs><style>.cls-1{fill:#fff;}</style></defs><path class="cls-1" d="M243.47,212.62c8.56.84,14.48-3.5,20.18-9.49-2.64-2.29-5.37-2.77-8.01-3.47-1.48-.4-2.22-.23-2.86,1.47-1.14,3.04-3.63,4.74-6.89,5.22-5.27.77-10.35.75-14.86-2.76-1.77-1.38-5.34-.7-6.3,1.28-.98,2.03,1.23,2.57,2.28,3.52,1.29,1.16,2.94,1.78,4.54,2.47,3.84,1.65,7.91,1.37,11.92,1.76Z"/><path class="cls-1" d="M183.03,210.33c-2.9-1.49-7.5.16-9.2,3.13-3.24,5.66-9.98,8.03-15.91,5.44-1.96-.86-3.56-1.05-5.29,1.24,4.22,2.43,8.24,4.73,13.19,3.53,4.08-.99,8.03-2.36,11.84-4.12,2.74-1.27,4.61-3.39,6.11-5.95.81-1.38.59-2.6-.73-3.28Z"/><path class="cls-1" d="M393.19,248.13c-10.63-3.16-15.72-2.43-25.26,3.21-.87.52-1.76,1.01-2.62,1.55-5.12,3.2-8.73,7.51-10.26,13.49-1.34,5.23-1.74,10.59-2.11,15.91-.64,9.27-1.48,18.49-3.27,27.61-.57,2.9-1.73,3.46-4.07,1.76-3.38-2.46-4.92-6.01-5.12-10.06-.25-5.11,1.52-10.04,1.66-15.12.27-9.77,1.99-19.28,4.4-28.74,2.67-10.5,9.98-16.76,19.26-20.3,5.61-2.14,11.78-4.05,18.24-3.28,2.86.34,3.37-.28,3.44-3.15.19-8.23.95-16.45-1.31-24.63-2.2-7.95-4.03-16.04-7.5-23.52-1.83-3.95-3.64-7.86-4.76-12.04-1.13-4.24-2.95-8.17-4.81-12.1-5.52-11.66-12.03-22.81-17.89-34.28-.33-.64-.64-1.35-1.15-1.82-4.68-4.35-8.39-9.57-12.95-14.08-9.47-9.37-19.76-17.48-31.7-23.45-3.37-1.69-6.95-2.89-10.26-4.73-9.28-5.16-19.09-9.14-29.09-12.63-13.89-4.84-28.34-7.26-42.79-9.55-6.58-1.04-13.28-1.3-19.97-1.01-7.54-.09-15.2-.2-22.5,1.54-9.73,2.31-19.33,5.65-27.69,11.2-12.36,8.21-23.18,18.15-32.68,29.74-8.04,9.81-14.74,20.07-18.01,32.33-3.09,11.58-3.12,23.21.3,34.78,2.42,8.19,4.96,16.36,7.22,24.6,4.2,15.29,9.39,30.19,17.54,43.87,5.79,9.72,11.29,19.61,17.95,28.8,5.36,7.39,10.26,15.13,15.74,22.43,4.84,6.45,8.58,13.45,11.52,20.88,3.04,7.67,5.49,15.57,8.34,23.32,5.96,16.24,10.25,32.98,12.91,50.06,2.15,13.84,8.26,25.86,15.3,37.6,4.9,8.17,11.44,15,18.31,21.47,3.36,3.16,7.15,5.88,11.3,8.08,5.8,3.08,11.88,5.44,18.15,7.28,15.38,4.51,30.2,3.04,44.06-5.18,6.92-4.1,12.24-10.19,17.9-15.81,8.56-8.51,14.46-18.87,20.09-29.35,4.95-9.21,9.12-18.77,10.75-29.23.27-1.71.64-3.33.08-5.13-.93-3.01.58-4.46,3.51-3.42,1.96.69,3.94,1.53,5.91.83,4.17-1.48,8.4-3.02,10.91-7.1,1.14-1.85,2.3-3.7,3.33-5.62,4.23-7.86,6.47-16.06,4.83-25.12-.53-2.96-.21-6.08-.15-9.13.06-3.3,1.22-6.03,3.6-8.54,4.89-5.14,9.67-10.39,13.45-16.49,6.66-10.76,9.45-22.34,8.01-34.87-.72-6.23-3.78-11-10.09-12.87ZM262.9,172.27c5.5,1.46,10.59,3.92,15.36,7.01,6.67,4.33,13.85,7.89,19.93,13.11,1.31,1.13,2.49,2.42,3.69,3.68.61.63,1.15,1.37,1.05,2.3-.08.84-.09,1.81-1.07,2.2-.7.28-1.45.18-2.07-.26-.58-.42-1.14-.91-1.62-1.45-3.94-4.42-8.98-7.23-14.17-9.86-8.19-4.15-16.82-7-25.64-9.44-7.25-2-14.46-4.15-21.71-6.13-5.59-1.53-11.17-1.59-16.81-1.29-4.02.22-8.05.34-11.94,1.93-2.66,1.09-4.28-.23-5.71-3.72-.69-1.69,0-3.32,2.21-4.6,2.16-1.25,4.58-1.84,7.05-1.96,2.89-.15,5.8-.03,8.69-.03,9.3.04,18.36,1.57,27.36,4.01,5.17,1.4,10.23,3.13,15.4,4.5ZM240,221.12c7.68.42,15.38.61,22.68-2.62,1.86-.82,3.74-1.56,5.36-2.84,1.15-.91,2.57-2.02,3.71-.34.99,1.46-.02,2.78-1.35,3.63-4.91,3.13-10.05,5.81-15.9,6.57-3.86.5-7.76.95-11.8.8,4.59,2.41,8.84,5.47,14.11,6.46,4.55.85,9.02,2.16,13.74,1.11,1.19-.27,2.3.51,2.4,1.94.09,1.37-.68,2.14-2.01,2.38-3.75.67-7.52.69-11.26,0-10.94-2-20.44-7.28-29.5-13.39-2.14-1.44-4.5-2.67-6.22-4.71-1.86-2.21-3.87-4.28-4.95-7.08-.73-1.89-1.97-3.53-3.27-5.11-2.02-2.44-2.09-2.86.23-5,3.42-3.16,7.48-5.47,11.56-7.64,3.17-1.69,6.39-3.26,10.05-3.98,6.65-1.3,13.06-.16,19.34,1.53,6.86,1.85,13.65,4.14,18.98,9.25,1.04,1,2.05,2.05,2.95,3.18.62.77,1.34,1.66.65,2.75-.63,1-1.73.91-2.74.98-2.35.16-4.18-1.16-5.99-2.3-2.07-1.3-3.53-1.65-5.53.5-2.24,2.4-4.91,4.45-7.81,6.21-4.54,2.75-9.38,3.51-14.57,3.51-4.8,0-9.54.24-14.04-1.94-1.2-.58-2.51-1.02-3.78-1.54,4.05,4.45,8.94,7.38,14.96,7.71ZM217.9,184.99c.11-.09.23-.19.35-.25,5.41-2.75,10.69-5.89,18.19-5.83,6.31,1.55,14.18.5,21.3,4.33,3.75,2.02,8.37,2.2,12.02,4.77,1.46,1.02,2.77,2.09,3.52,3.73.39.84.45,1.7-.28,2.4-.59.57-1.36.49-2.04.25-.67-.23-1.32-.6-1.91-1-3.63-2.45-7.82-3.71-11.71-5.57-7.21-3.44-14.88-3.56-22.48-4.24-3.94-.35-7.68,1.17-11.23,2.93-1.3.64-2.58,1.31-3.91,1.89-1.03.45-2.03.38-2.59-.76-.52-1.06-.14-1.96.76-2.67ZM153.85,133.61c.56-.66,1.23-1.22,1.89-1.79,6.04-5.12,12.95-8.7,20.33-11.43,3.05-1.13,6.14-1.63,9.28-.17.77.36,1.68.41,2.51.66.95.29,2.67-.47,2.58,1.32-.06,1.2-1.5,1.17-2.46,1.3-1.86.25-3.74.37-5.61.54-8.52.05-15.51,3.98-22.04,8.92-1.51,1.14-2.93,2.35-4.65,3.13-.66.3-1.41.6-1.98-.11-.64-.79-.45-1.66.16-2.37ZM130.81,171.82c9.07-3.85,16.22-10.59,24.15-16.14,9.75-6.83,20.54-10.6,32.25-11.9,8.69-.97,17.31-.2,25.95,1.01,8.31,1.16,16.6,2.76,25.06,2.46.58-.02,1.16-.02,1.74.02.6.04,1.16.24,1.34.89.23.83-.22,1.39-.89,1.76-2.21,1.21-4.58,1.79-8.3,1.67-6.73-.83-14.64-1.89-22.56-2.78-8.93-1.01-17.77-1.6-26.84-.14-14.06,2.26-25.3,9.63-36.25,17.84-3.37,2.53-6.84,4.89-10.37,7.18-1.22.79-2.49,1.5-3.97,1.68-1.13.14-2.08-.14-2.34-1.37-.2-.92.1-1.76,1.04-2.15ZM273.52,400.68c-1.88,2-3.7,3.94-6.55,4.78-4.45,1.31-8.83,2.82-13.56,2.67-2.44.05-4.93.36-7.22-.91-1.15-.64-1.79-1.54-1.18-2.84.51-1.1,1.48-1.26,2.57-.86,4.36,1.6,8.58.08,12.74-.82,3.93-.85,7.89-1.88,11.33-4.2.78-.53,1.69-.62,2.3.25.49.69.09,1.37-.44,1.92ZM288.94,380.14c-.38,1.68-1.81,1.6-3.13,1.61-1.16,0-2.32,0-3.47,0-5.75-.09-11.16,1.36-16.3,3.85-2.87,1.39-5.79,2.59-8.81,3.63-4.81,1.65-9.58,1.83-14.53.83-3.46-.69-6.92-.04-10.31.83-2.24.57-4.51,1.07-6.7,1.81-1.6.54-2.89,0-4.07-.8-2.1-1.41-1.86-3.92.39-5.12,5.88-3.16,12.07-4.59,18.81-3.9,6.84.7,13.32-.06,19.67-3.58,7.4-4.11,15.84-4.1,24.16-3.67,1.05.05,1.99.48,2.77,1.14,1.02.87,1.86,1.94,1.54,3.38ZM308.75,404.44c-2.05.4-2.41-1.04-2.87-2.46-2.65-8.28-5.09-16.65-8.03-24.83-3.97-11.02-8.02-22-12.98-32.68-4.04-8.7-9.07-16.83-13.15-25.48-1.97-4.17-4.72-7.99-7.37-11.8-1.91-2.73-4.56-4.77-7.91-6.57-1.53,5.33-4.55,9.54-8.05,13.43-4.04,4.5-8.78,7.99-14.65,9.78-3.05.93-6.12,1.81-9.12,2.88-5.26,1.88-10.59,1.34-15.92.59-2.48-.35-4.21-2.41-7.11-3.51.37,5.9.31,11.38,1.12,16.74,2.59,17.21,5.72,34.33,9.44,51.33.99,4.53,2.02,9.04,2.65,13.64.35,2.6,1.12,5.09,2.25,7.47.49,1.04,1.07,2.07,1.09,3.28.03,1.89-1.26,2.82-2.77,1.78-1.99-1.36-3.91-2.66-4.77-5.32-1.79-5.52-3.36-11.05-4.5-16.74-1.56-7.81-3.42-15.56-5.23-23.32-1.64-7.06-2.81-14.2-3.98-21.35-.51-3.14-1.08-6.3-1.9-9.37-1.89-7.08-2.41-14.3-2.09-21.55.23-5.2.92-10.38,1.77-15.55.58-3.56-.26-7.21-.92-10.75-2.9-15.55-5.64-31.11-5.92-46.98-.04-2.13-.44-4.25-.67-6.41-.47.15-.88.16-.95.33-3.52,7.76-10.83,10-18.02,12.42-1.35.45-2.57.21-3.69-.64-.96-.73-.95-1.75-.73-2.76.24-1.1,1.07-1.1,2.03-1.02,4.82.41,8.72-1.98,12.22-4.71,3.34-2.6,5.43-6.38,7.17-10.26.23-.51.33-1.12-.14-1.68-1.12-.41-1.85.48-2.65.96-4.97,2.98-10.37,4.41-16.11,4.8-4.37.29-8.7-.33-13.05-.45-.71-.02-1.44-.22-2.13-.43-1.14-.35-1.56-1.2-1.46-2.35.12-1.28.92-1.73,2.09-1.67,2.03.09,4.06.17,6.08.33,8.6.72,16.77-.49,24.32-4.98,4.09-2.43,4.45-3.4,2.37-8.68-4.28,4.03-9.59,5.81-15,7.5-4.67,1.46-9.11,1.47-13.51-.73-1.17-.58-2.37-1.09-3.57-1.6-2.9-1.24-3.2-1.26-4.98,1.38-1.12,1.66-2.54,2.8-4.3,3.5-1.75.7-3.51-.61-2.95-2.38.86-2.72,1.35-5.67,3.36-7.92,3.19-3.57,6.12-7.42,9.67-10.59,3.95-3.52,8.95-5.27,14.22-5.99,4.45-.6,8.95-.21,13.35-.27.75-2.49-.41-4.3-1.18-6.12-.93-2.19-3.17-2.02-4.92-1.95-6.84.27-13.54,1.17-19.64,4.79-5.43,3.23-10.42,6.84-13.74,12.38-.57.94-1.3,2.22-2.71,1.26-1.34-.91-1.09-2.17-.4-3.46,3.58-6.65,9.17-10.93,15.74-14.45,7.01-3.75,14.54-4.4,22.7-5.21-2.08-2.59-4.21-4.67-6.71-6.34-1.42-.95-3.08-.72-4.64-.24-4.61,1.42-9.05,3.3-12.77,6.39-9.13,7.59-18.13,15.34-27.17,23.04-1.19,1.01-2.22,2.62-4.03,1.15-1.48-1.19-1.5-3.01-.11-5.09,3.82-5.71,8.64-10.57,13.61-15.23,5.59-5.24,10.79-10.98,17.84-14.48,4.06-2.01,8.09-3.89,12.75-4.01,6.19-.15,11.25,1.88,15.23,6.82,2.43,3.01,3.97,6.28,5.14,9.93,3.19,10.01,4.7,20.33,5.8,30.7,1.87,17.73,3.4,35.49,6.34,53.09.88,5.28,1.65,10.6,2.92,15.8,1.38,5.64,1.58,11.47,3.3,17.06,2.65,8.6,5.91,11.68,14.73,10.79,12.99-1.3,23.49-7.1,29.37-19.46,1.7-3.58.69-7.77-2.28-10.27-1.39-1.17-2.92-1.87-4.8-1.45-.71.16-1.43.27-2.15.35-1.34.16-2.79.2-3.36-1.3-.63-1.67.81-2.26,1.95-2.87,3.73-2,7.73-2.26,11.23-.08,6.75,4.19,13.12,8.75,18.47,14.94,5.8,6.71,9.96,14.19,13.94,21.94,2.65,5.15,5.92,9.97,8.73,15.04,5.09,9.18,8.44,19.09,11.75,28.99,3.9,11.69,6.91,23.61,8.53,35.86.2,1.54.63,2.9-1.5,3.31ZM316.84,302.46c-2.06,8.82-3.06,17.66-3.08,26.68,0,4.13.7,8.09,2.14,11.89,2.27,5.96,2.2,12.23,2.67,18.42.11,1.49-.4,2.96-2.22,3.25-2.08.34-2.77-.86-3.06-2.72-.83-5.43-1.82-10.84-2.66-16.27-.91-5.86-1.66-11.74-2.9-17.55-.97-4.54-1.19-9.2-1.19-14.41-.28-5.48,1.08-11.22,3.02-16.9,2.39-6.97,5.17-13.86,5.15-21.43,0-3.48-.36-6.88-.9-10.35-.98-6.3-3.32-12.31-3.81-18.69-.08-1.01-.21-2.03-.12-3.03.12-1.3.32-2.73,2.13-2.72,1.45,0,1.79,1.06,2.17,2.26.67,2.11.75,4.29.98,6.43.35,3.19,1.42,6.19,2.17,9.28,1.48,6.07,1.38,12.39,2.63,18.48,1.95,9.52-1.05,18.41-3.14,27.36ZM323.9,181.45c-2.57-.89-4.02-2.97-5.09-5.06-6.35-12.4-16.27-21.78-26.15-31.18-9.46-9-15.1-20.03-17.86-32.67-.41-1.88-.11-3.75.11-5.63.14-1.19.19-2.49,1.85-2.33,1.41.14,1.34,1.38,1.29,2.36-.27,4.76.94,9.25,2.84,13.48,3.75,8.35,8.27,16.2,15.34,22.35,8.12,7.07,15.06,15.28,21.78,23.65,2.81,3.5,4.12,7.96,6.2,11.94.45.86.35,1.95-.32,3.08ZM383.14,282.72c-6.77,5.09-7.58,12.7-9.26,19.93-2.39,10.29-5.13,20.48-7.89,30.67-.56,2.08-1.51,4.08-2.51,6-.71,1.36-2.03,2.21-3.65,1.51-1.58-.68-1.2-2.12-.95-3.4.17-.85.36-1.71.67-2.52,3.96-10.31,6.47-20.98,8.16-31.87.79-5.13,1.77-10.24,2.81-15.33.5-2.45.4-4.9.32-7.37.14-2.17.1-4.36.45-6.49.6-3.61,3.46-5.71,7.56-5.86,3.22-.11,5.43,1.69,6.28,5.4.78,3.39.89,7.16-1.99,9.32Z"/><path d="M411.21,246.32c-2.72-3.06-6.1-4.84-9.66-6.46-1.14-.52-1.99-.93-1.83-2.47.83-7.95.23-15.94.35-23.91.07-4.46-.45-8.97-1.1-13.4-.99-6.81-4.35-13.19-3.81-20.3.02-.28-.05-.6-.18-.85-2-3.7-2.54-7.97-4.52-11.69-1.9-3.57-4.15-7.02-5.11-11.02-.92-3.83-2.23-7.56-4.05-10.98-6.83-12.81-14.39-25.14-24.12-36.05-3.29-3.69-7.49-6.49-10.31-10.58-4.65-6.73-11.01-11.46-17.82-15.71-5.66-3.53-11.29-7.12-17-10.58-5.72-3.46-11.51-7.07-17.83-9.04-12.46-3.88-24.36-9.31-37.04-12.59-11.83-3.06-23.65-5.56-35.93-5.62-4.63-.02-9.29-.34-13.87-1-3.78-.54-7.53-.64-11.28-.37-5.79.42-11.54,1.22-17.32,1.73-4.4.39-8.46,1.71-12.47,3.52-5.95,2.69-11.73,5.73-17.8,8.15-4.86,1.93-9.44,4.45-13.66,7.61-8.29,6.21-15.42,13.65-22.51,21.12-1.7,1.79-3.7,3.44-4.87,5.54-6.11,10.96-13.75,21.06-16.86,33.68-3.1,12.57-6.32,25-5.89,38.08.17,9.92,1.52,19.44,5.45,28.82,4.02,9.61,8.07,19.24,11.73,29.01,3.94,10.52,10.11,19.9,15.2,29.83,1.39,2.71,2.7,5.49,4.37,8.02,10.2,15.5,20.59,30.88,30.71,46.43,4.11,6.31,8.3,12.68,11.01,19.74,3.01,7.84,5.68,15.83,8.06,23.88,4.52,15.29,8.84,30.61,14.06,45.7,3.75,10.87,8.27,21.36,13.33,31.63,4,8.13,10.5,14.56,15.9,21.74,3.37,4.48,7.71,7.82,12.32,10.87,3.03,2,6.03,4.03,9.12,5.93,11.94,7.32,24.62,12,38.91,12.22,10.34.16,20.12-1.92,29.89-4.84,14.76-4.4,25.79-13.66,34.14-26.19,9.81-14.72,16.47-30.92,21.19-47.94.97-3.49,1.88-7,2.89-10.48.31-1.05.52-2.13,2.05-2.46,7.32-1.59,12.32-6.65,15.9-12.59,7.24-12.01,10.83-25.3,10.6-39.38-.1-5.73.31-10.9,4.91-14.95.95-.84,1.54-2.1,2.32-3.14,8.49-11.36,13.8-24.16,16.5-37.98,1.48-7.6.32-15.35-.46-22.99-.29-2.8-1.54-5.41-3.6-7.73ZM395.27,295.87c-3.78,6.11-8.57,11.35-13.45,16.49-2.38,2.5-3.54,5.24-3.6,8.54-.06,3.05-.38,6.17.15,9.13,1.64,9.06-.6,17.26-4.83,25.12-1.03,1.92-2.19,3.76-3.33,5.62-2.51,4.08-6.74,5.62-10.91,7.1-1.97.7-3.95-.13-5.91-.83-2.93-1.04-4.45.41-3.51,3.42.56,1.8.18,3.42-.08,5.13-1.63,10.46-5.8,20.02-10.75,29.23-5.63,10.49-11.53,20.84-20.09,29.35-5.66,5.62-10.97,11.71-17.9,15.81-13.86,8.22-28.68,9.68-44.06,5.18-6.26-1.83-12.35-4.2-18.15-7.28-4.14-2.2-7.94-4.92-11.3-8.08-6.87-6.47-13.41-13.3-18.31-21.47-7.04-11.74-13.14-23.76-15.3-37.6-2.66-17.07-6.96-33.82-12.91-50.06-2.84-7.76-5.29-15.65-8.34-23.32-2.95-7.43-6.68-14.43-11.52-20.88-5.48-7.3-10.38-15.03-15.74-22.43-6.66-9.19-12.16-19.08-17.95-28.8-8.15-13.69-13.35-28.58-17.54-43.87-2.26-8.24-4.8-16.4-7.22-24.6-3.42-11.56-3.39-23.2-.3-34.78,3.27-12.26,9.97-22.52,18.01-32.33,9.5-11.59,20.32-21.53,32.68-29.74,8.36-5.56,17.96-8.89,27.69-11.2,7.31-1.74,14.96-1.63,22.5-1.54,6.69-.29,13.39-.03,19.97,1.01,14.45,2.29,28.91,4.71,42.79,9.55,10,3.49,19.81,7.47,29.09,12.63,3.31,1.84,6.89,3.04,10.26,4.73,11.93,5.98,22.22,14.09,31.7,23.45,4.55,4.5,8.27,9.72,12.95,14.08.51.47.82,1.18,1.15,1.82,5.87,11.48,12.38,22.62,17.89,34.28,1.86,3.94,3.67,7.86,4.81,12.1,1.12,4.18,2.92,8.09,4.76,12.04,3.48,7.49,5.3,15.57,7.5,23.52,2.26,8.18,1.5,16.4,1.31,24.63-.06,2.86-.58,3.49-3.44,3.15-6.46-.78-12.62,1.13-18.24,3.28-9.28,3.54-16.59,9.8-19.26,20.3-2.41,9.47-4.12,18.97-4.4,28.74-.14,5.08-1.91,10.01-1.66,15.12.2,4.05,1.74,7.6,5.12,10.06,2.34,1.7,3.5,1.14,4.07-1.76,1.79-9.12,2.63-18.35,3.27-27.61.37-5.32.77-10.68,2.11-15.91,1.53-5.98,5.14-10.28,10.26-13.49.86-.54,1.75-1.04,2.62-1.55,9.55-5.64,14.63-6.37,25.26-3.21,6.3,1.87,9.37,6.64,10.09,12.87,1.45,12.53-1.34,24.11-8.01,34.87Z"/><path d="M301.72,365.27c-3.31-9.9-6.66-19.81-11.75-28.99-2.81-5.07-6.08-9.89-8.73-15.04-3.99-7.75-8.15-15.23-13.94-21.94-5.35-6.19-11.72-10.75-18.47-14.94-3.5-2.17-7.5-1.92-11.23.08-1.14.61-2.59,1.2-1.95,2.87.57,1.5,2.01,1.45,3.36,1.3.72-.08,1.44-.19,2.15-.35,1.88-.42,3.41.27,4.8,1.45,2.97,2.5,3.98,6.69,2.28,10.27-5.87,12.36-16.37,18.16-29.37,19.46-8.82.88-12.08-2.2-14.73-10.79-1.72-5.59-1.92-11.42-3.3-17.06-1.27-5.19-2.04-10.51-2.92-15.8-2.94-17.6-4.47-35.36-6.34-53.09-1.09-10.37-2.6-20.69-5.8-30.7-1.16-3.65-2.71-6.92-5.14-9.93-3.99-4.95-9.05-6.97-15.23-6.82-4.65.11-8.69,1.99-12.75,4.01-7.04,3.5-12.25,9.24-17.84,14.48-4.97,4.66-9.79,9.52-13.61,15.23-1.39,2.07-1.36,3.89.11,5.09,1.81,1.46,2.84-.14,4.03-1.15,9.04-7.7,18.03-15.45,27.17-23.04,3.72-3.09,8.16-4.97,12.77-6.39,1.56-.48,3.22-.71,4.64.24,2.5,1.67,4.63,3.76,6.71,6.34-8.17.82-15.7,1.46-22.7,5.21-6.57,3.52-12.17,7.8-15.74,14.45-.7,1.29-.94,2.55.4,3.46,1.41.96,2.14-.32,2.71-1.26,3.32-5.54,8.3-9.15,13.74-12.38,6.1-3.62,12.79-4.53,19.64-4.79,1.75-.07,4-.24,4.92,1.95.77,1.82,1.93,3.63,1.18,6.12-4.4.06-8.9-.33-13.35.27-5.27.72-10.27,2.47-14.22,5.99-3.55,3.16-6.49,7.02-9.67,10.59-2.01,2.25-2.5,5.2-3.36,7.92-.56,1.77,1.2,3.08,2.95,2.38,1.76-.71,3.18-1.84,4.3-3.5,1.78-2.64,2.08-2.62,4.98-1.38,1.2.51,2.41,1.02,3.57,1.6,4.41,2.21,8.85,2.19,13.51.73,5.41-1.69,10.72-3.46,15-7.5,2.07,5.28,1.71,6.25-2.37,8.68-7.55,4.49-15.72,5.7-24.32,4.98-2.02-.17-4.06-.24-6.08-.33-1.16-.05-1.97.4-2.09,1.67-.1,1.15.32,2,1.46,2.35.69.21,1.41.41,2.13.43,4.35.12,8.68.75,13.05.45,5.74-.38,11.15-1.82,16.11-4.8.81-.48,1.53-1.38,2.65-.96.47.56.37,1.17.14,1.68-1.74,3.88-3.84,7.66-7.17,10.26-3.5,2.72-7.4,5.12-12.22,4.71-.96-.08-1.78-.08-2.03,1.02-.22,1.01-.23,2.03.73,2.76,1.12.86,2.34,1.1,3.69.64,7.19-2.42,14.5-4.66,18.02-12.42.07-.16.49-.17.95-.33.24,2.16.63,4.28.67,6.41.29,15.88,3.02,31.44,5.92,46.98.66,3.54,1.5,7.18.92,10.75-.84,5.16-1.54,10.35-1.77,15.55-.32,7.24.2,14.47,2.09,21.55.82,3.07,1.39,6.23,1.9,9.37,1.16,7.15,2.34,14.29,3.98,21.35,1.81,7.76,3.67,15.51,5.23,23.32,1.14,5.69,2.71,11.23,4.5,16.74.86,2.66,2.78,3.96,4.77,5.32,1.51,1.03,2.8.1,2.77-1.78-.02-1.21-.59-2.24-1.09-3.28-1.13-2.38-1.89-4.87-2.25-7.47-.63-4.6-1.66-9.1-2.65-13.64-3.72-17-6.85-34.12-9.44-51.33-.81-5.36-.75-10.85-1.12-16.74,2.9,1.1,4.63,3.16,7.11,3.51,5.33.75,10.66,1.29,15.92-.59,3-1.07,6.07-1.95,9.12-2.88,5.87-1.79,10.61-5.27,14.65-9.78,3.5-3.89,6.52-8.1,8.05-13.43,3.36,1.8,6.01,3.84,7.91,6.57,2.65,3.8,5.41,7.63,7.37,11.8,4.08,8.65,9.11,16.78,13.15,25.48,4.96,10.68,9.01,21.65,12.98,32.68,2.95,8.18,5.38,16.54,8.03,24.83.45,1.42.82,2.86,2.87,2.46,2.13-.41,1.71-1.77,1.5-3.31-1.62-12.25-4.62-24.17-8.53-35.86ZM183.77,213.61c-1.49,2.56-3.36,4.68-6.11,5.95-3.81,1.76-7.76,3.13-11.84,4.12-4.96,1.2-8.98-1.09-13.19-3.53,1.73-2.29,3.34-2.1,5.29-1.24,5.92,2.59,12.67.22,15.91-5.44,1.7-2.97,6.3-4.62,9.2-3.13,1.33.68,1.54,1.89.73,3.28Z"/><path d="M242.86,216.9c5.19,0,10.03-.76,14.57-3.51,2.9-1.75,5.57-3.8,7.81-6.21,2-2.15,3.46-1.8,5.53-.5,1.82,1.14,3.64,2.46,5.99,2.3,1.01-.07,2.1.02,2.74-.98.69-1.08-.04-1.98-.65-2.75-.9-1.12-1.91-2.18-2.95-3.18-5.33-5.11-12.12-7.4-18.98-9.25-6.28-1.69-12.69-2.83-19.34-1.53-3.66.72-6.88,2.29-10.05,3.98-4.08,2.17-8.14,4.47-11.56,7.64-2.31,2.14-2.25,2.56-.23,5,1.3,1.58,2.55,3.22,3.27,5.11,1.08,2.8,3.09,4.87,4.95,7.08,1.72,2.04,4.09,3.27,6.22,4.71,9.06,6.11,18.56,11.39,29.5,13.39,3.74.69,7.51.66,11.26,0,1.33-.24,2.11-1.01,2.01-2.38-.1-1.43-1.21-2.2-2.4-1.94-4.73,1.05-9.2-.26-13.74-1.11-5.27-.99-9.52-4.05-14.11-6.46,4.03.15,7.94-.3,11.8-.8,5.85-.76,10.99-3.44,15.9-6.57,1.33-.85,2.34-2.18,1.35-3.63-1.14-1.68-2.57-.57-3.71.34-1.62,1.28-3.5,2.02-5.36,2.84-7.3,3.22-15,3.04-22.68,2.62-6.02-.33-10.91-3.26-14.96-7.71,1.27.52,2.58.96,3.78,1.54,4.5,2.18,9.24,1.94,14.04,1.94ZM224.73,204.87c.96-1.98,4.52-2.66,6.3-1.28,4.51,3.51,9.6,3.53,14.86,2.76,3.26-.48,5.75-2.17,6.89-5.22.64-1.7,1.38-1.87,2.86-1.47,2.64.71,5.36,1.18,8.01,3.47-5.7,5.99-11.62,10.33-20.18,9.49-4.01-.4-8.08-.11-11.92-1.76-1.6-.69-3.25-1.3-4.54-2.47-1.05-.95-3.26-1.49-2.28-3.52Z"/><path d="M211.45,163.79c-2.46.13-4.89.71-7.05,1.96-2.22,1.28-2.91,2.91-2.21,4.6,1.43,3.5,3.05,4.82,5.71,3.72,3.88-1.6,7.91-1.72,11.94-1.93,5.64-.3,11.21-.24,16.81,1.29,7.26,1.98,14.47,4.13,21.71,6.13,8.82,2.44,17.45,5.29,25.64,9.44,5.2,2.63,10.24,5.44,14.17,9.86.48.54,1.04,1.02,1.62,1.45.61.45,1.37.54,2.07.26.98-.39.98-1.36,1.07-2.2.09-.93-.45-1.67-1.05-2.3-1.2-1.25-2.38-2.55-3.69-3.68-6.08-5.22-13.26-8.79-19.93-13.11-4.77-3.09-9.86-5.56-15.36-7.01-5.17-1.37-10.24-3.1-15.4-4.5-9-2.45-18.06-3.98-27.36-4.01-2.9,0-5.8-.11-8.69.03Z"/><path d="M317.35,256.62c-.75-3.09-1.82-6.08-2.17-9.28-.23-2.15-.31-4.33-.98-6.43-.38-1.2-.72-2.26-2.17-2.26-1.81,0-2.01,1.42-2.13,2.72-.09,1,.04,2.02.12,3.03.49,6.38,2.83,12.39,3.81,18.69.54,3.46.89,6.86.9,10.35.02,7.57-2.76,14.46-5.15,21.43-1.95,5.67-3.31,11.41-3.02,16.9,0,5.21.22,9.87,1.19,14.41,1.24,5.81,1.98,11.69,2.9,17.55.85,5.43,1.83,10.84,2.66,16.27.29,1.86.98,3.06,3.06,2.72,1.82-.3,2.33-1.76,2.22-3.25-.47-6.19-.4-12.46-2.67-18.42-1.45-3.8-2.15-7.77-2.14-11.89.02-9.02,1.02-17.86,3.08-26.68,2.09-8.95,5.08-17.84,3.14-27.36-1.24-6.09-1.15-12.41-2.63-18.48Z"/><path d="M378.85,268c-4.09.15-6.96,2.25-7.56,5.86-.36,2.13-.32,4.33-.45,6.49.08,2.47.18,4.92-.32,7.37-1.04,5.09-2.02,10.19-2.81,15.33-1.68,10.89-4.2,21.56-8.16,31.87-.31.81-.5,1.67-.67,2.52-.25,1.28-.63,2.73.95,3.4,1.62.69,2.94-.16,3.65-1.51,1-1.91,1.95-3.92,2.51-6,2.76-10.19,5.5-20.38,7.89-30.67,1.68-7.23,2.49-14.84,9.26-19.93,2.87-2.16,2.76-5.93,1.99-9.32-.85-3.72-3.06-5.52-6.28-5.4Z"/><path d="M287.41,376.76c-.78-.66-1.72-1.09-2.77-1.14-8.31-.43-16.76-.44-24.16,3.67-6.35,3.52-12.83,4.28-19.67,3.58-6.74-.69-12.93.74-18.81,3.9-2.24,1.21-2.48,3.71-.39,5.12,1.18.79,2.47,1.35,4.07.8,2.19-.74,4.46-1.24,6.7-1.81,3.39-.87,6.85-1.52,10.31-.83,4.95.99,9.72.82,14.53-.83,3.02-1.04,5.94-2.25,8.81-3.63,5.14-2.48,10.55-3.94,16.3-3.85,1.16,0,2.32,0,3.47,0,1.32,0,2.75.07,3.13-1.61.32-1.44-.52-2.51-1.54-3.38Z"/><path d="M132.11,175.35c1.48-.18,2.75-.89,3.97-1.68,3.53-2.29,6.99-4.65,10.37-7.18,10.95-8.21,22.19-15.58,36.25-17.84,9.07-1.46,17.91-.86,26.84.14,7.92.89,15.83,1.94,22.56,2.78,3.72.13,6.09-.46,8.3-1.67.68-.37,1.12-.93.89-1.76-.18-.65-.74-.85-1.34-.89-.58-.04-1.16-.04-1.74-.02-8.46.3-16.75-1.3-25.06-2.46-8.64-1.2-17.26-1.97-25.95-1.01-11.72,1.3-22.5,5.08-32.25,11.9-7.93,5.55-15.08,12.29-24.15,16.14-.93.4-1.23,1.24-1.04,2.15.27,1.23,1.22,1.51,2.34,1.37Z"/><path d="M318.02,166.43c-6.71-8.37-13.66-16.58-21.78-23.65-7.07-6.15-11.59-14-15.34-22.35-1.9-4.23-3.11-8.72-2.84-13.48.06-.97.12-2.22-1.29-2.36-1.66-.16-1.71,1.13-1.85,2.33-.23,1.88-.52,3.75-.11,5.63,2.75,12.64,8.39,23.67,17.86,32.67,9.88,9.4,19.8,18.77,26.15,31.18,1.07,2.09,2.52,4.17,5.09,5.06.67-1.12.78-2.21.32-3.08-2.08-3.98-3.39-8.44-6.2-11.94Z"/><path d="M219.73,188.41c1.32-.58,2.61-1.25,3.91-1.89,3.54-1.76,7.28-3.28,11.23-2.93,7.6.67,15.27.8,22.48,4.24,3.89,1.86,8.08,3.11,11.71,5.57.59.4,1.24.76,1.91,1,.68.24,1.45.32,2.04-.25.72-.7.66-1.55.28-2.4-.75-1.64-2.06-2.71-3.52-3.73-3.66-2.57-8.27-2.75-12.02-4.77-7.12-3.84-14.99-2.78-21.3-4.33-7.49-.05-12.78,3.08-18.19,5.83-.13.07-.24.16-.35.25-.9.71-1.28,1.6-.76,2.67.56,1.14,1.56,1.21,2.59.76Z"/><path d="M155.68,136.09c1.73-.78,3.15-1.99,4.65-3.13,6.53-4.93,13.53-8.87,22.04-8.92,1.87-.17,3.75-.3,5.61-.54.96-.13,2.4-.09,2.46-1.3.09-1.79-1.62-1.03-2.58-1.32-.83-.25-1.74-.3-2.51-.66-3.14-1.46-6.23-.96-9.28.17-7.38,2.73-14.29,6.31-20.33,11.43-.66.56-1.33,1.13-1.89,1.79-.6.71-.8,1.57-.16,2.37.57.71,1.32.41,1.98.11Z"/><path d="M271.66,398.51c-3.44,2.32-7.4,3.35-11.33,4.2-4.16.9-8.38,2.42-12.74.82-1.09-.4-2.06-.24-2.57.86-.61,1.3.03,2.19,1.18,2.84,2.29,1.27,4.78.96,7.22.91,4.73.15,9.11-1.36,13.56-2.67,2.85-.84,4.67-2.78,6.55-4.78.53-.56.92-1.23.44-1.92-.61-.87-1.52-.78-2.3-.25Z"/></svg>