<?xml version="1.0" encoding="UTF-8"?><svg id="Dewds" xmlns="http://www.w3.org/2000/svg" viewBox="0 0 500 500"><defs><style>.cls-1{fill:#fff;}</style></defs><path class="cls-1" d="M124.66,234.23c6,1.52,12.01-.23,17.99-5.68q-9.52-2.82-11.97-6.34c-1.92-2.76-9.82-5.97-12.18-4.61-3.85,2.23-2.11,6.19-2.37,9.46-.48,6.07,5.32,6.36,8.53,7.17Z"/><path class="cls-1" d="M400.39,239.31c1.34-13.87-4.39-25.24-16.81-32.59-13.25-7.85-29.75-2.24-35.46,11.94-.97,2.41-.71,4.83-1.09,7.24-.38,2.4-.39,5.26-3.92,5.12-2.76-.11-4.74-1.74-5.19-4.42-.58-3.42-1.09-6.85.79-10.25,2.68-4.85,4.8-10.02,7.53-14.85,1.73-3.07,1.89-5.15-.24-8.46-6.24-9.72-11.86-19.85-17.49-29.95-8.88-15.91-20.18-29.83-35.63-39.52-8.64-5.42-17.37-10.63-25.41-16.91-5.91-4.62-12.42-8.5-19.66-9.79-13.12-2.34-26.4-4.65-39.83-2.93-16.86,2.16-31.22,9.06-39.1,24.89-4.32,8.67-11.37,14.06-18.38,19.85-12.66,10.45-25.46,20.61-32.85,36.06-3.55,7.42-6.7,14.74-6.92,22.95-.18,7.11,3.93,10.14,10.04,6.91,8.62-4.55,18.18-5.24,27.24-7.86,9.92-2.86,13.14-1.15,17.75,7.95,2.22,4.39,4.23,9,4.71,13.93,1.03,10.49,2.46,20.96,1.78,31.57-.43,6.68-.02,13.35.93,20.01,1.18,8.29,5.61,13.76,13.79,15.27,12.9,2.38,26.07,3.17,38.43-1.84,7.81-3.17,15.21-6.9,23.72-8.32,7.33-1.22,11.1-6.65,11.33-13.29.16-4.58-1.38-7.51-6.37-7.79-2.81-.16-5.69-.07-8.41-.66-3.21-.7-4.59-3.75-4.49-6.43.14-3.71,3.67-2.72,5.79-2.34,11.43,2.04,22.39,5.13,32.53,11.38,7.64,4.71,12.92,10.71,15.95,18.88,2.08,5.6,3.76,11.35,5.66,17.02,1.53,4.57-.05,8.99-.7,13.43-.19,1.3-1.35,2.52-2.99,2.56-1.54.03-2.74-.81-3.26-2.18-.49-1.3-.37-2.84-.9-4.11-3.52-8.34-4.92-17.64-11.51-24.59-7-7.38-12.01-7.69-19.42-1.02-3.89,3.5-7.58,7.69-13.41,7.48-6-.21-11.07,2.47-15.74,5.35-8.01,4.93-16.17,7.63-25.74,7.86-14.75.36-28.14-2.08-39.05-12.81-13.08,12.98-14.67,21.09-7.29,38.43-6.94,1.33-10.11-2.87-13.16-7.86-3.57-5.84-3.16-11.82.37-16.9,4.84-6.97,8.37-14.61,12.68-21.83,1.43-2.4,3.17-5.19,2.09-7.93-2.17-5.51-1.28-11.1-1.46-16.69-.25-7.38-1.89-8.26-7.97-4.42-5.69,3.6-11.5,6.83-18.37,7.35-2.56.2-5.28-.19-5.39-3.52-.11-3.23,2.72-2.57,4.62-2.61,7.5-.17,13.03-4.89,19.09-8.26,2.1-1.17,3.11-3.36,1.33-6.5-10.34,7.37-21.88,7.98-33.45,7.13-6.95-.51-7.81-.82-8.51,5.84-2.04,19.62-3.21,39.4-.16,58.9,2.33,14.95,6.75,29.83,20.23,39.25,12.4,8.66,24.91,17.73,41.6,13.13.33-.09.7-.08,1.05-.05,1.99.14,4.64-.65,5.13,2.24.46,2.71-1.02,4.85-3.64,5.71-2.99.99-6.11,1.55-9.13,2.45-3.24.97-3.79,2.77-1.43,5.35,12.95,14.19,28.14,23.56,47.84,26.04,16.08,2.03,31.98,3.43,48.22,3.03,24.71-.62,48.15-5.48,69.68-17.73,14.7-8.36,25.89-20.64,33.39-35.64,4.71-9.43,9.9-18.53,15.43-28.45-4.52-2.91-8.46-5.18-12.1-7.87-3.66-2.7-4.15-7-1.94-10.3,2.46-3.66,5.88-.96,8.03,1.15,3.75,3.68,7.83,4.04,12.6,2.89,2.7-.65,5.6-1.09,8.34-.83,4.97.48,7.75-2.1,10.4-5.73,8.08-11.03,5.6-22.42-.26-32.76-5.08-8.96-6.85-17.51-5.86-27.75ZM182.18,315.96c-3.56,0-6.46-1.11-6.15-5.31.26-3.53,2.84-4.49,6.04-4.28,1.75.12,3.51.18,6.38.31,8.33-.86,17.76-2.18,27.25-.44,2.18.4,4.07-.83,6-1.67,12.37-5.41,25.39-4.74,38.41-4.11,2.15.1,4.17.52,5.73,2.2,1.58,1.7,1.95,3.7,1.33,5.84-.57,1.98-2.21,2.46-4.08,2.57-4.9.28-9.8.65-14.71.94-2.1.13-4.47-.44-6.28.34-18.2,7.76-37.21,1.11-55.7,3.3-1.4.17-2.8.29-4.21.3ZM189.32,334.19c-1.76-2.21-2.51-4.4.02-6.38,2.8-2.19,4.51.08,6.09,1.95,11.98,14.27,27.02,14.02,43.25,9.59,7.61-2.08,14.74-4.84,21.38-9.58-1.85,8.71-7.98,12.28-15.38,14.06-6.49,1.56-13.03,3.08-19.63,3.93-10.9,1.41-20.84-1.9-30.21-7.31-2.59-1.5-3.78-4.09-5.52-6.27ZM270.07,375.53c-2.09,1.82-4.4,3.65-6.94,4.62-7.52,2.85-15.11,5.66-25.8,6.07-10.38-1.44-23.19-3.24-34.81-9.6-3.81-2.09-4.85-6.64-8.3-9.29-1.92-1.48.2-4.14,2.57-4.12,4.34.03,7.87,2.59,11.6,4.58,17.4,9.33,35.18,13.29,53.79,3.27,1.23-.66,2.48-1.33,3.8-1.77,1.78-.6,3.65-.44,4.6,1.34.85,1.59.89,3.7-.5,4.91ZM191.1,144.94c6.01.06,11.82-.63,17.57-2.36,9.8-2.96,19.14-2.11,28.73,4.77-10.19,2.62-19.8-1.18-29.33.7-9.07,1.78-18.59,2.16-28.1,2.21,3.18-3.58,6.92-5.36,11.13-5.32ZM134.79,173.21c5.22-3.83,9.24-7.02,14.18-6.87,12.61.36,24.87-4.18,37.7-1.8,4.91.91,10.35-1.53,15.58-1.86,18.24-1.16,36.48-1.48,54.47,2.5,4.81,1.06,10.43-1.15,14.51,3.98-45.05-3.91-89.75-1.05-136.44,4.07ZM283.37,239.92c-17.2.59-33.35-3.1-48.03-12.34-3.56-2.24-7.08-4.56-10.39-7.14-2.75-2.15-6.5-4.31-7.44-7.23-2.13-6.65-5.56-12.13-11.35-16.85,7.64-4.5,14.83-6.71,22.81-5.12,8.33,1.66,16.78,2.12,25.19,2.07,9.35-.05,17.92,3.26,26.89,4.8,2.72.47,4.78,2.02,4.48,4.9-.38,3.68-3.44,2.65-5.75,2.52-6.64-.38-12.47,1.56-17.25,6.21-2.09,2.04-4.69,3.05-7.22,4.24-4.77,2.25-8.84,2.28-11.18-3.47-2.48-6.09-7.87-6.3-13.26-6.28-1.73,0-3.72.15-4.3,2.24-.52,1.85.46,3.47,1.8,4.64,4.03,3.52,8.84,5.45,13.87,7.26,13.86,4.98,27.32,5.63,40.56-1.86,2.77-1.57,5.48-4.53,9.65-1.78-6.8,9.76-17.61,10.95-29.72,14.82,11.07,3.83,20.17,3.92,30.08,2.66-2.56,4.4-5.85,5.58-9.41,5.71ZM295.19,175.31c-3.48-4.3-3.57-9.75-5.07-14.72-.33-1.09.61-1.94,1.76-2.14,1.06-.19,2.16-.04,2.69,1.03.62,1.24,1.12,2.55,1.55,3.87,2.02,6.12,5.48,11.19,10.19,15.63,3.02,2.85,5.59,6.26,7.94,9.72,1.91,2.81,3.93,5.98.23,10.57-6.7-8.33-12.96-16.17-19.28-23.97ZM336.55,336.26c-.42,2.14-1.1,4.09-2.31,5.8-14.32,20.26-32.66,23.16-52.96,11.72-1.48-.83-2.8-2.15-3.86-3.5-1.35-1.73-2.01-3.97-.31-5.74,1.74-1.81,3.08.45,4.48,1.13,9.99,4.84,20.11,8.14,31.29,4.03,9.22-3.39,15.27-9.06,16.99-19.31,2.02-12.07.27-23.91-1.99-35.52-1.93-9.89-5.87-19.42-9.32-28.97-3.55-9.82-1.11-18.45,4.59-27.95,1.05,1.85,1.75,2.52,1.63,2.96-4.2,15.36,2.45,28.81,7.44,42.53,6.26,17.22,7.9,34.78,4.34,52.82ZM392.65,271.24c-1.46,2.8-4.26,1.76-6.57,2.06-1.39.18-2.79.23-4.19.34-9.51.37-12.19-1.62-12.62-10.94-.4-8.64-2.29-16.41-7.63-23.49-3.79-5.03-4.32-10.96-.91-16.72,4.12-6.97,11.45-10.01,16.45-6.87,8.59,5.39,10.52,13.74,4.9,21.36-.61.83-1.28,1.68-2.09,2.29-2.17,1.63-5.98,2.62-5.26,5.78.8,3.55,1.92,7.62,5.59,9.68,4.06,2.29,6.95,5.84,10.14,9.04,1.93,1.93,3.82,4.34,2.2,7.45Z"/><path class="cls-1" d="M151.77,224.52c1.54-1.83,3.24-3.67,2.04-6.36-.45-.99-1.45-1.54-2.48-1.24-2.42.7-2.48,3.01-2.97,4.93-.4,1.53-2.04,2.91-.76,4.69,2.09.69,3.11-.77,4.17-2.02Z"/><path d="M416.35,262.5c-4.52-7.01-7.31-14.41-5.35-21.6,0-3.78.06-6.25-.01-8.71-.52-17.84-11.45-32.15-28.54-37.42-6.85-2.11-13.97-1.52-20.9-1.38-6.04.12-9.15-2.31-11.13-7.45-5.84-15.18-15.42-28.24-23.63-42.09-4.03-6.8-8.91-12.83-15.13-17.35-13.87-10.06-28.21-19.47-42.37-29.13-.57-.39-1.29-.55-1.92-.87-13.71-6.93-28.64-9.14-43.61-11.11-14.41-1.9-28.03.66-40.69,7.76-7.98,4.48-16.3,9.31-20.1,17.86-4.36,9.79-11.21,16.8-19.54,22.83-21.73,15.73-38.66,34.52-41.23,62.88-.43,4.72.04,8.99,1.75,13.37,1.37,3.51,3.6,6.84,2.78,11.03-4.35,22.41-4.71,45.12-5.07,67.84-.11,7.03.59,13.86,2.06,20.82,1.93,9.1,6.35,17.07,9.23,25.66,2.57,7.67,7.45,12.77,13.78,16.61,11.43,6.92,21.74,14.92,30.05,25.53,4.1,5.24,8.73,10.15,13.6,14.69,9.28,8.66,19.25,16.69,31.93,19.51,10.58,2.36,20.97,6.66,31.95,6.14,9.5-.44,18.74,3.59,28.22,1.07,4.44-1.18,8.97-1.56,13.51-2.13,18.93-2.37,37.36-6.79,54.75-14.82,6.67-3.08,13.32-6.44,18.69-11.62,15.85-15.33,28.54-32.64,35.37-54.02,3.21-10.04,9.83-17.56,21.14-19.4,2.06-.34,4.17-.75,5.71-2.44,8.11-8.9,13.48-18.84,12.11-31.4-.82-7.49-3.35-14.35-7.42-20.66ZM406.51,299.82c-2.65,3.63-5.43,6.21-10.4,5.73-2.73-.27-5.64.18-8.34.83-4.77,1.15-8.85.79-12.6-2.89-2.15-2.11-5.58-4.81-8.03-1.15-2.21,3.3-1.72,7.6,1.94,10.3,3.64,2.69,7.58,4.96,12.1,7.87-5.53,9.92-10.72,19.02-15.43,28.45-7.5,15-18.69,27.28-33.39,35.64-21.53,12.24-44.97,17.11-69.68,17.73-16.24.4-32.14-1-48.22-3.03-19.7-2.49-34.89-11.86-47.84-26.04-2.36-2.58-1.81-4.39,1.43-5.35,3.02-.9,6.15-1.46,9.13-2.45,2.62-.87,4.1-3.01,3.64-5.71-.49-2.89-3.14-2.1-5.13-2.24-.35-.03-.72-.04-1.05.05-16.69,4.6-29.2-4.46-41.6-13.13-13.48-9.42-17.89-24.29-20.23-39.25-3.04-19.5-1.88-39.28.16-58.9.69-6.66,1.56-6.36,8.51-5.84,11.57.85,23.1.24,33.45-7.13,1.78,3.14.77,5.33-1.33,6.5-6.07,3.38-11.59,8.09-19.09,8.26-1.9.04-4.73-.62-4.62,2.61.11,3.32,2.83,3.71,5.39,3.52,6.87-.53,12.68-3.76,18.37-7.35,6.08-3.84,7.73-2.97,7.97,4.42.19,5.6-.7,11.18,1.46,16.69,1.08,2.74-.66,5.53-2.09,7.93-4.31,7.22-7.84,14.86-12.68,21.83-3.53,5.08-3.94,11.06-.37,16.9,3.04,4.99,6.21,9.19,13.16,7.86-7.38-17.34-5.79-25.45,7.29-38.43,10.91,10.73,24.31,13.17,39.05,12.81,9.56-.23,17.73-2.93,25.74-7.86,4.67-2.88,9.74-5.56,15.74-5.35,5.83.2,9.52-3.98,13.41-7.48,7.41-6.67,12.42-6.36,19.42,1.02,6.59,6.95,7.99,16.25,11.51,24.59.54,1.27.41,2.81.9,4.11.52,1.37,1.72,2.22,3.26,2.18,1.64-.04,2.8-1.26,2.99-2.56.65-4.44,2.23-8.86.7-13.43-1.9-5.67-3.58-11.41-5.66-17.02-3.03-8.17-8.31-14.18-15.95-18.88-10.14-6.25-21.1-9.34-32.53-11.38-2.12-.38-5.65-1.37-5.79,2.34-.1,2.68,1.28,5.74,4.49,6.43,2.72.59,5.6.51,8.41.66,4.99.28,6.53,3.21,6.37,7.79-.23,6.64-4,12.06-11.33,13.29-8.51,1.42-15.91,5.15-23.72,8.32-12.36,5.01-25.53,4.22-38.43,1.84-8.18-1.51-12.61-6.98-13.79-15.27-.95-6.66-1.36-13.33-.93-20.01.68-10.61-.75-21.08-1.78-31.57-.48-4.93-2.48-9.54-4.71-13.93-4.61-9.1-7.83-10.81-17.75-7.95-9.07,2.61-18.62,3.31-27.24,7.86-6.12,3.23-10.23.2-10.04-6.91.21-8.21,3.37-15.52,6.92-22.95,7.39-15.45,20.19-25.61,32.85-36.06,7.01-5.79,14.06-11.18,18.38-19.85,7.88-15.82,22.24-22.73,39.1-24.89,13.43-1.72,26.71.59,39.83,2.93,7.24,1.29,13.75,5.18,19.66,9.79,8.04,6.28,16.77,11.49,25.41,16.91,15.45,9.7,26.75,23.61,35.63,39.52,5.64,10.1,11.25,20.23,17.49,29.95,2.13,3.31,1.97,5.39.24,8.46-2.73,4.82-4.84,9.99-7.53,14.85-1.88,3.4-1.37,6.83-.79,10.25.45,2.67,2.43,4.31,5.19,4.42,3.53.14,3.54-2.72,3.92-5.12.38-2.41.12-4.83,1.09-7.24,5.7-14.18,22.2-19.79,35.46-11.94,12.42,7.36,18.15,18.72,16.81,32.59-.99,10.25.78,18.79,5.86,27.75,5.86,10.35,8.34,21.73.26,32.76ZM118.5,217.61c2.36-1.36,10.26,1.85,12.18,4.61q2.46,3.52,11.97,6.34c-5.99,5.45-11.99,7.2-17.99,5.68-3.2-.81-9.01-1.1-8.53-7.17.26-3.26-1.48-7.23,2.37-9.46ZM148.36,221.85c.5-1.91.55-4.23,2.97-4.93,1.02-.29,2.03.25,2.48,1.24,1.2,2.68-.49,4.53-2.04,6.36-1.06,1.25-2.08,2.71-4.17,2.02-1.28-1.79.36-3.16.76-4.69Z"/><path d="M262.7,231.55c12.11-3.87,22.92-5.06,29.72-14.82-4.17-2.75-6.88.21-9.65,1.78-13.24,7.49-26.69,6.83-40.56,1.86-5.03-1.81-9.84-3.74-13.87-7.26-1.34-1.17-2.31-2.8-1.8-4.64.58-2.09,2.57-2.23,4.3-2.24,5.39-.02,10.77.19,13.26,6.28,2.34,5.75,6.41,5.72,11.18,3.47,2.53-1.19,5.13-2.2,7.22-4.24,4.78-4.65,10.6-6.58,17.25-6.21,2.32.13,5.37,1.16,5.75-2.52.3-2.88-1.75-4.44-4.48-4.9-8.97-1.53-17.54-4.85-26.89-4.8-8.4.05-16.86-.41-25.19-2.07-7.98-1.59-15.17.63-22.81,5.12,5.78,4.72,9.21,10.21,11.35,16.85.93,2.92,4.69,5.08,7.44,7.23,3.3,2.58,6.83,4.9,10.39,7.14,14.68,9.24,30.84,12.93,48.03,12.34,3.56-.12,6.85-1.31,9.41-5.71-9.91,1.26-19,1.16-30.08-2.66Z"/><path d="M324.77,240.91c.12-.44-.58-1.11-1.63-2.96-5.69,9.49-8.14,18.12-4.59,27.95,3.45,9.55,7.39,19.08,9.32,28.97,2.26,11.61,4.02,23.45,1.99,35.52-1.72,10.25-7.77,15.92-16.99,19.31-11.19,4.11-21.3.81-31.29-4.03-1.4-.68-2.74-2.94-4.48-1.13-1.7,1.76-1.04,4,.31,5.74,1.06,1.35,2.38,2.67,3.86,3.5,20.3,11.44,38.64,8.54,52.96-11.72,1.21-1.71,1.89-3.66,2.31-5.8,3.56-18.03,1.92-35.6-4.34-52.82-4.99-13.72-11.64-27.17-7.44-42.53Z"/><path d="M380.32,254.75c-3.67-2.07-4.79-6.13-5.59-9.68-.71-3.16,3.09-4.15,5.26-5.78.81-.61,1.48-1.46,2.09-2.29,5.62-7.63,3.69-15.98-4.9-21.36-5-3.13-12.33-.09-16.45,6.87-3.41,5.76-2.88,11.69.91,16.72,5.34,7.08,7.23,14.85,7.63,23.49.43,9.31,3.11,11.3,12.62,10.94,1.4-.11,2.8-.16,4.19-.34,2.31-.3,5.11.74,6.57-2.06,1.62-3.11-.27-5.52-2.2-7.45-3.19-3.19-6.08-6.75-10.14-9.04Z"/><path d="M242.08,312.37c1.81-.77,4.18-.21,6.28-.34,4.9-.3,9.8-.66,14.71-.94,1.87-.11,3.5-.6,4.08-2.57.62-2.14.25-4.14-1.33-5.84-1.56-1.68-3.57-2.09-5.73-2.2-13.02-.63-26.04-1.3-38.41,4.11-1.93.84-3.81,2.07-6,1.67-9.48-1.74-18.91-.42-27.25.44-2.87-.14-4.62-.2-6.38-.31-3.19-.21-5.78.75-6.04,4.28-.3,4.21,2.59,5.32,6.15,5.31,1.4,0,2.81-.13,4.21-.3,18.49-2.19,37.49,4.46,55.7-3.3Z"/><path d="M265.97,369.28c-1.32.44-2.57,1.11-3.8,1.77-18.61,10.02-36.39,6.06-53.79-3.27-3.72-2-7.26-4.55-11.6-4.58-2.37-.02-4.49,2.65-2.57,4.12,3.45,2.66,4.49,7.21,8.3,9.29,11.62,6.37,24.43,8.16,34.81,9.6,10.69-.41,18.28-3.22,25.8-6.07,2.54-.96,4.86-2.8,6.94-4.62,1.39-1.21,1.35-3.32.5-4.91-.95-1.78-2.82-1.94-4.6-1.34Z"/><path d="M271.23,169.15c-4.07-5.13-9.7-2.91-14.51-3.98-17.99-3.98-36.23-3.66-54.47-2.5-5.23.33-10.68,2.77-15.58,1.86-12.83-2.38-25.09,2.16-37.7,1.8-4.94-.14-8.96,3.05-14.18,6.87,46.69-5.11,91.39-7.97,136.44-4.07Z"/><path d="M225.04,347.77c6.61-.86,13.15-2.37,19.63-3.93,7.39-1.78,13.52-5.35,15.38-14.06-6.63,4.74-13.77,7.5-21.38,9.58-16.23,4.43-31.27,4.68-43.25-9.59-1.58-1.88-3.3-4.14-6.09-1.95-2.53,1.98-1.79,4.17-.02,6.38,1.74,2.18,2.93,4.77,5.52,6.27,9.37,5.41,19.31,8.72,30.21,7.31Z"/><path d="M237.4,147.35c-9.59-6.88-18.93-7.73-28.73-4.77-5.75,1.74-11.57,2.42-17.57,2.36-4.21-.04-7.96,1.74-11.13,5.32,9.51-.05,19.03-.43,28.1-2.21,9.54-1.88,19.14,1.92,29.33-.7Z"/><path d="M314.25,188.71c-2.34-3.45-4.91-6.87-7.94-9.72-4.71-4.44-8.17-9.52-10.19-15.63-.44-1.32-.93-2.63-1.55-3.87-.53-1.07-1.63-1.22-2.69-1.03-1.15.2-2.09,1.05-1.76,2.14,1.5,4.97,1.59,10.42,5.07,14.72,6.32,7.8,12.59,15.64,19.28,23.97,3.71-4.59,1.68-7.76-.23-10.57Z"/></svg>