<?xml version="1.0" encoding="UTF-8"?><svg id="Dewds" xmlns="http://www.w3.org/2000/svg" viewBox="0 0 500 500"><defs><style>.cls-1{fill:#fff;}</style></defs><path class="cls-1" d="M124.62,150.55c12.72-7.78,27.24-12.21,40.26-22.92-15.41,1.21-31.77,10.58-40.26,22.92Z"/><path class="cls-1" d="M163.7,309.91c6.06-6.76,13.22-13.09,14.07-24.4-5.04,3.62-8.95,6.79-13.2,9.39-7.74,4.73-19.43,3.93-25.26-1.5-.76-.71-1.57-1.97-1.48-2.89.2-1.88,2.05-2.32,3.56-2.26,1.5.05,3.05.57,4.46,1.17,7.88,3.33,13.35-.08,19.63-7.62-9.29,1.19-17.32,3.83-24.08-1.41-5.92-4.59-13.07-8.7-11.65-18.63,5.01.97,8.13,3.85,10.93,7.01,3.38,3.81,7.54,5.82,12.47,5.21,14.36-1.76,26.05-7.83,32.85-21.37,2.01-4,2.46-7.52-2.21-9.86-4.39-2.2-6.61-.56-9.07,3.72-5.53,9.61-11.58,9.68-15.52-.1-2.27-5.65-4.81-5.71-9.48-4.73-9.8,2.05-17.75,7.84-26.47,12.14-9.45,4.67-8.16,5.73-4.94,13.3,6.7,15.76,15.88,30.52,18.4,47.57,9.57-1.2,19.65,3.46,26.98-4.72Z"/><path class="cls-1" d="M271.1,274.27c-4.81-2.6-9.9-4.65-14.45-7.79-1.69-1.17-3.71-3.34-6.13-.89,6.92,15.23,25.83,23.28,41.01,17.18,4.79-1.92,9.26-4.62,13.86-7.02-2.36.39-4.75.69-7.04,1.35-9.49,2.73-18.46,1.92-27.24-2.83Z"/><path class="cls-1" d="M129.7,238.77c-5.42-1.89-10.1-.99-14.01,2.4-1.37,1.19-3.23,2.5-1.58,4.66,1.19,1.55,2.77.78,4.06.01,3.87-2.3,7.69-4.71,11.52-7.07Z"/><path class="cls-1" d="M159.49,218.84c5.7-1.27,11.62-2.08,17.44-2.12,18.25-.1,30.17,13.07,28.47,30.92-2.44,25.62-6.17,51.12-5.49,76.99.35,13.19,3.55,16.45,17.07,15.02,5.9-.62,11.44-2.2,16.98-4.21,10.94-3.97,20.85-10.75,32.74-12.08,9.18-1.02,10.6-8.32,13.81-15.14,2.96-6.31.88-9.26-4.18-10.51-17.85-4.42-29.11-17.39-41.07-29.84-6.13-6.38,2.09-13.16-1.82-19.34-.92-1.45-.35-4.1,1.36-5.34,1.87-1.36,4.18-2.1,6.23-3.23,3.63-1.99,8.08-2.56,11.66-6.09-6.25-2.81-11.18.1-16.26,1.21-4.95,1.08-10.09.52-12.31-4.14-1.98-4.17,2.6-6.8,5.25-9.53,2.23-2.3,4.97-4.05,8.11-4.46,7.34-.96,14.56-2.53,22.13-2.14,17.13.88,33.94,5.96,51.31,3.83,5.33-.65,9.71,2.29,14.21,4.75,3.33,1.81,6.27,3.46,4.49,7.92-1.7,4.27-4.67,3.98-8.64,3.06-6.91-1.6-13.8-4.09-21.13-3.52-.21,3.51,2.38,4.52,3.69,6.34,2.54,3.55,7.22,2.65,10.45,4.82,3.26,2.19,7.28,4.4,4.92,9.13-2.06,4.13-5.65,2.36-9.22,1.48-6.64-1.64-11.17-6.77-17.3-9.97-1.8,3.98-3,7.76-5.06,10.98-3.36,5.24-7.37,4.57-10.95-.6-2.62-3.78.38-8.65-3.66-12.64-6.59,3.96-15.77,1.43-22.72,8.46,9.66,11.26,22.8,14.54,34.78,19.7,1.56.67,3.82-.37,5.76-.48,9.17-.49,17.44-3.72,25.37-8.13,2.48-1.38,5.59-2.16,7.45.59,2.45,3.61-.62,5.76-3.18,7.54-1.89,1.32-4.09,2.21-6.19,3.23-2.59,1.25-6.43.27-7.56,4.11,4.91,1.01,8.82-1.84,13.09-3.41,3.02-1.11,5.64.15,6.61,3.07.91,2.74-1.34,4.18-3.63,5.11-4.71,1.93-9.46,3.77-14.16,5.72-4.82,1.99-9.94,3.43-14.25,6.8,10.77,7.75,20.07,15.89,26.12,27.14,1.3,2.42,3.04,5.05-.4,7.05-3.47,2.02-4.65-1.03-6.35-3.14-8.53-10.57-12.07-13.57-19.98-16.94,2.72,6.37,6.78,11.3,11.19,15.29,12.07,10.91,15.04,25.75,18.93,40.27.52,1.94-.5,3.94-2.33,4.98-2.3,1.31-4.87.88-6.45-.96-2-2.33-3.64-5.09-4.94-7.9-3.94-8.53-7.53-17.22-11.48-25.74-1.91-4.11-3.27-8.76-8.12-11.34-4.99,7.8-12.97,10.04-21.08,11.61-8.92,1.73-17.1,5.2-25.43,8.7-18.44,7.75-37.28,15.45-54.66-2.95-4.75,9.37-8.18,17.98-8.05,27.72.03,2.38-1.29,4.63-4.25,4.54-2.39-.07-2.93-2.28-3.77-3.98-1.1-2.22-.7-4.58-.43-6.92.91-7.87,2.66-15.57,7.21-22.13,11.95-17.25,12.08-36.46,10.21-58.35-3.04,8.92-5.21,15.9-8.82,22.24-4.13,7.25-9.11,13.78-16.91,17.39-7.78,3.61-15.77,6.22-24.15,1.28-.29,1.79-.67,2.59-.5,3.26,8.38,34.3,25.59,63.6,50.5,88.45,4.15,4.14,8.97,7.6,14.7,9.45,20.8,6.71,41.65,10.35,63.21,2.87,9.59-3.33,19.23-6.45,28.73-10.1,18.79-7.23,29.9-21.93,39.79-38.12,2.49-4.08,2.22-8.14-1.06-11.92-1.26-1.45-2.4-3.16-3.03-4.95-.84-2.38-3.67-5.05-.8-7.42,2.98-2.46,6.61-1.98,9.71.21,1.57,1.11,2.74,2.79,4.17,4.12,10.35,9.63,19.74,7.78,26.07-4.9,3.81-7.64,2.5-15.36.57-22.95-2.5-9.84-1.16-18.56,5.48-26.4,3.84-4.54,6.68-9.66,7.84-15.58,1.51-7.7-3.06-20.02-8.51-23.03-6.01-3.32-16.18-1.34-22.77,4.85-2.83,2.65-5.28,5.8-7.48,9.01-2.87,4.18-5.3,8.67-7.99,12.99-1.26,2.03-2.83,4.14-5.56,3.14-2.35-.86-3.42-3.25-3.77-5.58-.7-4.6,1.86-8.35,4.02-12,4.68-7.94,9.7-15.67,14.54-23.43-2.59-2.2-4.92-3.74-6.66-5.77-2.26-2.64-2.17-5.76-.37-8.74,1.66-2.76,4.48-2.87,7.22-2.94,2.89-.07,5.22,1.58,7.59,2.89,4.78,2.64,9.43,5.51,14.23,8.12,1.85,1.01,4.01.77,5.29-.96,1-1.35.09-2.95-.71-4.34-1.61-2.8-3.78-4.91-6.8-6.22-2.87-1.25-5.78-2.49-8.45-4.1-8.44-5.08-9.92-12.22-3.87-19.92,1.63-2.08,1.61-3.85,1.84-6.22.75-7.72,4.26-9.98,11.89-8.35,3.44.73,6.79,1.89,10.22,2.66,6.54,1.47,8.13.1,8.81-6.47.48-4.72-1.87-6.61-5.75-8.85-7.8-4.49-7.46-10.45.23-14.96,1.59-.93,3.96-.39,4.95-2.55-4.7-17.41-12.65-25.85-28.91-32.6-17.51-7.27-35.68-11.08-54.46-12.8-6.39-.58-11.42-.43-17.13,4.3-7.11,5.9-15.5,10.44-22.58,16.62-2.9,2.54-6.29,4.02-9.42,1.12-3.44-3.19-2.49-7.32-.04-10.66,2.3-3.13,5.36-5.69,7.95-8.62,1.66-1.88,4.86-3.15,3.08-6.82-5.3-1.15-12.99-3.63-15.68-.4-5.4,6.49-13.67,7.69-18.97,13.07-13.08,13.3-29.72,21.31-44.78,31.65-2.8,1.92-5.83,3.25-8.4.41-2.34-2.59.09-5.46,1.53-7.38,5.36-7.14,11.25-13.71,19.22-18.33,8.81-5.1,8.61-5.45,12.58-11.89-10.38,1.23-19.79,5.07-28.53,10.3-21.13,12.65-41.73,26.23-63.23,38.19-8.14,4.53-10.63,10.43-11.45,18.47-1.25,12.22,1.68,24.06,2.63,36.54,16.53-2.22,32.55-4.64,48.41-8.16ZM274.23,396.48c-4.7,4.76-10.55,6.18-17.05,5.67-4.44-.28-10.77,1.18-11.25-5.02-.49-6.33,5.83-6.11,10.36-6.33,4.73-.23,9.09-1.72,13.58-2.9,2.34-.62,4.71-.4,5.89,2.25,1.08,2.44.23,4.56-1.52,6.33ZM291.95,373.91c-.31,2.59-1.1,4.51-4.23,4.32-11.81-.71-23.11,2.47-34.6,3.98-9.88,1.3-19.68,1.99-29.23,5.17-2.42.8-4.79-.33-5.43-3.1-.58-2.53.36-4.65,2.99-5.57,8.79-3.08,17.1-8.15,27.33-6.48,11.69-1.38,23.67-2.89,35.67-4.14,4.06-.43,8.23-.32,7.5,5.82ZM352.1,298.45c1.35-4.78,4.45-8.34,9.54-9.18,3.44-.57,7.22-.5,9.23,3.22,1.93,3.58,1.01,7.83-1.93,9.48-11.93,6.69-11.06,17.21-9.84,28.27.78,7.03-1.54,11.35-5.39,10.98-5.92-.58-5.24-5.61-6.29-9.63-.85-3.24.64-6.13.53-10.56-1.02-7.03,1.95-14.75,4.15-22.57ZM192.95,174.32c6.72-3.14,13.38-6.29,21.02-6.84,11.7-.85,23.36,1.58,35.08.13,2.9-.36,5.47,1.09,5.61,4.57.14,3.44-2.08,4.93-5.18,4.98-6.64.11-13.28.03-19.28.03-11.26-1.89-21.67-1.44-31.7,2.87-1.06.45-2.21.87-3.35.93-1.96.11-4.07-.02-4.87-2.28-.84-2.38.86-3.55,2.67-4.4ZM145.29,201.67c3.38-1.42,6.91-1.05,10.37-1.55,3.86-.55,7.87-.82,11.5-2.1,29.67-10.48,60.44-3.12,90.6-5.71,8.1-.69,16.2-.84,24.46.59,7.97,1.39,16.4.95,24.18-2.54,1.07-.48,2.1-1.15,3.22-1.39,2.81-.62,5.79-.6,7.09,2.43,1.67,3.89-2.07,4.57-4.3,5.48-8.39,3.45-17.28,4.71-27.71,5.54-9.25-3.77-20.31-2.55-31.1-1.82-17.18,1.17-34.13.72-51.18-1.62-4.71-.65-10.02.92-14.7,2.51-13.03,4.43-26.94,4.32-40.06,8.23-2.5.75-5.83,1.21-6.82-2.37-.95-3.45,1.77-4.56,4.46-5.69Z"/><path class="cls-1" d="M372.91,214.45c-.67-.11-1.43.34-2.15.55.22.72.23,1.69.71,2.11,2.55,2.21,5,5.14,8.91,3.14.61-.31,1-2.23.66-3.06-1.59-3.85-5.27-2.25-8.13-2.75Z"/><path d="M94.88,186.37c.69,5.55,2.1,10.55,1.78,15.44-.92,14.18,1.47,28.12,2.17,42.18.43,8.6,1.88,16.98,5.32,25.09,10.71,25.21,20.34,50.81,26.5,77.61,1.04,4.52,3.49,8.71,4.99,13.15,5.98,17.72,17.57,32.04,27.67,47.4,16.59,25.2,40.68,35.23,69.18,38.12,14.67,1.49,29.06-1,42.96-4.7,17.43-4.64,34.23-11.8,47.52-24.51,9.56-9.14,17.18-20.07,23.78-31.65,2.19-3.84,3.57-9.24,9.92-8.26,10.33,1.59,17.18-4.29,22.95-11.38,8.41-10.33,10.54-22.65,7.82-35.36-1.92-9-.99-16.25,4.47-24.15,11.37-16.44,12.83-36.51-2.55-52.76-1.65-1.75-3.54-3.34-1.32-5.88,2.12-2.43,4.23-.94,6.29.09,4.87,2.43,9.44,5.64,15.3,5.4,2.84-.12,5.39-.15,6.66-3.45,1.1-2.86.82-5.33-.96-7.71-2.41-3.24-5.81-5.2-9.28-7.04-3.46-1.83-7-3.51-10.48-5.31-1.93-1-3.1-2.52-2.08-4.73,1.37-2.95,3.54-2.45,5.76-1.01,4.65,3.01,9.8,4.73,15.06,6.37,4.37,1.36,8.45,2.8,11.03-2.49,2.44-5,.55-9.48-5.2-12.25-4.93-2.37-10.15-4.16-14.94-6.75-6.03-3.26-6.89-6.8-4.23-13.6,2.49-6.38,6.81-3.09,10.71-2.09,1.52.39,3.02.84,4.55,1.16,3.85.81,7.02.05,8.62-4.01,1.67-4.24.73-7.87-3.22-10.11-3.03-1.72-6.35-3.42-9.73-3.94-6.9-1.06-9.27-4.34-10.4-11.47-3.45-21.67-15.74-37.13-36.33-45.41-15.27-6.14-30.72-11.5-47.34-13.04-11.21-1.04-22.46-5.73-33.14-5.79-18.28-.11-35.74-3.86-53.36-6.83-24.78-4.18-49.81-5.01-74.72-7.33-5.79-.54-11.79-.53-17.24,2.4-2.61,1.41-4.13,3.37-4,6.56.13,3.3,2.14,4.74,4.83,5.91,3.01,1.31,6.15,1.19,9.25,1.03,14.04-.74,27.64,3.72,41.75,3.35-5.59,1.96-11.2,3.28-16.87,4.27-13.01,2.26-25.99,3.63-37.67,11.33-15.69,10.35-29.86,21.54-35.77,40.27-1.16,3.67-3.21,6.01-6.56,7.73-9.04,4.66-17.92,9.64-26.99,14.24-3.54,1.8-6.68,3.88-9.46,6.75-1.69,1.74-3.63,2.88-2.17,5.75,1.28,2.52,3.43,3.24,5.86,2.86,6.48-1.01,13.18-.85,19.04-4.85,4.05-2.77,8.34-5.52,14.28-6.6ZM114.12,245.83c-1.65-2.16.21-3.47,1.58-4.66,3.91-3.4,8.59-4.29,14.01-2.4-3.84,2.37-7.65,4.77-11.52,7.07-1.29.77-2.87,1.54-4.06-.01ZM118.31,267.06c-3.22-7.57-4.52-8.63,4.94-13.3,8.72-4.3,16.67-10.1,26.47-12.14,4.68-.98,7.21-.92,9.48,4.73,3.94,9.78,9.99,9.7,15.52.1,2.47-4.29,4.69-5.93,9.07-3.72,4.67,2.35,4.22,5.87,2.21,9.86-6.8,13.54-18.49,19.61-32.85,21.37-4.93.61-9.09-1.4-12.47-5.21-2.8-3.15-5.92-6.04-10.93-7.01-1.42,9.93,5.73,14.04,11.65,18.63,6.76,5.24,14.79,2.6,24.08,1.41-6.28,7.55-11.75,10.96-19.63,7.62-1.41-.6-2.96-1.11-4.46-1.17-1.52-.05-3.37.38-3.56,2.26-.1.92.71,2.18,1.48,2.89,5.83,5.43,17.52,6.24,25.26,1.5,4.25-2.6,8.15-5.77,13.2-9.39-.84,11.31-8,17.65-14.07,24.4-7.34,8.18-17.42,3.53-26.98,4.72-2.51-17.06-11.69-31.81-18.4-47.57ZM164.88,127.63c-13.03,10.71-27.54,15.14-40.26,22.92,8.49-12.33,24.85-21.7,40.26-22.92ZM108.45,190.47c.83-8.04,3.31-13.95,11.45-18.47,21.5-11.96,42.1-25.54,63.23-38.19,8.74-5.23,18.14-9.07,28.53-10.3-3.97,6.45-3.77,6.79-12.58,11.89-7.97,4.62-13.87,11.19-19.22,18.33-1.44,1.92-3.87,4.79-1.53,7.38,2.57,2.84,5.6,1.52,8.4-.41,15.06-10.35,31.7-18.36,44.78-31.65,5.3-5.39,13.57-6.58,18.97-13.07,2.69-3.23,10.38-.75,15.68.4,1.78,3.67-1.42,4.95-3.08,6.82-2.59,2.93-5.65,5.49-7.95,8.62-2.45,3.34-3.4,7.47.04,10.66,3.13,2.9,6.52,1.41,9.42-1.12,7.08-6.19,15.47-10.72,22.58-16.62,5.71-4.74,10.74-4.89,17.13-4.3,18.78,1.72,36.95,5.53,54.46,12.8,16.26,6.75,24.21,15.19,28.91,32.6-.99,2.16-3.36,1.62-4.95,2.55-7.69,4.51-8.04,10.47-.23,14.96,3.88,2.23,6.23,4.13,5.75,8.85-.67,6.58-2.27,7.94-8.81,6.47-3.43-.77-6.78-1.92-10.22-2.66-7.63-1.63-11.14.63-11.89,8.35-.23,2.37-.21,4.14-1.84,6.22-6.05,7.71-4.57,14.84,3.87,19.92,2.67,1.61,5.58,2.85,8.45,4.1,3.01,1.31,5.18,3.42,6.8,6.22.8,1.39,1.71,2.99.71,4.34-1.28,1.73-3.44,1.97-5.29.96-4.8-2.61-9.45-5.48-14.23-8.12-2.38-1.31-4.7-2.96-7.59-2.89-2.75.07-5.56.18-7.22,2.94-1.8,2.98-1.89,6.1.37,8.74,1.74,2.03,4.07,3.57,6.66,5.77-4.85,7.76-9.87,15.5-14.54,23.43-2.15,3.65-4.72,7.4-4.02,12,.35,2.33,1.42,4.72,3.77,5.58,2.73,1,4.3-1.11,5.56-3.14,2.68-4.32,5.11-8.8,7.99-12.99,2.2-3.21,4.65-6.35,7.48-9.01,6.59-6.18,16.76-8.17,22.77-4.85,5.45,3.01,10.01,15.32,8.51,23.03-1.16,5.92-4,11.04-7.84,15.58-6.64,7.84-7.99,16.56-5.48,26.4,1.93,7.59,3.24,15.31-.57,22.95-6.33,12.69-15.72,14.54-26.07,4.9-1.43-1.33-2.59-3.01-4.17-4.12-3.11-2.19-6.73-2.67-9.71-.21-2.88,2.37-.04,5.05.8,7.42.63,1.79,1.77,3.5,3.03,4.95,3.28,3.78,3.55,7.84,1.06,11.92-9.89,16.19-21,30.88-39.79,38.12-9.5,3.66-19.14,6.78-28.73,10.1-21.55,7.48-42.4,3.85-63.21-2.87-5.73-1.85-10.55-5.31-14.7-9.45-24.9-24.85-42.12-54.14-50.5-88.45-.16-.67.21-1.47.5-3.26,8.38,4.94,16.37,2.32,24.15-1.28,7.8-3.61,12.78-10.14,16.91-17.39,3.61-6.35,5.78-13.33,8.82-22.24,1.87,21.89,1.74,41.1-10.21,58.35-4.54,6.56-6.3,14.26-7.21,22.13-.27,2.34-.67,4.7.43,6.92.84,1.69,1.38,3.9,3.77,3.98,2.96.09,4.29-2.16,4.25-4.54-.14-9.73,3.3-18.35,8.05-27.72,17.38,18.4,36.22,10.7,54.66,2.95,8.33-3.5,16.5-6.97,25.43-8.7,8.12-1.57,16.09-3.81,21.08-11.61,4.86,2.58,6.22,7.23,8.12,11.34,3.95,8.52,7.54,17.21,11.48,25.74,1.3,2.81,2.93,5.56,4.94,7.9,1.58,1.84,4.15,2.27,6.45.96,1.84-1.05,2.85-3.04,2.33-4.98-3.89-14.53-6.85-29.36-18.93-40.27-4.42-3.99-8.47-8.92-11.19-15.29,7.91,3.36,11.45,6.37,19.98,16.94,1.7,2.11,2.88,5.16,6.35,3.14,3.44-2,1.7-4.63.4-7.05-6.06-11.25-15.36-19.39-26.12-27.14,4.31-3.37,9.43-4.81,14.25-6.8,4.7-1.94,9.45-3.79,14.16-5.72,2.28-.93,4.54-2.37,3.63-5.11-.97-2.92-3.59-4.18-6.61-3.07-4.27,1.57-8.18,4.42-13.09,3.41-.02.06-.04.11-.06.17-.33.06-.65.11-.98.16-4.59,2.4-9.07,5.1-13.86,7.02-15.17,6.1-34.08-1.95-41.01-17.18,2.42-2.46,4.43-.28,6.13.89,4.55,3.14,9.64,5.19,14.45,7.79,8.78,4.76,17.75,5.56,27.24,2.83,2.29-.66,4.68-.95,7.04-1.35.25-.13.5-.26.75-.39.1.02.19.03.29.05,1.13-3.84,4.97-2.86,7.56-4.11,2.1-1.01,4.29-1.91,6.19-3.23,2.56-1.78,5.63-3.93,3.18-7.54-1.86-2.75-4.97-1.97-7.45-.59-7.93,4.41-16.19,7.64-25.37,8.13-1.94.1-4.2,1.15-5.76.48-11.98-5.16-25.12-8.43-34.78-19.7,6.95-7.03,16.13-4.5,22.72-8.46,4.04,3.99,1.04,8.86,3.66,12.64,3.58,5.16,7.59,5.84,10.95.6,2.06-3.22,3.26-6.99,5.06-10.98,6.13,3.2,10.66,8.33,17.3,9.97,3.57.88,7.17,2.65,9.22-1.48,2.35-4.74-1.67-6.94-4.92-9.13-3.23-2.17-7.91-1.27-10.45-4.82-1.31-1.82-3.9-2.83-3.69-6.34,7.33-.57,14.22,1.92,21.13,3.52,3.97.92,6.94,1.21,8.64-3.06,1.78-4.46-1.16-6.1-4.49-7.92-4.5-2.45-8.89-5.4-14.21-4.75-17.37,2.13-34.17-2.95-51.31-3.83-7.58-.39-14.79,1.17-22.13,2.14-3.14.41-5.88,2.16-8.11,4.46-2.65,2.73-7.23,5.36-5.25,9.53,2.22,4.66,7.36,5.22,12.31,4.14,5.08-1.11,10.01-4.02,16.26-1.21-3.59,3.53-8.03,4.09-11.66,6.09-2.05,1.13-4.36,1.87-6.23,3.23-1.71,1.24-2.27,3.89-1.36,5.34,3.91,6.19-4.3,12.96,1.82,19.34,11.95,12.45,23.21,25.42,41.07,29.84,5.06,1.25,7.15,4.2,4.18,10.51-3.2,6.82-4.63,14.12-13.81,15.14-11.89,1.33-21.8,8.11-32.74,12.08-5.54,2.01-11.08,3.58-16.98,4.21-13.52,1.43-16.72-1.84-17.07-15.02-.68-25.88,3.05-51.38,5.49-76.99,1.7-17.86-10.22-31.03-28.47-30.92-5.82.03-11.74.85-17.44,2.12-15.86,3.53-31.88,5.95-48.41,8.16-.95-12.47-3.89-24.32-2.63-36.54ZM380.38,220.26c-3.91,2-6.36-.93-8.91-3.14-.48-.42-.49-1.4-.71-2.11.72-.21,1.48-.67,2.15-.55,2.86.49,6.54-1.1,8.13,2.75.34.83-.04,2.75-.66,3.06Z"/><path d="M305.39,275.75c.33-.05.65-.1.98-.16.02-.06.04-.11.06-.17-.1-.02-.19-.03-.29-.05-.25.13-.5.26-.75.39Z"/><path d="M147.65,209.73c13.12-3.91,27.03-3.8,40.06-8.23,4.68-1.59,9.98-3.15,14.7-2.51,17.05,2.34,34,2.79,51.18,1.62,10.78-.73,21.85-1.94,31.1,1.82,10.43-.83,19.32-2.09,27.71-5.54,2.23-.92,5.97-1.6,4.3-5.48-1.3-3.02-4.27-3.05-7.09-2.43-1.12.25-2.15.92-3.22,1.39-7.78,3.49-16.21,3.93-24.18,2.54-8.27-1.44-16.36-1.29-24.46-.59-30.15,2.58-60.92-4.78-90.6,5.71-3.63,1.28-7.64,1.55-11.5,2.1-3.46.5-6.99.13-10.37,1.55-2.69,1.13-5.41,2.24-4.46,5.69.99,3.58,4.32,3.12,6.82,2.37Z"/><path d="M284.45,368.09c-12,1.26-23.98,2.77-35.67,4.14-10.23-1.66-18.54,3.4-27.33,6.48-2.63.92-3.57,3.04-2.99,5.57.64,2.77,3.01,3.9,5.43,3.1,9.55-3.18,19.35-3.87,29.23-5.17,11.49-1.51,22.79-4.69,34.6-3.98,3.13.19,3.92-1.73,4.23-4.32.73-6.14-3.44-6.25-7.5-5.82Z"/><path d="M347.43,331.59c1.06,4.01.37,9.05,6.29,9.63,3.85.38,6.16-3.95,5.39-10.98-1.22-11.06-2.09-21.59,9.84-28.27,2.94-1.64,3.86-5.9,1.93-9.48-2.01-3.72-5.78-3.79-9.23-3.22-5.09.84-8.19,4.41-9.54,9.18-2.21,7.82-5.17,15.54-4.15,22.57.11,4.44-1.38,7.32-.53,10.56Z"/><path d="M195.14,180.99c1.13-.07,2.29-.48,3.35-.93,10.03-4.31,20.44-4.75,31.7-2.87,6,0,12.64.08,19.28-.03,3.1-.05,5.32-1.54,5.18-4.98-.14-3.48-2.71-4.93-5.61-4.57-11.71,1.45-23.37-.99-35.08-.13-7.64.56-14.3,3.71-21.02,6.84-1.81.85-3.51,2.02-2.67,4.4.79,2.26,2.9,2.39,4.87,2.28Z"/><path d="M269.86,387.9c-4.48,1.18-8.85,2.67-13.58,2.9-4.52.22-10.85,0-10.36,6.33.48,6.2,6.81,4.74,11.25,5.02,6.5.51,12.35-.91,17.05-5.67,1.74-1.77,2.6-3.89,1.52-6.33-1.17-2.65-3.54-2.86-5.89-2.25Z"/></svg>