<?xml version="1.0" encoding="UTF-8"?><svg id="Dewds" xmlns="http://www.w3.org/2000/svg" viewBox="0 0 500 500"><defs><style>.cls-1{fill:#fff;}</style></defs><path class="cls-1" d="M142.06,211.44c-3.96,3.18-6.76,7.21-7.83,13.04,6.99-5.28,14.78-5.08,22.59-4.94,1.91.03,4.53,1.06,5.14-2.08.49-2.51.35-4.73-2.21-6.51-5.74-3.99-12.09-3.99-17.69.49Z"/><path class="cls-1" d="M137.55,191.49c-8.68,3.36-9.22,4.97-5.13,16.69,7.53-5.65,14.46-12.91,25.65-8.66-4.68-10.79-9.31-12.37-20.52-8.03Z"/><path class="cls-1" d="M232.32,83.46c22.45,4.43,44.16,10.85,65.02,20.66,33.87,15.94,63.38,38.46,94.1,59.73,1.92-.57,1.41-2.58,1.52-4.24.93-14.17-1.74-27.39-7.88-40.44-9.93-21.1-30.27-33.65-52.28-31.46-6.74.67-13.51.46-20.26,1.74-6.74,1.28-13.53.07-20.08-2.04-9.46-3.05-10.31-5-6.41-14.45-25.07-7.08-46.81-6.19-59.49,8.67,1.49,1.93,3.77,1.43,5.74,1.82Z"/><path class="cls-1" d="M205.87,426.56c10.98,1.53,22.14,5.22,33,3.22,12.53-2.31,24.91-6.25,35.92-13.53,9.58-6.33,19.97-10.98,31.31-13.71,15.08-3.62,28.21-10.66,40.36-20.88,9.92-8.34,15.05-19.77,23.53-28.81,1.8-1.92.87-4.11-1.25-5.38-1.51-.9-3.32-1.29-4.93-2.05-2.58-1.22-3.56-3.31-3.22-6.14.38-3.25,2.53-3.89,5.3-3.99,3.21-.12,6.48-.17,9.62-.78,10.87-2.11,14.44-7.05,12.78-18.13-.68-4.57-1.97-9.11-3.55-13.45-2.02-5.56-1.35-10.08,2.5-14.8,7.25-8.87,10.46-19.06,9.97-30.81-.3-7.25-1.75-14.14-2.89-21.18-2.1-12.97-12.06-18.7-22.03-24.19-4.17-2.3-8.09.07-9.1,4.6-2.76,12.46-6.68,24.87-3.94,37.92,1.2,5.7.75,11.4-.02,17.08-.2,1.49-1.25,2.6-2.85,2.73-1.81.15-2.25-1.28-2.76-2.65-1.5-4.02-.66-8.41-2.53-12.47-8.51-18.4-6.57-36.75,1.29-54.75,2-4.59.57-6.57-3.3-7.97-13.02,18.66-8.64,40.29-9.69,61.25-2.03-.78-2.76-.89-3.25-1.29-.53-.43-1.05-1.07-1.23-1.71-3.26-11.43-5.68-22.84-3.07-34.9,2.06-9.5,4.73-18.71,8.81-27.53,1.45-3.13.32-5.74-2.95-6.87-2.91-1-3.65,1.65-4.4,3.49-1.34,3.3-2.66,6.67-3.4,10.14-2.02,9.44-4.77,18.77-4.93,28.54-.03,2.04.28,4.86-2.6,5.03-2.65.16-3.43-2.56-3.5-4.57-.18-5-.12-10.04.27-15.02.85-10.77,4.2-21.02,7.12-31.34.55-1.95,2.04-4.05-1.5-5.25-5.15,5.02-5.56,11.95-7.11,18.41-.5,2.07-.7,4.76-3.47,4.59-2.56-.16-2.95-2.75-3.31-4.87-1.21-7.05,1.94-13.25,3.92-19.67.71-2.3,2.93-4.93-.38-6.48-8.95-4.19-14.81-12.35-23.12-17.39-15.73-9.53-32.6-16.69-49.94-22.25-23.81-7.63-48.77-8.41-73.36-5.92-11.49,1.16-23.89,5.21-27.93,19.3-.33,1.15-1.9,2-2.98,2.89-11.1,9.22-12.11,20.99-9.03,34.24,4-.32,7.22-1.52,10.54-2.75,11.47-4.23,25.17,1.4,29.35,12.58,3.5,9.36,6.56,18.91,6.05,29.25-.58,11.8-.41,23.61-1.82,35.41-1.4,11.74-1.44,23.62-.85,35.45.44,8.99,5.04,15.07,12.48,16.73,4.87,1.09,9.85,1.54,14.89.22,13.87-3.62,25.33-12.76,39.24-16.61,6.85-1.9,6.37-10.21-.06-13.79-2.81-1.56-5.87-2.67-8.75-4.11-2.99-1.49-8.19-1.2-7.59-6.04.63-5.04,5.99-5.49,9.83-7.02,1.12-.45,2.79.17,4.12.57,14.12,4.26,27.85,9.27,39.15,19.31,3.47,3.08,7.32,5.73,10.9,8.7,12.4,10.29,23.89,21.58,34.02,34.07,6.46,7.96,7.66,17.56,4.56,27.51-.73,2.35-2.08,3.7-4.63,3.43-2.07-.22-3.59-1.76-3.4-3.52.89-8.5-5.21-13.84-9.1-19.94-10.73-16.83-25.01-30.23-41.92-40.81-3.65-2.28-6.37-2.71-7.92,2.59-2.18,7.43-8.23,11.35-14.69,14.83-10.13,5.46-20.91,9.27-31.68,13.21-9.92,3.63-19.69,2.24-29.64.62-8.13-1.33-11.94-7.21-15.43-13.6-2.15-3.93-4.86-3.48-7.93-1.2-2.12,1.57-3.07,3.59-3.71,6.21-2.4,9.76-4.21,19.51-2.62,29.61.29,1.84-.09,3.68-2.22,4.3-2.18.64-3.16-.98-4.12-2.51-3.46-5.51-2.34-11.84-3.04-17.81-1.63-14.02,3.87-26.7,12.05-36.76,5.56-6.84,7.19-12.32,5.56-20q-20.75.93-23.84-6.56c6.91-2.26,15.4.23,22.51-7.75-8.14,1.57-13.76-.2-18.86-3.96-1.85-1.36-3.6-2.98-2.88-5.24.88-2.73,3.62-1.81,5.51-1.39,5.54,1.22,11,2.64,18.59-2.23-9.91,1.35-14.66-1.85-14.69-9.99-10,3.19-13.5,10.32-14.96,18.85-1.94,11.31-3.73,22.6-9.88,32.69-1.41,2.32-1.47,5.49-2.01,8.29-2.51,12.88-.96,25.6,1.22,38.36,3.24,18.88,10.69,36.24,18.11,53.72,7.8,18.37,21.39,29.81,39.53,36.94,9.06,3.56,18.34,6.09,27.91,7.43ZM365.54,299.74c.59-3.88.74-8.04,2.33-11.51,5.11-11.12,2.66-22.38.36-33.25-1.46-6.87.12-13.49-.87-20.22-.56-3.83,2-7.73,6.52-8.55,4.2-.76,11.32,5.49,12.21,10.44.31,1.73.05,3.57.05,6.83.03,1.76-.24,4.91-1.09,8.08-3.32,12.41-5.47,25.06-7.12,37.79-.61,4.71-2.39,8.94-4.32,13.17-1.05,2.3-1.82,5.26-5.06,4.34-3.48-.98-3.45-4.23-3.01-7.13ZM148.92,137.6c3.6-1.53,7.31-2.59,11.29-3.03,12.37-1.38,24.96-1.37,36.92-5.56,2.06-.72,4.28-.93,6.25.19,2.64,1.5,6.82,2.1,6,6.36-.7,3.62-4.2,3.3-7.01,3.19-5.43-.21-10.55,1.1-15.8,2.26-7.31,1.62-14.81,2.35-23.34,1.14-3.66.3-8.27.73-12.89,1.04-1.51.1-2.81-.53-3.23-2.16-.42-1.63.55-2.89,1.81-3.43ZM167.64,162.22c-9.46,1.5-19.29.13-28.46,4.02-2.17.92-4.18-.54-4.65-3.11-.37-2.04.67-3.79,2.49-4.17,5.24-1.11,9.87-4.8,15.3-4.5,10.83.61,21.22-2.74,31.92-2.91,3.71-.06,7.05-.93,10.1-3.04,11.62-8.05,23.36-2.08,35.02-.14,1.6.27,2.79,2.23,2.09,4.32-.62,1.85-2.01,2.47-6.06,2.56-2.49-.38-5.7-.74-8.85-1.39-5.01-1.04-10.74-1.69-14.78.44-10.85,5.72-22.56,6.09-34.12,7.92ZM280.13,260.59c-6.15,3.9-12.88,4.55-19.64,2.83-9.38-2.38-18.38-6.04-26.98-10.45-4.41-2.27-8.71-5.16-11.13-9.82-2.8-5.39-5.16-10.7-12.12-12.52-3.69-.97-3.94-5.61-.57-8.78,5.77-5.41,12.22-10.23,20.39-11.03,11.51-1.13,22.87.26,33.74,4.37,6.15,2.32,11.49,5.92,14.43,12.15.94,2,1.35,4.22-.45,5.97-2.19,2.11-4.9,1.73-6.78-.1-3.6-3.5-6.87-7.33-11.95-8.75-.55.39-1.23.67-1.6,1.16-7.77,10.27-11.56,10.1-16.77-1.22-1.23-2.68-2.39-4.18-5.35-3.96-4.21.32-8.69-.46-12.99,3.78,13.61,9.82,26.03,21.44,44.76,12.97,1.35-.61,2.78-.65,3.89.64,1.44,1.69.77,3.27-.24,4.85-2.98,4.63-7.8,5.92-13.94,7.09,6.5,6.79,13.64,5.85,20.77,4.47,2.05-.4,4.43-2.05,5.66.44,1.37,2.77-.83,4.46-3.12,5.91ZM207.19,206c1.31-2.09,2.55-4.54,4.48-5.87,16.52-11.3,40.88-17.48,59.76,3.58,1.66,1.86,3.65,3.47,3.55,7.26-.12,2-1.29,4.22-4.57,2.7-3.2-1.48-6.18-3.52-9.04-5.62-14.85-10.95-30.95-11.32-46.34-.89-1.18.8-2.24,1.77-3.35,2.65-1.29,1.03-2.67.92-3.88,0-1.33-1-1.4-2.57-.62-3.82ZM286.77,207.39c-3.1,1.62-4.26-.95-5.94-2.83-8.79-9.77-19.13-16.72-32.57-18.6-10.27-1.43-20.46-3.31-32.56-2.19-4.76.11-11.18.02-17.54,1.45-2.33.52-4.97-.06-7.43-.42-1.47-.21-2.48-1.41-2.96-2.83-.71-2.11.62-3.59,2.2-4.3,6.8-3.08,13.39-6.68,20.75-8.47,18.73-4.54,36.83-4.4,53.73,6.43,2.39,1.53,5,3.01,7.71,3.72,10.68,2.8,13.62,11.85,16.9,20.54,1.03,2.73.9,5.83-2.28,7.49ZM314.69,264.58c-.98-1.35-.62-2.88.78-3.61.76-.4,2.2-.23,2.95.26,1.47.96,3.12,2.09,3.92,3.56,8.3,15.3,19.36,29.35,21.8,47.34,1.48,10.9.1,22.24,4.99,31.4.13,3.12-.3,4.97-2.23,5.61-2.23.73-3.03-1.22-3.79-2.79-3.92-8.01-7.68-15.85-7.11-25.38.59-9.74-1.95-19.12-7.23-27.57-5.7-9.11-7.72-20.03-14.09-28.83ZM161.73,356.29c3.01-10.72,13.09-19.01,24.17-19.29,7.84-.2,15.61-1.71,23.5-.99,11.04,1.01,20.4-5.68,30.98-7.05,13.25-1.72,26.24-2.13,38.68,3.93,4.95,2.41,8.93,5.9,12.35,10.07,4.56,5.55,3.15,9.88-3.79,11.34-2.01.42-4.44.42-6.32-.31-19.93-7.82-39.47-2.58-58.68,2.42-10.14,2.64-20.23,4.08-31.34,4.99-7.16-1.84-14.54-.31-22.16,2.55-6.44,2.42-9.26-1.04-7.41-7.66ZM169.46,376.98c1.92-3.45,5.94-3.19,8.42-1.27,4.72,3.65,9.99,5.23,15.59,6.52,9.98,2.29,19.96.35,29.91.1,6.76-.17,13.52-1.51,20.22-2.66,5.74-.98,10.87-3.49,15.06-7.65,2.57-2.56,5.2-4.95,11.2-4.34-6.2,12.77-15.88,19.42-28.37,21.43-13.4,2.16-26.97,3.71-40.57,3.46-10.06-.19-19.82-2.15-28.06-8.9-2.37-1.94-5.17-3.5-3.39-6.69Z"/><path class="cls-1" d="M135.29,121.17c4.29,2.51,7.25-1.31,10.58-2.92,3.85-1.87,7.49-4.16,11.31-6.09,2.87-1.45,5.89-2.56,9.17-2.84,19.24-1.63,38.45-1.62,57.52,1.78,29.54,5.25,55.9,18.79,82.05,32.5,13.53,7.09,25.69,16.63,38.75,24.67,8.41,5.17,16.47,11.29,21.22,20.72,1.44,2.85,3.58,5.52,7.72,6.69,16.56,4.68,27.54,15.9,34.26,31.53,1.67,3.89,2.41,8.23,5.35,11.55,7.67-6.3,9.92-14.97,5.39-23.54-4.12-7.8-8.08-15.51-15.04-21.78-10.29-9.27-18.39-20.86-29.74-29.22-5.48-4.03-11.6-6.91-17.02-11.11-25.3-19.59-53.06-34.87-82.92-46.47-21.11-8.2-43.4-11.69-65.11-17.48-17.18-4.59-33.97-7.54-51.68-3.27-12,2.9-20.9,8.85-25.43,20.48-1.71,4.4.43,12.96,3.6,14.82Z"/><path d="M163.44,432.15c2.2,1.17,4.41,2.45,6.78,3.13,12.33,3.56,24.6,6.92,37.4,9.01,23.84,3.91,45.75-.13,66.08-12.25,12.2-7.28,24.99-12.45,38.77-15.04,23.79-4.47,41.61-18.58,57.55-35.41,6.94-7.32,10.86-16.66,10.54-27.19-.12-4.05,1.27-6.71,5.48-7.93,11.76-3.41,17.32-11.54,18.31-23.62.57-6.92.64-13.59-2.2-20.01-1.74-3.92-1.88-7.7.83-11.14,6.73-8.53,9.5-18.37,9.61-29.03.04-3.71,1.36-5.52,4.96-7.02,20.6-8.57,25.65-30.29,15.21-49.49-5.18-9.52-11.61-18.04-19.15-25.79-2.45-2.52-5.12-4.71-5.36-8.88-.35-6.05-1.44-12.05-2.29-18.07-2.54-17.95-7.81-34.93-18.38-49.9-12.49-17.7-28.99-29-51.25-27.95-13.97.66-25.84-3.55-37.8-9.7-24.3-12.49-48.84-13.78-72.1,2.13-9.11,6.23-18.17,7.78-28.4,5.83-21.77-4.16-42.56-2.07-62.58,8.15-6.92,3.53-10.95,8.13-13.24,15.44-2.91,9.27-2.28,18.64-1.64,28.11-8.38-.73-15.76-2.32-24.68-5.95,5.52,15.2,18.85,13.29,28.38,17.17-.79,3.29-2.88,3-4.45,2.74-5.83-.96-11.37.19-16.9,1.8-1.35.39-2.93.5-3.28,2.22-.45,2.21,1.24,3.59,2.75,4.04,4.06,1.22,8.28,1.91,13.54,3.04-1.96,4.44-2.86,8.5-3.74,12.7-1.97,9.38,2.35,18.34.65,27.52-1.4,7.57-.37,15.06,1.45,22.34,3.33,13.32,2.56,26.77,2.4,40.27-.07,5.57-.82,11.34-3.9,15.34-8.1,10.53-5.13,23.41-8.51,34.9-1.37,4.65-2.58,10.38-1.77,15.72,2.91,19.36,5.88,38.69,14.02,56.8,9.6,21.36,20.04,41.95,42.42,53.06,1.59.79,2.92,2.07,4.49,2.91ZM286.07,72.97c-3.9,9.46-3.06,11.4,6.41,14.45,6.54,2.11,13.34,3.32,20.08,2.04,6.74-1.28,13.52-1.07,20.26-1.74,22.01-2.2,42.35,10.35,52.28,31.46,6.14,13.05,8.81,26.27,7.88,40.44-.11,1.66.4,3.67-1.52,4.24-30.72-21.27-60.23-43.79-94.1-59.73-20.86-9.82-42.57-16.23-65.02-20.66-1.97-.39-4.25.11-5.74-1.82,12.67-14.86,34.42-15.75,59.49-8.67ZM131.68,106.35c4.52-11.63,13.43-17.58,25.43-20.48,17.71-4.27,34.5-1.32,51.68,3.27,21.71,5.79,44,9.28,65.11,17.48,29.86,11.6,57.61,26.88,82.92,46.47,5.42,4.2,11.55,7.08,17.02,11.11,11.35,8.36,19.45,19.95,29.74,29.22,6.97,6.28,10.92,13.98,15.04,21.78,4.53,8.57,2.28,17.24-5.39,23.54-2.94-3.33-3.68-7.67-5.35-11.55-6.73-15.63-17.71-26.85-34.26-31.53-4.14-1.17-6.28-3.83-7.72-6.69-4.76-9.43-12.81-15.54-21.22-20.72-13.06-8.03-25.22-17.57-38.75-24.67-26.15-13.71-52.51-27.24-82.05-32.5-19.07-3.39-38.28-3.41-57.52-1.78-3.28.28-6.3,1.38-9.17,2.84-3.82,1.93-7.46,4.23-11.31,6.09-3.33,1.61-6.28,5.43-10.58,2.92-3.17-1.86-5.31-10.42-3.6-14.82ZM138.42,382.19c-7.43-17.48-14.88-34.84-18.11-53.72-2.19-12.76-3.74-25.48-1.22-38.36.55-2.8.6-5.98,2.01-8.29,6.15-10.09,7.95-21.38,9.88-32.69,1.46-8.53,4.96-15.65,14.96-18.85.03,8.13,4.78,11.33,14.69,9.99-7.58,4.87-13.04,3.45-18.59,2.23-1.88-.42-4.63-1.34-5.51,1.39-.73,2.26,1.03,3.87,2.88,5.24,5.1,3.75,10.72,5.53,18.86,3.96-7.11,7.98-15.6,5.49-22.51,7.75q3.09,7.49,23.84,6.56c1.63,7.67,0,13.15-5.56,20-8.18,10.06-13.67,22.74-12.05,36.76.69,5.97-.43,12.3,3.04,17.81.96,1.53,1.94,3.15,4.12,2.51,2.13-.62,2.51-2.46,2.22-4.3-1.58-10.1.22-19.85,2.62-29.61.64-2.62,1.59-4.64,3.71-6.21,3.07-2.27,5.78-2.73,7.93,1.2,3.49,6.38,7.31,12.27,15.43,13.6,9.95,1.62,19.72,3.01,29.64-.62,10.77-3.94,21.54-7.75,31.68-13.21,6.45-3.48,12.51-7.4,14.69-14.83,1.55-5.3,4.27-4.87,7.92-2.59,16.92,10.58,31.2,23.98,41.92,40.81,3.89,6.11,9.99,11.44,9.1,19.94-.18,1.76,1.33,3.29,3.4,3.52,2.55.27,3.9-1.08,4.63-3.43,3.1-9.95,1.9-19.55-4.56-27.51-10.13-12.48-21.62-23.78-34.02-34.07-3.58-2.97-7.43-5.61-10.9-8.7-11.3-10.04-25.03-15.06-39.15-19.31-1.33-.4-2.99-1.02-4.12-.57-3.84,1.53-9.21,1.97-9.83,7.02-.6,4.84,4.6,4.55,7.59,6.04,2.88,1.44,5.94,2.55,8.75,4.11,6.43,3.58,6.91,11.89.06,13.79-13.91,3.86-25.36,13-39.24,16.61-5.05,1.32-10.02.86-14.89-.22-7.45-1.66-12.04-7.74-12.48-16.73-.58-11.82-.55-23.7.85-35.45,1.41-11.79,1.24-23.6,1.82-35.41.51-10.34-2.55-19.9-6.05-29.25-4.18-11.17-17.88-16.81-29.35-12.58-3.31,1.22-6.54,2.42-10.54,2.75-3.08-13.25-2.07-25.02,9.03-34.24,1.07-.89,2.65-1.73,2.98-2.89,4.04-14.09,16.45-18.13,27.93-19.3,24.6-2.49,49.55-1.71,73.36,5.92,17.34,5.56,34.21,12.72,49.94,22.25,8.31,5.03,14.17,13.19,23.12,17.39,3.3,1.55,1.09,4.18.38,6.48-1.98,6.41-5.13,12.62-3.92,19.67.36,2.12.75,4.71,3.31,4.87,2.77.17,2.97-2.51,3.47-4.59,1.55-6.46,1.96-13.4,7.11-18.41,3.54,1.2,2.05,3.3,1.5,5.25-2.92,10.32-6.27,20.57-7.12,31.34-.39,4.99-.45,10.02-.27,15.02.07,2.01.85,4.72,3.5,4.57,2.89-.17,2.57-2.99,2.6-5.03.16-9.78,2.91-19.1,4.93-28.54.74-3.47,2.06-6.84,3.4-10.14.75-1.84,1.5-4.5,4.4-3.49,3.28,1.13,4.4,3.74,2.95,6.87-4.08,8.83-6.75,18.03-8.81,27.53-2.61,12.06-.19,23.47,3.07,34.9.18.64.7,1.28,1.23,1.71.5.4,1.22.51,3.25,1.29,1.05-20.95-3.34-42.59,9.69-61.25,3.87,1.39,5.3,3.37,3.3,7.97-7.85,18-9.8,36.35-1.29,54.75,1.88,4.06,1.03,8.45,2.53,12.47.51,1.36.95,2.8,2.76,2.65,1.6-.13,2.65-1.24,2.85-2.73.77-5.68,1.22-11.38.02-17.08-2.74-13.05,1.17-25.46,3.94-37.92,1-4.53,4.92-6.9,9.1-4.6,9.97,5.49,19.93,11.21,22.03,24.19,1.14,7.04,2.59,13.94,2.89,21.18.49,11.75-2.72,21.94-9.97,30.81-3.86,4.72-4.53,9.24-2.5,14.8,1.58,4.35,2.87,8.89,3.55,13.45,1.66,11.08-1.91,16.02-12.78,18.13-3.14.61-6.4.66-9.62.78-2.78.1-4.92.74-5.3,3.99-.33,2.83.65,4.93,3.22,6.14,1.61.76,3.42,1.14,4.93,2.05,2.12,1.27,3.05,3.46,1.25,5.38-8.48,9.05-13.61,20.47-23.53,28.81-12.15,10.22-25.28,17.26-40.36,20.88-11.33,2.72-21.72,7.37-31.31,13.71-11.01,7.28-23.39,11.22-35.92,13.53-10.86,2-22.03-1.69-33-3.22-9.57-1.34-18.85-3.87-27.91-7.43-18.14-7.13-31.73-18.58-39.53-36.94ZM132.42,208.18c-4.09-11.72-3.55-13.33,5.13-16.69,11.2-4.34,15.84-2.76,20.52,8.03-11.18-4.24-18.12,3.02-25.65,8.66ZM159.75,210.95c2.56,1.78,2.7,4,2.21,6.51-.61,3.13-3.23,2.11-5.14,2.08-7.81-.13-15.6-.34-22.59,4.94,1.08-5.83,3.87-9.86,7.83-13.04,5.59-4.48,11.95-4.48,17.69-.49Z"/><path d="M191.3,361.4c11.11-.92,21.21-2.36,31.34-4.99,19.21-5,38.75-10.24,58.68-2.42,1.87.74,4.3.74,6.32.31,6.94-1.46,8.35-5.79,3.79-11.34-3.43-4.17-7.41-7.66-12.35-10.07-12.44-6.06-25.43-5.65-38.68-3.93-10.58,1.37-19.94,8.06-30.98,7.05-7.9-.72-15.66.79-23.5.99-11.08.28-21.16,8.56-24.17,19.29-1.86,6.62.97,10.07,7.41,7.66,7.62-2.86,15-4.39,22.16-2.55Z"/><path d="M277.59,254.24c-7.13,1.38-14.26,2.32-20.77-4.47,6.14-1.17,10.96-2.46,13.94-7.09,1.01-1.58,1.68-3.16.24-4.85-1.11-1.3-2.53-1.26-3.89-.64-18.73,8.47-31.15-3.15-44.76-12.97,4.3-4.24,8.78-3.47,12.99-3.78,2.96-.22,4.12,1.28,5.35,3.96,5.21,11.32,9,11.49,16.77,1.22.38-.5,1.05-.77,1.6-1.16,5.08,1.42,8.34,5.25,11.95,8.75,1.88,1.83,4.59,2.21,6.78.1,1.81-1.74,1.4-3.97.45-5.97-2.94-6.23-8.27-9.82-14.43-12.15-10.87-4.1-22.22-5.49-33.74-4.37-8.17.8-14.62,5.62-20.39,11.03-3.38,3.17-3.12,7.81.57,8.78,6.96,1.82,9.32,7.13,12.12,12.52,2.42,4.66,6.72,7.55,11.13,9.82,8.6,4.42,17.6,8.08,26.98,10.45,6.75,1.71,13.48,1.06,19.64-2.83,2.29-1.45,4.48-3.14,3.12-5.91-1.23-2.49-3.61-.84-5.66-.44Z"/><path d="M272.15,179.35c-2.71-.71-5.32-2.18-7.71-3.72-16.89-10.83-35-10.97-53.73-6.43-7.36,1.78-13.95,5.39-20.75,8.47-1.58.71-2.91,2.19-2.2,4.3.47,1.42,1.49,2.62,2.96,2.83,2.46.36,5.09.94,7.43.42,6.36-1.43,12.79-1.34,17.54-1.45,12.1-1.13,22.29.75,32.56,2.19,13.44,1.88,23.79,8.83,32.57,18.6,1.69,1.88,2.84,4.45,5.94,2.83,3.18-1.66,3.31-4.77,2.28-7.49-3.28-8.7-6.22-17.75-16.9-20.54Z"/><path d="M368.55,306.88c3.24.91,4.01-2.05,5.06-4.34,1.93-4.24,3.71-8.46,4.32-13.17,1.65-12.73,3.81-25.38,7.12-37.79.85-3.18,1.11-6.33,1.09-8.08,0-3.26.26-5.1-.05-6.83-.89-4.95-8.01-11.19-12.21-10.44-4.52.81-7.09,4.72-6.52,8.55.99,6.74-.59,13.35.87,20.22,2.3,10.87,4.75,22.13-.36,33.25-1.59,3.47-1.74,7.63-2.33,11.51-.44,2.9-.47,6.15,3.01,7.13Z"/><path d="M241.48,389.11c12.49-2.01,22.17-8.66,28.37-21.43-6.01-.62-8.63,1.78-11.2,4.34-4.19,4.17-9.32,6.67-15.06,7.65-6.7,1.15-13.46,2.49-20.22,2.66-9.95.25-19.93,2.19-29.91-.1-5.6-1.29-10.87-2.87-15.59-6.52-2.48-1.92-6.5-2.18-8.42,1.27-1.77,3.19,1.03,4.75,3.39,6.69,8.24,6.74,18,8.71,28.06,8.9,13.6.26,27.17-1.3,40.57-3.46Z"/><path d="M216.54,153.86c3.15.65,6.35,1.01,8.85,1.39,4.05-.09,5.44-.71,6.06-2.56.7-2.09-.49-4.05-2.09-4.32-11.66-1.94-23.41-7.92-35.02.14-3.05,2.11-6.38,2.98-10.1,3.04-10.7.17-21.09,3.52-31.92,2.91-5.43-.31-10.05,3.39-15.3,4.5-1.82.38-2.87,2.13-2.49,4.17.47,2.56,2.48,4.03,4.65,3.11,9.17-3.89,19-2.52,28.46-4.02,11.56-1.83,23.27-2.2,34.12-7.92,4.04-2.13,9.77-1.48,14.78-.44Z"/><path d="M336,320.97c-.58,9.52,3.19,17.37,7.11,25.38.77,1.57,1.57,3.52,3.79,2.79,1.93-.63,2.36-2.48,2.23-5.61-4.89-9.16-3.51-20.5-4.99-31.4-2.44-17.98-13.51-32.04-21.8-47.34-.8-1.48-2.45-2.6-3.92-3.56-.75-.49-2.2-.65-2.95-.26-1.4.73-1.76,2.26-.78,3.61,6.37,8.8,8.38,19.72,14.09,28.83,5.29,8.45,7.82,17.82,7.23,27.57Z"/><path d="M207.81,209.82c1.21.91,2.59,1.02,3.88,0,1.12-.89,2.17-1.86,3.35-2.65,15.39-10.43,31.49-10.06,46.34.89,2.85,2.1,5.84,4.14,9.04,5.62,3.28,1.52,4.45-.7,4.57-2.7.11-3.79-1.88-5.4-3.55-7.26-18.88-21.06-43.24-14.88-59.76-3.58-1.94,1.32-3.17,3.78-4.48,5.87-.78,1.25-.72,2.82.62,3.82Z"/><path d="M150.33,143.19c4.62-.31,9.24-.74,12.89-1.04,8.52,1.21,16.03.48,23.34-1.14,5.25-1.16,10.37-2.47,15.8-2.26,2.81.11,6.31.43,7.01-3.19.82-4.26-3.35-4.86-6-6.36-1.97-1.12-4.19-.91-6.25-.19-11.95,4.2-24.55,4.18-36.92,5.56-3.98.44-7.69,1.5-11.29,3.03-1.26.54-2.23,1.8-1.81,3.43.41,1.62,1.72,2.26,3.23,2.16Z"/></svg>