<?xml version="1.0" encoding="UTF-8"?><svg id="Dewds" xmlns="http://www.w3.org/2000/svg" viewBox="0 0 500 500"><defs><style>.cls-1{fill:#fff;}</style></defs><path class="cls-1" d="M204.71,437.44c-.07,2.5-1.23,5.54,2.85,5.69-1.18-1.76-.11-4.65-2.85-5.69Z"/><path class="cls-1" d="M168.28,212.43c-1.5-12.47-5.61-16.11-15.56-14.1-7.3,1.48-14.14,4.4-20.68,8.02-8.58,4.75-8.61,4.69-5.28,16.61,11.63-11.38,24.99-15.67,41.52-10.53Z"/><path class="cls-1" d="M207.93,454.98c1.52-5.39.46-8.5-.25-11.61-1.74,3.25-.99,6.42.25,11.61Z"/><path class="cls-1" d="M180.54,321.02c.72-3.81,1.11-7.89.57-11.68-2.45-16.96-10.3-32.41-12.69-50.53-8.92,4.38-15.91,9.27-24.93,8.18.88-4.67,4.17-5.25,6.92-6.55,3.91-1.85,7.68-4.03,10.38-7.46,2.12-2.7,5.22-6.01,2.77-9.37-2.61-3.58-5.57.38-8.18,1.4-8.12,3.16-15.59,3.53-21.78-4.48,11.28.96,20.1-4.21,28.83-9.47,2.74-1.65,5.48-3.83,2.31-7.41-2.51-2.85-4.42-1.47-6.67.85-4.79,4.95-10.41,6.96-16.78,2.77-2.41-1.59-4.3-1.01-6.35.56-10.84,8.26-15.12,19.21-10.82,32.04,4.34,12.98,10.34,25.58,21.16,34.67,5.97,5.02,8.24,11.12,8.63,18.4.21,3.91.02,7.85.49,11.72,1.78,14.57,5.28,28.37,17.07,38.63,5.97,5.19,9.57,12.32,13.97,18.77,1.44,2.12,1.78,5.38,5.95,5.81.7-4.88-1.45-9.01-3.09-13.13-6.86-17.3-11.32-34.88-7.77-53.71Z"/><path class="cls-1" d="M313.96,369.91c-1.01.93-1.12,2.24-.59,3.22,5.37,9.93,10.85,19.81,17.3,31.53,2.27-10.91-7.69-29.84-16.71-34.76Z"/><path class="cls-1" d="M347.56,443.54c.77-4.71,1.01-8.23-4.56-8.47-.25,3.44.42,6.42,4.56,8.47Z"/><path class="cls-1" d="M338.89,427.22c-.22,3.48.68,6.16,3.92,7.54.32-3.27-.51-5.97-3.92-7.54Z"/><path class="cls-1" d="M276.38,342.24c2.6,2.61,19.74,13.18,23.35,14.22-6.44-7.77-10.86-17.24-23.35-14.22Z"/><path class="cls-1" d="M287.78,361.34c-10.68-7.42-22.28-13.87-35.75-5.51-.33.21-.69.37-1.05.53-2.08.9-3.83.34-5.16-1.37-1.05-1.35-.66-2.74-.13-4.34,1.61-4.91,5.56-8.24,9.86-12.83-8.59.84-14.9,3.63-20.44,6.89-9.41,5.55-18.78,6.67-29.22,4.57-7.09-1.43-7.23-.94-7.05,6.06.05,1.91.19,3.9,1.89,5.4,2.89-.75,5.83-2.02,8.78-2.06,1.42-.02,3.37,2.21.32,3.75,1.82-.31,3.65-.55,5.44-.97,7.77-1.81,8.46-1.34,6.81,5.75-.96,4.12-1.81,8.2-3.56,12.23-4.7,10.84-6.45,22.49-7.15,34.27-.35,5.9,2.16,9.41,7.92,10.6,0-7.06.66-13.75-.14-20.25-1.49-12.03,4.17-22.03,8.01-32.58.65-1.78,1.7-3.79,4.07-3.53,2.4.27,3.02,2.2,2.88,4.32-.14,2-.37,4.4,2.09,4.67,3.47.38,7.09.37,10.52-.2,3.23-.54,5.29-3.05,6.71-6.78-2.82-.25-5.41-.42-7.98-.74-1.57-.19-3.03-.71-3.39-2.59-.34-1.78.59-3.12,1.87-3.98,2.99-2.01,6.46-2.47,9.98-3.05,9.32-1.54,17.69,2.25,26.44,4.03,6.95,1.42,12.13,5.01,16.23,10.65,6.71,9.21,12.61,18.85,16.69,29.54,1.11,2.91,2.63,5.67,4,8.48.59,1.2,1.76,1.53,2.92,1.31,1.81-.35,2.56-1.94,2.56-3.47,0-1.5-.51-3.11-1.16-4.5-8.02-17.24-17.95-33.26-33.82-44.28Z"/><path class="cls-1" d="M274.56,329.69c.22-.45-1.01-2.28-1.81-2.48-3.75-.92-5.26,1.72-7.04,5.52,4.25.02,7.28.09,8.85-3.04Z"/><path class="cls-1" d="M272.03,407.63c-1.28,8.16,2.56,13.19,2.96,18.81.12,1.66,1.15,3.04,2.92,2.82,2.37-.3,3.02-2.27,2.64-4.3-1.05-5.66-2.84-11.03-8.52-17.32Z"/><path class="cls-1" d="M208.49,366.65c-10.7,10.59-7.42,24.39-8.45,37.17-.11,1.43,1.37,2.7,3.42,3.47,1.2-5.17,2.33-10.31,3.59-15.41,1.3-5.27,3.02-10.45,4.03-15.77.86-4.51.71-9.12-1.27-13.45.28,1.55-.2,2.87-1.33,3.99Z"/><path class="cls-1" d="M261.79,431.54c.1,1.22,1.61,2.65,3.54,2.15,1.78-.45,2.63-1.83,2.56-3.42-.31-7.13-3.38-13.24-7.89-19.14-2.43,7.12,1.25,13.58,1.78,20.4Z"/><path class="cls-1" d="M301.28,396.57c-2.98-5.44-5.26-12-10.78-15-3.79-2.06-8.7,2.12-13.44,1.24-1.85-.34-3.87.4-5.81.39-4.12-.03-7.83,1.07-10.52,4.22-3.7,4.33-8.36,4.72-13.67,4.85-18.67.45-20.76,2.94-19.76,21.49.02.39.06.78.33,3.95,0,.73-.01,4.24,0,7.76.01,2.36.21,4.62,2.22,6.35,3.02,2.6,20.57,5.79,22.46,3.3,3.74-4.92.78-10.25-.45-15.45-1.08-4.59-1.58-9.18-6.4-11.83-2.03-1.12-3.57-3.3-2.56-5.9,1.04-2.67,3.85-3.05,5.95-2.46,8.49,2.4,16.03,1.18,23.15-4.18,3.31-2.49,6.01-1.1,6.62,3.03.94,6.35,5.17,11.36,6.76,17.4,3.44,13.05,6.52,9.7,14.86,6.57,1.82-.68,3.7-1.23,5.58-1.74,3.86-1.06,5.06-3.52,3.48-7.07-2.54-5.7-5.03-11.45-8.02-16.92Z"/><path class="cls-1" d="M407.55,240.05c-6.09-14.77-21.41-17.1-31.45-4.6-4.42,5.51-7.45,11.93-10.37,18.36-1.61,3.56-3.29,7.1-5.11,10.56-.89,1.7-2.04,3.53-4.43,3.1-2.73-.49-3.75-2.59-3.98-5.05-.18-1.94.04-3.91-.07-5.86-.56-10.03,3.98-18.64,8.19-27.11-2.29-1.48-3.41-.1-4.7.59-2.6,1.39-5.42,4.63-8.05.72-2.71-4.02.51-6.1,3.52-8.37,5.43-4.12,11.81-4.81,18.47-6.15-4.34-2.53-8.41-5.33-13.46-2.35-2.45,1.44-4.92,3.43-6.84-.15-1.98-3.69.84-5.86,3.5-7.58,6.37-4.13,12.87-2.02,19.16.23,2.51.9,4.61,2.91,7,4.24,1.91,1.06,3.91.75,5.12-1.09,1.13-1.72-.5-2.87-1.6-3.84-5.67-5.01-11.89-8.87-19.74-9.34-2.31-.14-4.67-.39-6.87-1.05-1.99-.6-3.16-2.3-2.81-4.52.27-1.73,1.61-2.75,3.23-2.89,6.58-.55,13.23-1.86,19.38,2.11,2.14,1.38,4.23,3.74,7.86,1.69-3.41-9.63-11.02-13.35-20.28-14.68-2.27-.33-4.69.48-7.01.34-2.04-.12-3.73-1.27-3.89-3.59-.16-2.3,1.19-3.31,3.33-4,8.31-2.65,16.08-1.54,23.53,2.79,1.72,1,3.77,2.05,4.95-.34.91-1.86.1-4.08-1.58-5.24-6.19-4.29-12.75-7.59-20.68-6.71-2.62.29-6.06,1-6.67-2.62-.66-3.91,2.77-5.26,5.81-6.13,3.82-1.09,7.75-.65,11.66-.21,2.55.29,5.01,2.69,8.39-.1-2.57-15.45-9.64-28.97-20.11-40.9-2.31-2.64-5.14-5.01-6.78-8.02-8.71-15.98-22-27.07-37.24-36.38-13.88-8.48-28.14-14.98-44.85-15.6-9.74-.36-19.51-.61-29.22-1.2-22.43-1.37-43.47,2.83-63.75,12.31-17.21,8.04-30.5,20.13-40.58,36.11-10.75,17.06-17.54,35.74-23.16,54.93-.66,2.24-1.27,4.58,1.12,6.97,9.52-2.32,19.31-6.56,29.83-2.59-1.85,6.73-7.05,6.26-11.52,6.97-7.21,1.14-14.35,2.38-19.62,8.61,5.23,4.04,8.73-.04,12.26-1.63,6.58-2.98,13.21-4.81,20.45-3.93,2.26.28,5.2,0,5.12,3.31-.07,2.92-2.7,3.64-5.09,3.81-7.16.51-13.85,2.62-20.08,6.03-3.09,1.69-7.82,1.8-8.16,7.05,4.07,1.96,6.98-.95,10.13-1.89,5.23-1.56,10.21-3.99,15.45-5.52,9.77-2.86,18.45.48,26.81,5.32,7.15,4.13,5.42,11.55,6.66,17.81.52,2.64.03,5.46.19,8.19.72,12.45-.89,24.89,2.01,37.38,5.82,25.1,12.72,49.96,16.82,75.48,2.15,13.34,16.74,19.21,28.18,11.61,8.58-5.7,17.37-10.3,27.23-13.34,11.02-3.4,13.16-11.64,5.8-20.68-2.97-3.65-6.56-6.82-11.56-7.41-2.52-.29-4.43-1.25-5.78-3.42-1.71-2.76-3.27-5.74-1.23-8.73,1.81-2.66,4.96-2.01,7.59-1.35,10.47,2.61,20.04,6.8,26.32,16.2,13.66,20.46,27.36,40.9,43.48,59.54,7.23,8.36,13.49,17.23,17.8,27.46.85,2.03,1.39,4.59,4.54,4.59,3.43-3.16,3.15-7.83,4.55-11.8,1.66-4.69.93-8.21-4.87-9.57-7.77-1.82-8.54-8.5-8.83-14.82-.26-5.67,4.1-13.64,7.11-13.74,6.25-.2,6.74,5.4,8.93,9.34,5.49,9.92,17.89,10.19,23.49.37,1.91-3.36,3.69-7.2,4.03-10.96,1.18-12.91,8.08-22.53,16.47-31.6,3.7-4,7.21-8.28,10.22-12.82,5.8-8.72,12.75-17.03,11.58-28.69-.82-8.22-2.04-16.3-5.21-23.99ZM289.6,157.45c1.23,1.04,1.45,2.66,1.04,4.29-.46,1.82-1.94,2.62-3.47,2.52-2.7-.18-5.45-.55-8.02-1.35-21.93-6.83-43.94-5.15-65.98-.81-2.6.51-5.54,2.41-6.71-1.6-.89-3.07.8-5.07,3.77-6.26,9.56-3.82,19.46-5.56,29.74-5.07,3.11.15,6.22.37,8.23.5,13.82-2.03,26.02-.81,37.39,5.65,1.32.75,2.89,1.18,4.02,2.14ZM184.06,81.85c.44-2.07,2.52-3.26,4.46-2.78,3.99.99,8.44.62,12.85,4.06-4.17,4.59-8.92,3.84-13.45,3.38-2.41-.24-4.45-1.87-3.86-4.66ZM156.89,104.38c.45-3.95,3.99-2.76,6.52-2.82,8.17-.18,16.34-.41,24.51-.32,3.62.04,6.7-.83,9.98-2.4,14.85-7.1,30.78-7.48,46.81-6.83,1.74.07,2.77,1.17,3.34,3.25-4.08,2.35-8.84,1.87-13.26,2.56-11.95,1.87-23.47,5.12-34.69,9.58-12.42,4.93-25.3,3.25-38.08,2.28-2.87-.22-5.5-2.1-5.14-5.3ZM172.69,139.22c-3.37-.51-7.63-1.06-11.86-1.82-8.98-1.62-17.82-2.22-26.39,1.99-2.24,1.1-5.55,3.41-6.91-.24-1.14-3.06,2.54-4.29,4.82-5.61,8.4-4.86,17.41-7.24,27.04-5.36,18.18,3.54,35.38,1.41,52.63-5.67,18.83-7.73,38.56-10.06,58.43-2.98,2.53.9,7.56.07,6.12,4.7-1.15,3.7-5.39,2.26-8.21,1.34-6.81-2.25-13.75-2.73-20.85-2.68-11.92.08-23.42,2.1-34.1,7.47-12.57,6.33-26.11,7.76-40.73,8.87ZM287.93,218.14c-2.25,2.9-4.76,1.16-7.18-.43-6.51-4.3-12.7-5.53-20.65-1.91-5.63,2.56-12.93,2.4-19.21-1.45-3.43-2.1-3.67-1.7-9.33-.03,5.47,6.12,6.33,6.42,18.79,8.12,6.87.93,13.7,2.13,21.94,3.42-7.38,12.51-19.03,3.98-28.59,7.94,9.93,7.69,19.88,10.61,31.89,5.54-3.51,9.19-9.51,13.44-17.84,11.27-15.69-4.09-30.26-10.83-41.05-23.55-6.45-7.61-4.83-13.33,3.79-18.67,9.92-6.14,20.79-8.85,32.14-10.31l-.07-.04c-.11-.06-.3-.17-.32-.18.02,0,.04,0,.06,0-6.48-4.8-13.99-3.3-21.17-2.94-6.21.32-12.35,1.72-18.55,2.41-6.35.7-8.7-2.65-6.15-8.48,1.66-3.79,4.36-6.18,8.38-7.57,19.23-6.65,38.3-6.36,57.33.77,3.65,1.37,7.29,2.94,11.07,3.8,4.72,1.07,6.43,3.68,6.12,8.34-.39,5.9-1.68,7.28-8.24,6.42-8.11-1.07-16.07-3.24-24.32-3.3-1.5-.01-3,.34-4.48.55.05.04.1.07.15.1,5.62,2.51,11.43,4.37,17.62,4.5,6.25.14,11.16,3.32,16,6.66,3.36,2.32,4.53,5.61,1.88,9.03ZM289.04,181.35c-22.43-8.17-45.53-13.07-69.68-8.55-3.49.65-9.04,3.83-10.25-.67-1.74-6.49,5.66-6.88,9.5-7.5,13.73-2.23,27.26-4.34,41.53-.31,11.85,3.35,24.57,3.43,35.75,9.78,5.13,2.91,9.92,6.18,14.4,9.94,3.37,2.83,5.34,6.62,6.32,10.48.02,2.12-.59,3.49-2.29,4.04-1.78.57-3.11-.52-3.85-1.83-4.79-8.42-13.27-12.4-21.42-15.37ZM323.28,278.76c-6.42,9.37-8.2,19.16-5.21,29.96,1.04,3.77,1.92,7.57,1.52,11.51-.16,1.57-.75,3.04-2.6,3.4-1.82.36-3.22-.62-3.67-2.09-5.47-18.21-13.13-36.36,1.9-54.08,7.27-8.57,11.78-18.4,7.84-30.22-.83-2.47.1-4.99,2.73-5.62,2.99-.72,3.85,2.22,4.65,4.22,1.88,4.72,3.39,9.58,2.73,14.59.64,10.95-4.15,19.96-9.89,28.33ZM344.41,191.71c-.25,1.96-1,3.94-3.42,3.98-2.03.04-2.5-1.78-2.58-3.3-.48-8.79-6.79-14.84-10.71-21.88-3.79-6.8-6.98-14.13-11.44-20.35-10.94-15.29-10.48-32.18-9.25-49.45.13-1.88.15-4.37,2.45-4.71,3.06-.45,3.95,2.41,4.21,4.57.56,4.65.55,9.36.79,14.29-1.55,9.55,1.24,18.24,6.22,26.6,6.8,11.42,13.16,23.1,19.75,34.64,2.77,4.86,4.7,9.92,3.97,15.61ZM401.93,253.31c-.48,3.69-2.21,6.68-5.12,8.87-10.16,7.66-11.87,19.5-15.1,30.54-1.2,4.08-1.49,8.42-2.41,12.6-.52,2.36-1.83,4.72-4.5,4.63-3.01-.1-3.2-2.84-3.37-5.23-.08-1.1-.29-2.16-1.58-2.62-4.72,1.9-2.94,7.82-6.43,10.57-1.6,1.26-3.13,2.59-5.15,1.55-1.46-.75-1.67-2.47-1.67-4.05-.01-4.47,1.59-8.36,4.23-11.89,3.96-5.29,8.04-10.5,11.81-15.92,4.72-6.79,8.12-14.08,8.51-22.62.18-3.84,1.04-7.76,2.28-11.41,1.89-5.56,7.43-8.74,11.67-7.29,4.63,1.58,7.52,6.85,6.82,12.28Z"/><path d="M209.82,362.66c-.01-.07-.02-.13-.03-.2.02,0,.03-.02.05-.03-.04,0-.07.01-.11.02.03.07.06.14.09.21Z"/><path d="M342.81,434.77c0,.1,0,.19-.02.29.08,0,.14.01.22.01,0-.07,0-.13.01-.2-.08-.03-.13-.07-.21-.1Z"/><path d="M410.67,201.35c.12-12.49-2.6-23.99-10.35-34.14-2.9-3.79-3.81-8.45-3.89-13.31-.14-9.17-2.68-17.72-7.05-25.79-6.33-11.71-12.37-23.57-18.77-35.23-7.9-14.39-19.77-24.89-33.19-34.06-12.96-8.85-27.97-11.67-42.55-16-12.85-3.81-26.28-3.83-39.23-6.54-25.04-5.25-48.94-4.21-71.26,9.63-9.3,5.77-18.83,11.21-27.78,17.48-9.62,6.74-19.24,13.92-24.48,24.86-10.82,22.57-22.38,44.94-26.28,70.08-.81,5.23-3.3,8.42-7.82,10.79-3.79,1.99-7.28,4.57-10.88,6.91-3.13,2.04-6.12,4.92-3.58,8.48,2.51,3.53,5.47.27,8.04-1.35,3.68-2.31,7.07-5.87,12.55-3.74-1.42,5.24-5.6,7.05-8.77,9.74-5.07,4.3-10.35,8.37-15.24,12.87-3.22,2.97-4.38,7.4-.83,10.31,3.82,3.13,4.74-2.27,6.83-3.99,4.38-3.61,7.85-8.54,13.74-9.86-2.87,4.54-6.35,8.24-9.66,12.09-1.78,2.07-3.49,4.27-4.8,6.65-1.5,2.74-.73,5.55,1.77,7.25,2.65,1.8,4.14-.72,5.74-2.34,2.51-2.54,3.36-6.88,8.27-8.06,2.54,10.09,5.25,19.37,6.75,29.03,3.24,20.92,7.87,41.33,18.37,60.22,7.2,12.95,13.95,26.29,18.48,40.55,3.71,11.7,9.73,21.97,17.56,31.53,9.65,11.79,18.42,24.31,27.26,36.74,3.41,4.81,4.98,10.46,5.72,16.46,1,8.08.31,16.42,3.9,24.18,1.86,4.01,1.29,10.12,8.83,6.98,1.5-.63,2.47,1.45,2.92,3,.66,2.25,1.17,4.56,2.02,6.73.6,1.52,1.98,2.49,3.73,2.11,2.08-.46,3.59-1.85,3.47-4.04-.11-1.9-.87-3.76-1.32-5.64-1.69-7.05-3.09-14.13-3.07-21.57,4.09.23,5.16,2.81,6.39,5.21,2.91,5.67,3.66,11.91,4.93,18.04,1.33,6.47,2.74,12.92,4.4,19.31.49,1.89,2.2,3.47,4.43,3,2.08-.44,3.31-2.13,3.16-4.33-.13-1.93-.35-3.93-.99-5.74-1.61-4.53-1.61-9.26-1.87-13.92-.29-5.09-5.11-8.93-3.89-14.24.54-.36.86-.75,1.2-.77,21.3-1.37,23.52.12,29.84,19.98,2.13,6.7,4.22,13.41,6.45,20.08.61,1.83,1.75,3.98,3.99,3.5,2.89-.62,3.23-3.23,2.5-5.63-2.74-8.98-5.89-17.85-8.37-26.9-.96-3.5-5.82-9,.71-10.6,5.33-1.31,5.63,5.45,6.54,9.2,1.37,5.68,1.65,11.61,4.05,17.07.99,2.24,2.21,4.61,4.97,4.01,3.95-.85,3.13-4.47,2.16-6.66-3.07-6.94-3.2-14.5-5.27-21.63-.67-2.31-1.21-5.11,1.99-5.62,2.35-.38,2.71,2.12,3.05,4.07,1.03,5.78,1.89,11.6,3.31,17.29.59,2.38,1.31,6.02,5.02,5.23,3.3-.71,3.72-3.67,2.98-6.62-1.14-4.55-2.47-9.06-3.59-13.62-2.31-9.42-1.95-10,7.17-13.35,2.2-.81,4.32-1.84,6.5-2.72,9.29-3.8,9.7-3.79,11.99,5.43,1.69,6.81,4.91,13.25,5.04,20.46.04,2.47.99,5.06,3.78,5.07,3.93.02,3.77-3.34,3.59-6.02-.44-6.71-3.16-12.9-4.75-19.36-.84-3.41-1.73-6.81-2.28-10.27-.13-.84.76-2.18,1.56-2.74,1.2-.84,2.3.22,2.76,1.23.79,1.75,1.68,3.63,1.76,5.49.19,4.89,1.05,9.15,5.65,12.07,1.45.92,2.22,3.15,2.95,4.92,1.25,3.01-1.06,8.27,3.55,8.89,6.09.82,3.1-6.24,5.52-8.29,10.09-8.57,6.05-16.72.79-25.81-2.79-4.83-5.89-10.55-3.33-16.64,2.23-5.31,5.12-10.34,7.72-15.5,4.26.75,6.35,7.1,10.6,3.71,4.14-3.3.37-7.11-.8-10.61-1.4-4.19-1.4-8.5-.95-12.78.27-2.59.55-5.66,4.55-5.58,2.37,3.44,1.05,7.65,2.37,11.21,1.44,3.89,2.52,9.7,8.01,8.13,5.9-1.69,1.51-6.31.91-9.76-1.54-8.78-2.45-17.47,5.31-24.4.26,7.86.32,15.56,2.38,23.05.73,2.67,1.48,5.71,5.24,4.81,3.69-.88,3.21-3.95,2.65-6.67-1.18-5.79-2.05-11.54-.85-17.46,2.62-13.03,5.22-26.07,7.66-39.14.74-3.98,2.85-7.19,4.64-10.67,6.96-13.46,15.74-26.07,16.52-42.16.73-14.93,2.68-29.86-6.11-43.25-4.05-6.17-5.44-12.85-5.37-19.95ZM191.4,387.86c-4.17-.43-4.51-3.69-5.95-5.81-4.4-6.46-8-13.58-13.97-18.77-11.79-10.26-15.29-24.06-17.07-38.63-.47-3.87-.28-7.82-.49-11.72-.39-7.28-2.66-13.39-8.63-18.4-10.82-9.09-16.82-21.69-21.16-34.67-4.29-12.84-.02-23.78,10.82-32.04,2.05-1.56,3.94-2.14,6.35-.56,6.37,4.19,11.98,2.18,16.78-2.77,2.24-2.32,4.16-3.69,6.67-.85,3.16,3.58.42,5.76-2.31,7.41-8.73,5.26-17.55,10.43-28.83,9.47,6.2,8.01,13.66,7.64,21.78,4.48,2.61-1.01,5.57-4.97,8.18-1.4,2.46,3.36-.65,6.67-2.77,9.37-2.7,3.43-6.47,5.61-10.38,7.46-2.75,1.3-6.04,1.88-6.92,6.55,9.02,1.09,16.01-3.8,24.93-8.18,2.39,18.12,10.24,33.57,12.69,50.53.55,3.8.15,7.87-.57,11.68-3.55,18.83.91,36.41,7.77,53.71,1.63,4.12,3.79,8.26,3.09,13.13ZM132.04,206.36c6.54-3.62,13.38-6.54,20.68-8.02,9.94-2.01,14.06,1.63,15.56,14.1-16.53-5.15-29.89-.85-41.52,10.53-3.34-11.91-3.31-11.86,5.28-16.61ZM207.93,454.98c-1.25-5.19-2-8.36-.25-11.61,0-.03-.02-.07-.02-.1-.04-.05-.06-.1-.1-.15-4.08-.14-2.92-3.19-2.85-5.69,2.73,1.04,1.66,3.93,2.85,5.69.08,0,.15.01.23.01-.04.08-.07.15-.11.23.72,3.11,1.77,6.22.25,11.61ZM265.33,433.69c-1.94.49-3.45-.94-3.54-2.15-.54-6.82-4.22-13.28-1.78-20.4,4.51,5.89,7.58,12.01,7.89,19.14.07,1.59-.78,2.96-2.56,3.42ZM277.91,429.26c-1.77.23-2.8-1.16-2.92-2.82-.4-5.62-4.24-10.65-2.96-18.81,5.69,6.29,7.47,11.66,8.52,17.32.38,2.04-.27,4-2.64,4.3ZM305.82,420.56c-1.88.51-3.76,1.06-5.58,1.74-8.34,3.13-11.42,6.48-14.86-6.57-1.59-6.04-5.83-11.06-6.76-17.4-.61-4.13-3.3-5.53-6.62-3.03-7.12,5.36-14.66,6.58-23.15,4.18-2.1-.59-4.91-.22-5.95,2.46-1.01,2.6.52,4.78,2.56,5.9,4.82,2.64,5.31,7.23,6.4,11.83,1.23,5.2,4.19,10.52.45,15.45-1.89,2.49-19.43-.71-22.46-3.3-2.01-1.73-2.21-3.98-2.22-6.35-.02-3.51,0-7.03,0-7.76-.26-3.18-.3-3.56-.33-3.95-1-18.55,1.09-21.03,19.76-21.49,5.31-.13,9.97-.52,13.67-4.85,2.69-3.15,6.4-4.25,10.52-4.22,1.94.01,3.96-.73,5.81-.39,4.75.88,9.65-3.3,13.44-1.24,5.52,3,7.8,9.56,10.78,15,2.99,5.47,5.48,11.21,8.02,16.92,1.58,3.56.38,6.02-3.48,7.07ZM320.19,413.59c-1.16.22-2.33-.1-2.92-1.31-1.37-2.81-2.89-5.57-4-8.48-4.08-10.7-9.98-20.33-16.69-29.54-4.1-5.63-9.28-9.23-16.23-10.65-8.75-1.78-17.12-5.57-26.44-4.03-3.52.58-6.99,1.03-9.98,3.05-1.28.86-2.21,2.2-1.87,3.98.36,1.88,1.82,2.4,3.39,2.59,2.57.32,5.16.49,7.98.74-1.41,3.74-3.48,6.24-6.71,6.78-3.43.57-7.05.59-10.52.2-2.46-.27-2.22-2.67-2.09-4.67.14-2.12-.48-4.05-2.88-4.32-2.37-.26-3.43,1.75-4.07,3.53-3.84,10.55-9.5,20.56-8.01,32.58.8,6.51.14,13.2.14,20.25-5.76-1.19-8.27-4.7-7.92-10.6.71-11.78,2.46-23.42,7.15-34.27,1.75-4.03,2.6-8.12,3.56-12.23,1.65-7.09.97-7.56-6.81-5.75-1.79.42-3.63.65-5.44.97-.02,0-.03.02-.05.03.02.07.02.13.03.2,1.99,4.33,2.13,8.94,1.27,13.45-1.01,5.32-2.73,10.5-4.03,15.77-1.26,5.1-2.39,10.24-3.59,15.41-2.05-.77-3.54-2.04-3.42-3.47,1.02-12.78-2.25-26.59,8.45-37.17,1.13-1.11,1.61-2.44,1.33-3.99-.03-.07-.06-.14-.09-.21.04,0,.07-.01.11-.02,3.05-1.54,1.1-3.77-.32-3.75-2.96.04-5.9,1.31-8.78,2.06-1.7-1.5-1.84-3.48-1.89-5.4-.17-7-.04-7.48,7.05-6.06,10.44,2.1,19.8.98,29.22-4.57,5.54-3.27,11.85-6.05,20.44-6.89-4.3,4.59-8.25,7.92-9.86,12.83-.53,1.6-.92,2.99.13,4.34,1.32,1.71,3.08,2.28,5.16,1.37.36-.16.72-.33,1.05-.53,13.47-8.36,25.07-1.91,35.75,5.51,15.86,11.03,25.79,27.04,33.82,44.28.65,1.39,1.15,2.99,1.16,4.5,0,1.53-.74,3.12-2.56,3.47ZM265.71,332.73c1.78-3.79,3.29-6.43,7.04-5.52.8.2,2.04,2.03,1.81,2.48-1.57,3.13-4.6,3.06-8.85,3.04ZM276.38,342.24c12.49-3.02,16.91,6.45,23.35,14.22-3.61-1.04-20.75-11.61-23.35-14.22ZM330.67,404.66c-6.45-11.72-11.93-21.6-17.3-31.53-.53-.98-.42-2.29.59-3.22,9.02,4.91,18.99,23.85,16.71,34.76ZM347.56,443.54c-4.14-2.05-4.81-5.03-4.56-8.47-.07,0-.14-.01-.22-.01.01-.1.01-.19.02-.29-3.23-1.39-4.14-4.06-3.92-7.54,3.41,1.58,4.24,4.27,3.92,7.54.07.03.13.07.21.1,0,.07,0,.14-.01.2,5.57.24,5.33,3.76,4.56,8.47ZM401.18,292.72c-3.01,4.54-6.52,8.81-10.22,12.82-8.39,9.07-15.29,18.69-16.47,31.6-.34,3.76-2.12,7.6-4.03,10.96-5.59,9.83-17.99,9.56-23.49-.37-2.18-3.94-2.68-9.54-8.93-9.34-3.01.1-7.37,8.07-7.11,13.74.29,6.32,1.06,12.99,8.83,14.82,5.8,1.36,6.53,4.88,4.87,9.57-1.41,3.97-1.12,8.64-4.55,11.8-3.15,0-3.69-2.57-4.54-4.59-4.3-10.22-10.57-19.1-17.8-27.46-16.12-18.65-29.82-39.08-43.48-59.54-6.28-9.41-15.86-13.6-26.32-16.2-2.63-.65-5.77-1.31-7.59,1.35-2.04,2.99-.48,5.97,1.23,8.73,1.35,2.17,3.26,3.13,5.78,3.42,5,.58,8.59,3.76,11.56,7.41,7.36,9.04,5.22,17.28-5.8,20.68-9.86,3.04-18.65,7.64-27.23,13.34-11.44,7.6-26.03,1.73-28.18-11.61-4.11-25.52-11.01-50.38-16.82-75.48-2.9-12.49-1.29-24.93-2.01-37.38-.16-2.73.33-5.55-.19-8.19-1.24-6.26.49-13.68-6.66-17.81-8.36-4.83-17.04-8.17-26.81-5.32-5.24,1.53-10.22,3.96-15.45,5.52-3.16.94-6.07,3.85-10.13,1.89.35-5.24,5.07-5.35,8.16-7.05,6.24-3.41,12.92-5.52,20.08-6.03,2.39-.17,5.03-.9,5.09-3.81.08-3.3-2.86-3.03-5.12-3.31-7.24-.88-13.87.95-20.45,3.93-3.53,1.6-7.03,5.68-12.26,1.63,5.27-6.23,12.41-7.47,19.62-8.61,4.47-.71,9.67-.24,11.52-6.97-10.52-3.97-20.31.27-29.83,2.59-2.39-2.39-1.77-4.73-1.12-6.97,5.61-19.19,12.41-37.87,23.16-54.93,10.07-15.98,23.37-28.07,40.58-36.11,20.28-9.48,41.32-13.67,63.75-12.31,9.71.59,19.48.84,29.22,1.2,16.71.62,30.98,7.13,44.85,15.6,15.25,9.31,28.53,20.4,37.24,36.38,1.64,3.01,4.46,5.38,6.78,8.02,10.47,11.93,17.54,25.45,20.11,40.9-3.38,2.8-5.84.39-8.39.1-3.9-.44-7.84-.88-11.66.21-3.03.87-6.46,2.22-5.81,6.13.61,3.62,4.06,2.91,6.67,2.62,7.93-.88,14.5,2.41,20.68,6.71,1.67,1.16,2.49,3.38,1.58,5.24-1.18,2.39-3.23,1.34-4.95.34-7.44-4.33-15.22-5.44-23.53-2.79-2.14.68-3.49,1.69-3.33,4,.16,2.33,1.85,3.47,3.89,3.59,2.32.14,4.74-.66,7.01-.34,9.26,1.33,16.87,5.05,20.28,14.68-3.64,2.05-5.72-.31-7.86-1.69-6.15-3.98-12.8-2.66-19.38-2.11-1.62.13-2.96,1.16-3.23,2.89-.35,2.23.82,3.92,2.81,4.52,2.2.66,4.56.91,6.87,1.05,7.85.47,14.08,4.33,19.74,9.34,1.1.97,2.73,2.12,1.6,3.84-1.21,1.84-3.21,2.15-5.12,1.09-2.39-1.33-4.48-3.34-7-4.24-6.29-2.25-12.79-4.37-19.16-.23-2.65,1.72-5.48,3.89-3.5,7.58,1.93,3.58,4.4,1.59,6.84.15,5.06-2.98,9.13-.17,13.46,2.35-6.65,1.34-13.03,2.03-18.47,6.15-3,2.28-6.22,4.36-3.52,8.37,2.63,3.91,5.45.67,8.05-.72,1.29-.69,2.41-2.07,4.7-.59-4.21,8.47-8.75,17.08-8.19,27.11.11,1.95-.11,3.92.07,5.86.23,2.47,1.25,4.56,3.98,5.05,2.4.43,3.54-1.4,4.43-3.1,1.82-3.46,3.49-7,5.11-10.56,2.91-6.43,5.94-12.85,10.37-18.36,10.03-12.5,25.35-10.17,31.45,4.6,3.17,7.69,4.39,15.77,5.21,23.99,1.17,11.66-5.78,19.96-11.58,28.69Z"/><path d="M207.56,443.12s.06.1.1.15c0,.03.02.07.02.1.04-.08.07-.15.11-.23-.08,0-.15,0-.23-.01Z"/><path d="M252.63,198.08s-.03-.02-.07-.04l.07.04Z"/><path d="M286.06,209.11c-4.84-3.34-9.74-6.53-16-6.66-6.19-.14-12.01-2-17.62-4.5.06.05.13.08.19.13-11.35,1.45-22.22,4.17-32.14,10.31-8.62,5.34-10.24,11.06-3.79,18.67,10.79,12.72,25.36,19.46,41.05,23.55,8.33,2.17,14.33-2.08,17.84-11.27-12.01,5.07-21.96,2.15-31.89-5.54,9.56-3.96,21.21,4.58,28.59-7.94-8.24-1.3-15.07-2.49-21.94-3.42-12.46-1.7-13.33-2-18.79-8.12,5.66-1.67,5.9-2.07,9.33.03,6.28,3.85,13.58,4.01,19.21,1.45,7.96-3.62,14.15-2.39,20.65,1.91,2.42,1.6,4.93,3.33,7.18.43,2.65-3.42,1.49-6.7-1.88-9.03Z"/><path d="M252.44,197.94s-.1-.07-.15-.1c-.02,0-.04,0-.06,0,.02.01.21.12.32.18l-.29-.17c.06.03.12.05.18.08Z"/><path d="M281.09,200.59c6.56.87,7.85-.52,8.24-6.42.31-4.65-1.4-7.27-6.12-8.34-3.78-.86-7.41-2.43-11.07-3.8-19.02-7.13-38.09-7.42-57.33-.77-4.02,1.39-6.72,3.78-8.38,7.57-2.55,5.83-.21,9.18,6.15,8.48,6.2-.69,12.34-2.09,18.55-2.41,7.18-.37,14.69-1.86,21.17,2.94,1.47-.21,2.98-.56,4.48-.55,8.25.06,16.21,2.23,24.32,3.3Z"/><path d="M252.26,197.87l.29.17s.07.04.07.04c-.06-.05-.13-.09-.19-.13-.06-.03-.12-.05-.18-.08Z"/><path d="M247.52,122.88c7.1-.05,14.03.43,20.85,2.68,2.81.93,7.05,2.36,8.21-1.34,1.44-4.63-3.58-3.8-6.12-4.7-19.86-7.08-39.6-4.75-58.43,2.98-17.25,7.08-34.45,9.21-52.63,5.67-9.63-1.88-18.65.5-27.04,5.36-2.29,1.32-5.97,2.55-4.82,5.61,1.37,3.65,4.68,1.34,6.91.24,8.57-4.22,17.41-3.61,26.39-1.99,4.22.76,8.49,1.31,11.86,1.82,14.62-1.11,28.16-2.54,40.73-8.87,10.68-5.37,22.18-7.39,34.1-7.47Z"/><path d="M395.11,241.03c-4.24-1.45-9.78,1.73-11.67,7.29-1.24,3.65-2.1,7.57-2.28,11.41-.39,8.54-3.79,15.83-8.51,22.62-3.77,5.42-7.85,10.63-11.81,15.92-2.64,3.53-4.24,7.42-4.23,11.89,0,1.58.21,3.3,1.67,4.05,2.02,1.03,3.56-.3,5.15-1.55,3.49-2.75,1.71-8.66,6.43-10.57,1.29.46,1.5,1.51,1.58,2.62.17,2.39.36,5.12,3.37,5.23,2.67.09,3.98-2.27,4.5-4.63.92-4.18,1.22-8.52,2.41-12.6,3.23-11.04,4.94-22.87,15.1-30.54,2.9-2.19,4.64-5.18,5.12-8.87.7-5.43-2.19-10.7-6.82-12.28Z"/><path d="M314.32,198.55c1.7-.55,2.31-1.91,2.29-4.04-.98-3.86-2.94-7.64-6.32-10.48-4.48-3.76-9.27-7.03-14.4-9.94-11.18-6.35-23.9-6.44-35.75-9.78-14.27-4.03-27.8-1.92-41.53.31-3.84.63-11.24,1.01-9.5,7.5,1.21,4.5,6.76,1.32,10.25.67,24.15-4.52,47.25.39,69.68,8.55,8.15,2.97,16.63,6.95,21.42,15.37.74,1.31,2.07,2.4,3.85,1.83Z"/><path d="M330.44,235.84c-.8-2.01-1.66-4.94-4.65-4.22-2.62.63-3.55,3.15-2.73,5.62,3.94,11.81-.57,21.65-7.84,30.22-15.04,17.72-7.37,35.87-1.9,54.08.44,1.47,1.85,2.45,3.67,2.09,1.85-.36,2.44-1.83,2.6-3.4.41-3.94-.47-7.74-1.52-11.51-2.99-10.8-1.21-20.59,5.21-29.96,5.74-8.37,10.53-17.38,9.89-28.33.66-5.01-.85-9.87-2.73-14.59Z"/><path d="M248.19,149.67c-2.01-.12-5.12-.35-8.23-.5-10.28-.49-20.18,1.26-29.74,5.07-2.97,1.18-4.66,3.19-3.77,6.26,1.16,4.01,4.11,2.12,6.71,1.6,22.04-4.34,44.05-6.01,65.98.81,2.57.8,5.33,1.16,8.02,1.35,1.53.1,3.01-.69,3.47-2.52.41-1.63.19-3.25-1.04-4.29-1.13-.96-2.7-1.39-4.02-2.14-11.37-6.46-23.57-7.68-37.39-5.65Z"/><path d="M320.69,141.45c-4.98-8.36-7.77-17.05-6.22-26.6-.24-4.93-.22-9.64-.79-14.29-.26-2.16-1.15-5.02-4.21-4.57-2.3.34-2.32,2.82-2.45,4.71-1.23,17.27-1.7,34.16,9.25,49.45,4.46,6.23,7.65,13.55,11.44,20.35,3.92,7.03,10.23,13.08,10.71,21.88.08,1.52.56,3.34,2.58,3.3,2.42-.04,3.17-2.02,3.42-3.98.72-5.7-1.2-10.76-3.97-15.61-6.59-11.54-12.95-23.22-19.75-34.64Z"/><path d="M162.03,109.68c12.78.97,25.66,2.65,38.08-2.28,11.22-4.45,22.74-7.7,34.69-9.58,4.42-.69,9.17-.21,13.26-2.56-.57-2.08-1.6-3.18-3.34-3.25-16.03-.65-31.96-.27-46.81,6.83-3.28,1.57-6.36,2.43-9.98,2.4-8.17-.09-16.34.14-24.51.32-2.53.06-6.08-1.14-6.52,2.82-.36,3.2,2.26,5.08,5.14,5.3Z"/><path d="M187.92,86.51c4.53.46,9.28,1.21,13.45-3.38-4.41-3.44-8.86-3.07-12.85-4.06-1.94-.48-4.02.71-4.46,2.78-.59,2.79,1.45,4.42,3.86,4.66Z"/></svg>