<?xml version="1.0" encoding="UTF-8"?><svg id="Dewds" xmlns="http://www.w3.org/2000/svg" viewBox="0 0 500 500"><defs><style>.cls-1{fill:#fff;}</style></defs><path class="cls-1" d="M348.49,210.11c1.09,8.57.64,16.73-4.18,24.31-1.89,2.97-1.34,6.45-1.33,9.95.02,6.87,4.75,12.14,5.3,18.61.78,9.12,4.88,16.76,10.05,23.98,4.95,6.93,10.85,7.87,17.38,2.4,6.2-5.2,10.13-12.22,9.16-20.17-1.36-11.24,2.92-19.89,8.84-28.77,5.09-7.62,8.92-16.14,8.18-25.87,1-15.03-6.94-26.47-16.09-36.88-6.73-7.66-17.76-6.7-25.4.39-9.42,8.74-13.51,19.34-11.9,32.04ZM357.92,223.5c.71-7.43,3.12-14.19,8.43-19.51,4.01-4.01,8.96-5.67,14.68-3.67,4.5,1.58,8.25,3.71,9.28,9.02,1.49,7.68-1.25,10.82-9.04,10.21-2.18-.17-3.66-3.2-6.37-1.26-2.03,2.96-.26,5.82.98,8.44,2.83,5.94,2.94,11.73.01,17.59-1.39,2.78-2.18,5.73-2.22,8.81-.09,6.31-4.28,7.43-9.28,7.4-5.16-.03-4.64-4.03-4.85-7.38-.62-9.88-2.58-19.68-1.62-29.65Z"/><path class="cls-1" d="M432.02,360.65c-10.08-10.75-22.02-18.44-36.18-25.97,3.5,10.27,8.47,16.93,14.84,23.19,6.69,6.58,12.9,8.36,21.34,2.79Z"/><path class="cls-1" d="M256.8,340.1c-2.68-.79-5.61.02-6.95,2.61-1.7,3.29,1.47,4.66,3.5,6.05,4.92,3.37,10,1.96,16.39.1-3.69-5.46-8.23-7.38-12.95-8.76Z"/><path class="cls-1" d="M119.04,193.36c3.57-9.62,3.66-9.96,12.88-7.5,3.48.93,5.66.86,8.06-1.78.9-.99,3.18-2.02,4.04-1.56,9.41,5.06,20.84,5.22,29.42,12.1,1.71,1.37,2.96,3.59,3.85,5.66,2.82,6.58,3.53,13.76,1.08,20.25-3.84,10.17-4.44,20.93-7.23,31.25-3.25,12-.99,23.62,3.96,34.52,5.02,11.07,11.65,14.83,24.8,4.85,7.27-5.52,13.32-12.26,22.42-15.42,4.59-1.59,8.54-6.23,7.35-11.81-1.21-5.65-6.21-7.17-11.62-7.23-2.85-.03-7.23,1.85-8.01-1.84-1.04-4.91,4.19-5.37,7.49-6.94,1.87-.89,4.59.66,6.29-2.86-7.4-2.84-12.04-9.02-17.18-14.61-3.61-3.91-8.49-8.1-6.58-13.85,1.94-5.84,8.65-5.96,13.65-6.6,14.8-1.88,29.71-2.91,44.57-4.36,5.51-.54,10.59.93,15.7,2.72,3.05,1.07,6.92,2.57,6.14,5.65-1.05,4.14-5.38,3.24-8.84,2.39-1.12-.28-2.22-.64-3.36-.79-9.53-1.3-18.5-1.46-22.02,10.29-.38,1.28-2.45,1.93-1.57,4.48,6.08.33,12.36,1.49,18.33-2.11,1.29-.78,2.74-1.48,4.21-1.74,2.37-.41,4.62.18,6,2.4,1.64,2.65-.14,4.2-1.99,5.7-3.95,3.19-8.12,5.45-13.52,5.44-6.87-.01-13.74.64-20.79,1.01.99,2.85,2.49,3.39,4.02,3.36,12.17-.2,24.49,2.4,36.43-2.42,3.1-1.25,6.74-1.38,10.15-1.61,2.24-.15,4.94.13,5.59,2.91.86,3.69-2.14,4.3-4.72,5.13-11.26,3.65-22.39,7.84-34.67,5.52-2.68-.51-5.86-.65-9.14,1.49,3.07,3.79,5.31,7.92,9.82,8.1,12.09.48,21.7,6.76,31.58,12.53,1.64.96,3.39,2.98,5.08,1.72,6.31-4.76,16.08-5.35,17.87-15.68.97-5.62,3.25-11.14,7.29-15.44,3.98-4.23,5.51-9.18,5.12-14.74-.37-5.3.8-9.83,4.8-13.53,1.69-1.56,3.75-3.54,3.4-5.79-1.23-7.9,3.19-14.82,3.58-22.23.74-14.39,7.25-24.89,19.41-31.76,5.21-2.94,6.36-5.86,3.67-10.94-1.96-3.72-3.49-7.66-5.32-11.45-4.2-8.68-11.35-15.48-16.05-23.65-8.65-15.03-20.84-26.25-34-36.94-8.51-6.91-17.97-11.25-28.36-14.6-19.83-6.39-40.11-5.43-60.38-5.28-8.87.07-17.44,1.56-25.66,5.4-6.91,3.22-14.1,6.38-21.51,7.93-13.89,2.9-21.2,15.74-33.49,20.8-7.69,13.52-18.27,25.75-17.9,42.75.21,9.79-2.4,18.9-8.1,27.1-2.17,3.12-3.98,6.65-5.15,10.25-2.17,6.66-5.26,13.36-2.54,21.49,8.27-7.49,15.03-2.59,21.69,1.84ZM280.97,129.34c4.09.39,6.08,2.85,7.19,6.47,3.16,10.23,6.62,20.32,14.24,28.32,1.54,1.62,1.36,3.4.3,5.22-1.31,2.24-3.39,2.94-5.81,2.96-2.02.02-3.66-.76-4.94-2.39-7.9-10.11-13.63-21.21-15.21-34.11-.39-3.17-.09-6.3,4.22-6.47ZM283.21,187.88c2.01,2.11,5.18,3.14,7.87,4.56,3.34,1.77,5.71,4,4.14,8.18-1.62,4.3-5.01,5.78-9.18,4.71-2.52-.65-4.8-2.27-7.18-3.47-1.68-.84-3.62-2.74-4.98-2.39-9.54,2.49-13.97-3.64-18.37-11.55-6.44,11.09-7.72,16.46-22.22,3.84q-8.01,8.87-19.63,1.44c-.47.52-1.12.97-1.39,1.59-4.71,10.64-11.16,11.62-17.92,2.54-1.81-2.43-3.34-5.18-4.47-7.99-2.23-5.56-.83-7.27,5.62-7.26,1.13,0,2.78.96,3.29.49,6.27-5.7,12.7-7.45,20.16-2.03,1.35.98,2.58-.98,3.41-2.25,4.04-6.2,9.47-6.13,14.89-2.57,3.87,2.53,7.08,4,11.33.9,1.33-.97,3.99-1.32,5.49-.67,9.62,4.16,21.15,3.55,29.14,11.93ZM173.1,124.65c14.28-4.5,28.8-1.8,43.24-1.53,3.47.06,6.75,1.03,8.31,5.22-4.41,4.09-9.86,3.93-15,3.46-11.88-1.1-23.53-.42-35.18,2.24-4.18.96-11,2.97-12.01-2.53-1.25-6.8,6.31-5.48,10.65-6.86ZM128.65,157.54c8.75-.5,16.68-6.22,27.15-3.53,10.23-2.75,22.39.79,33.68-4.14,1.38-.6,3.07-1.4,4.4-1.11,11.02,2.39,21.45-2.67,32.24-2.4,8.4.21,15.97,4.8,24.43,5.18,1.33.06,2.75,1.46,2.87,3.15.18,2.5-1.98,2.97-3.65,3.7-3.66,1.6-7.58,1.49-11.29.69-10.26-2.22-20.37-2.9-30.31,1.36-1.03.44-2.31.9-3.32.67-14.57-3.28-28.66,2.16-42.94,2.2-8.05.02-15.81.26-23.66,1.97-2.87.63-6.08-.11-9.12-.43-2.41-.25-4.81-1.23-4.65-4.04.11-2.05,2.19-3.16,4.18-3.27Z"/><path class="cls-1" d="M292.15,347.46c11.72,3.82,19.78,11.04,24.1,22.62,3.63,9.73,11.13,14.92,23.02,18.03-2.25-4.59-4.26-7.13-4.75-9.95-3.34-19.13-14.85-33.31-28.03-46.34-8.3-8.22-15-17.27-18.96-28.3-2.55-7.09-7.8-12.12-13.2-17.05-5.74-5.24-13.26-5.5-20.2-7.21-5.23-1.29-6.54,4.49-9.98,6.58-4.6,2.8-9.38,5.11-14.28,7.28-4.2,1.85-8.42,3.74-11.34,7.54-1.17,1.53-2.79,3.9-1.07,5.01,5.32,3.43,8.68,9.48,15.64,10.77,7.86,1.46,15.67,3.4,23.34,5.65,6.28,1.84,11.88,4.92,15.88,10.62,4.93,7.02,11.72,12.11,19.83,14.75Z"/><path class="cls-1" d="M223.91,218.31c-1.91-.09-4.05-.18-5.08,1.79-1.23,2.34.8,3.48,2.33,4.45,4.49,2.82,9.16,5.27,15.1,5.03-4.71-3.32-5.28-10.93-12.35-11.27Z"/><path class="cls-1" d="M210.65,324.18c-1.26,6.09-2.79,10.3-5.92,16.03,10.69-2.12,19.31-3.2,28.01-3.53,1.99-.08,3.95-1.47,4.09-3.34.17-2.44-2.26-2.69-4.13-2.74-7.54-.22-15.07-.38-22.04-6.41Z"/><path class="cls-1" d="M182.29,390.86c1.59-5.24-.18-11.09-2.86-15.53-8.07-13.37-3.66-24.1,5.9-34.04,4.57-4.75,8.56-9.86,11.05-15.95,3.62-8.85,1.99-11.96-7.44-12.95-11.62-1.23-21.73-4.48-27.35-15.9-1.56-3.17-4.79-5.07-7.44-2.35-6.34,6.48-13.88,12.53-14.75,22.5-.76,8.73-.74,17.26,1.96,26.06,3.17,10.33,7.13,20.1,12.3,29.5,2.23,4.04,3.72,8.37,3.79,13.11.37,26.98,14.37,44.69,38.32,55.8,2.84-6.8.39-12.23-3.87-17.65-7.46-9.51-13.61-19.41-9.62-32.6Z"/><path class="cls-1" d="M123.42,282.05c3.53,1.41,7.63,1.25,10.83,3.61,3.8,2.8,7.08,1.62,10.39-.98,2.39-1.88,4.78-3.93,7.5-5.18,3.97-1.83,3.08-4.84,2.48-7.77-.81-3.94-3.53-3.27-6.21-2.18-3.71,1.52-7.6,1.17-11.36.78-8.04-.82-14.96-7.28-17.02-15.7,6.46.69,10.47,7.07,16.37,7.33,6.4.28,12.41-2.07,15.88-9.13-21.24,2.76-32.46-2.12-36.04-16.02,3.49,1.54,6.5,2.85,9.5,4.19,13.42,6,26.19,1.94,33.31-10.77,1.15-2.05,4.22-4.84.63-6.79-4.39-2.37-4.73,1.75-5.61,4.61-.33,1.09-.9,2.12-1.47,3.11-3.93,6.81-12.54,7.65-16.33.71-2.66-4.87-5.3-4.08-9.22-3.39-4.83.85-9.68,2.74-14.7.85-2.29-.86-4.16-2.15-4.16-4.83,0-2.51,2.21-3.08,3.98-3.33,15.1-2.16,29.24-9.37,44.95-8.49,2.19.12,5.68,1.29,6.08-3.89-5.97-1.49-10.39-6.51-18.54-1.62-4.43,2.66-12.14,4.63-18.47,3.35-5.66-1.15-11.11-5.77-15.14,2.6-.75,1.55-3.49.54-5.4.26-2.39-.36-4.46-3.55-7.7-.59.84,4.97,1.28,10.33,4.18,14.9,1.68,2.65,1.27,4.64.29,7.39-6.5,18.34,3.2,39.86,21,46.98Z"/><path class="cls-1" d="M197,352.53c-2.25-.97-4.54-1.38-5.63,1.52-1.1,2.93-.79,5.9,1.32,10.12,2.08-2.98,3.52-5.16,5.08-7.25,1.35-1.81,1.65-3.34-.77-4.39Z"/><path class="cls-1" d="M435.99,410.71c-7.25-3.76-12.95-9.53-19.28-14.48-3.69-2.88-7.55-6.49-7.85-11-.61-9.14-6.03-13.44-13.37-16.9-2.34-1.1-4.25-3.23-6.22-5.03-11.25-10.31-15.89-24.18-19.99-38.2-2.13-7.3-5.28-13.74-12.05-17.46-10.99-6.05-15.96-15.83-18.96-27.43-2.31-8.92-5.64-17.58-8.51-26.36-3.01,7.98-9.13,13.32-11.87,20.39-3.32,8.55-11.56,9.31-18.32,12.46-2.77,1.29-2.79,3.24-1.83,5.64,4.15,10.31,8.13,20.64,16.81,28.35,10.37,9.21,16.47,22.06,26.41,31.7,1.03,1,1.55,2.67,1.95,4.13,3.85,13.92,9.17,27.27,15.55,40.2,1.03,2.09,2.1,4.02,2.17,6.42.11,4.29-2.11,7.34-6.11,6.16-6.87-2.03-14.32-1.95-20.61-6.38-9.69-6.83-19.8-13.02-30.4-18.43-7.57-3.86-14.85-8.6-17.96-17.04-2.44-6.62-6.5-8.49-13.2-7.41-12.03,1.93-23.78,1.57-33.65-7.13-1.59-1.4-3.17-1.23-5.24-.72-13.95,3.51-19.77,6.74-29.43,17.71-3.81,4.33-6.79,8.73-4.45,15.49,1.7,4.91,1.33,10.6,1.53,15.96.41,10.72,5.68,20.09,15.83,21.81,13.2,2.24,22.23,9.67,30.56,18.83,3.57,3.93,7.86,5.35,12.79,6.79,15.74,4.6,32.46,5.85,47.27,13.78,3.84,2.06,8.34,2.34,13.72.4-7.99-6-15.75-10.49-21.79-16.66-12.04-12.31-27.35-18.85-43.03-22.94-11.12-2.9-12.57-10.92-16.43-18.33-.93-1.78.1-3.87,1.71-5.09,1.66-1.26,3.72-1.21,5.35.06,3.02,2.34,7.07,4.35,8.54,7.5,3.94,8.47,12.13,9.78,19.19,12.95,15.38,6.91,30.51,14.2,43.64,25,9.51,7.82,20.64,13.2,30.6,20.34,3.22,2.31,6.78,3.52,10.69,3.78,11.99.77,23.34,4.29,34.63,8.07,2.74.92,5.44,3.23,8.56.8.37-3.76-2.66-4.25-5.06-5.1-4.87-1.72-8.79-4.72-11.91-8.71-2.66-3.4-6.05-5.81-9.67-8.02-11.77-7.17-23.39-14.58-35.33-21.47-4.59-2.65-8.31-5.21-8.67-11.06-.16-2.57-2.1-5.27.9-7.26,2.93-1.95,5.95-1.22,8.59.67,2.17,1.55,4.18,3.36,6.08,5.23,3.89,3.83,8.28,6.96,13.43,8.66,7.74,2.56,14.85,6.42,21.44,10.98,7.57,5.23,15.72,7.33,24.68,7.22,4.24-.05,8.39.19,12.46,1.66,2.33.84,4.95,1.99,7.41-.41-1.28-3.76-4.44-5.42-7.66-6.28-16.26-4.36-22.98-18.68-30.72-30.99-3.61-5.75-7.02-11.46-11.57-16.5-8.55-9.46-15.69-19.82-20.29-31.8-1.26-3.29-2.81-6.97,1.29-9.07,3.63-1.87,6.51.35,8.8,3.33,3.96,5.16,8.25,10.02,11.44,15.81,13.81,25.12,36.86,36.25,64.03,42.29-1.08-4.25-3.99-5.55-6.58-6.89ZM282.9,399.76c-2.02,1.58-4.95,1.79-6.38.15-6.18-7.1-15.26-9.83-22.35-15.48-1.56-1.25-2.87-2.96-2.22-4.92.79-2.38,2.93-3.4,5.47-3.38,7.41-.22,25.08,11.2,26.7,17.32.6,2.27.93,4.64-1.22,6.32Z"/><path class="cls-1" d="M123.97,320.01c1.12-5.58-1.32-9.93-3.5-13.95-1.81-3.34-6.46-5.7-10.83-3.76-3.81,1.69-3.5,5.39-2.58,8.99.85,3.32,1.54,6.6,2.82,9.85,6.67,16.94,15.67,32.94,20.35,50.7,1.57,5.96,4.31,11.44,12.61,13.35.35-9.21-4.55-14.85-8.48-20.73-9.1-13.57-13.63-28.22-10.38-44.46Z"/><path d="M463.56,415.32c-5.15-3.26-10.02-7.02-14.69-10.95-6.45-5.42-12.9-10.9-18.79-16.91-5.34-5.46-4.79-7.95,1.84-12.23,6.5-4.2,12.19-9.28,17.28-15.05,5.19-5.88,5.02-7.78-2.26-10.78-20.84-8.58-36.43-23.21-49.33-41.22-3.47-4.85-4.97-9.35-.69-14.53,5.58-6.74,7.99-14.94,8.55-23.37.64-9.59,4.17-17.95,9.22-25.68,9.93-15.2,9.23-31.84,7.74-48.76-.97-11.06-7.14-19.04-14.59-26.52-5.79-5.81-12.25-10.56-19.97-13.18-5.59-1.9-8.08-4.98-10.03-10.89-3.44-10.4-4.7-21.78-12.1-30.77-4.62-5.6-9.2-11.42-12.63-17.78-8.68-16.12-21.05-27.32-37.89-35.05-19.66-9.03-40.26-15.57-60.96-20.02-19.57-4.21-40.39-3.69-60.66-.49-21.07,3.32-40.97,9.23-57.9,23.15-6.56,5.39-12.11,11.72-18.44,17.29-10.5,9.22-16.42,21.02-18.84,34.66-3.42,19.28-7.55,38.35-16.01,56.21-2.14,4.51-3.86,9.42-3.49,14.43.8,10.67,1.17,21.54,3.63,31.87,2.03,8.51,2.52,16.56.84,24.93-1.78,8.86.59,16.84,5.68,23.93,6.29,8.76,9.5,17.51,4.91,28.34-5.98,14.09-4.25,28.09,4.35,40.5,8.21,11.85,14,24.54,17.88,38.32,1.78,6.33,4.58,12.63,10.28,16.23,12.76,8.07,21.91,18.84,30.38,31.44,11.01,16.37,29.3,26.1,43.2,40.07,2.15,2.16,4.7,4.21,8.17,2.59,4.16-1.94,3.11-5.75,2.97-9.07-.23-5.57-2.12-11.37,3.81-17.04,8.54,11.08,20.87,15.87,33.57,20.04,1.39.46,2.47,1.8,3.77,2.61,9.71,6.01,20.45,9.82,31.65,8.4,7.52-.96,13.39.82,19.55,4.04,6.89,3.61,14.75,7.23,21.94,4.77,8.9-3.05,16.62-4.2,24.88.77,1.48.89,3.75.66,5.65.65,12.13-.04,24.03,2.71,34.43,8.07,10.72,5.52,22.79,1.15,33.04,7.01,1.86,1.06,4.47-.33,5.94-2.46,1.73-2.52.1-4.21-1.4-6-7.03-8.45-11.87-18.91-22.7-23.87,4.78-4.42,9.39-2.29,14.3-1.32,9.45,1.86,19.03,7.12,28.58-.48,2.29-1.83,6.47-2.27,6.28-5.76-.21-3.88-2.61-7.54-6.75-8.45-13.91-3.05-20.6-14.96-30.42-23.34,2.33-1.76,4.19-1.09,5.88-.39,11.13,4.6,22.71,6.63,34.74,6.49,4.15-.05,8.62,1.23,10.53-4.31,1.75-5.11-.92-7.61-4.92-10.14ZM432.02,360.65c-8.44,5.57-14.66,3.79-21.34-2.79-6.36-6.26-11.34-12.92-14.84-23.19,14.16,7.53,26.1,15.22,36.18,25.97ZM360.39,178.07c7.64-7.09,18.67-8.05,25.4-.39,9.15,10.41,17.08,21.85,16.09,36.88.74,9.73-3.09,18.25-8.18,25.87-5.92,8.88-10.2,17.53-8.84,28.77.96,7.95-2.96,14.97-9.16,20.17-6.52,5.47-12.42,4.53-17.38-2.4-5.17-7.23-9.26-14.86-10.05-23.98-.56-6.47-5.28-11.74-5.3-18.61-.01-3.51-.56-6.98,1.33-9.95,4.82-7.58,5.27-15.74,4.18-24.31-1.61-12.7,2.49-23.3,11.9-32.04ZM99.89,170.03c1.18-3.6,2.99-7.13,5.15-10.25,5.7-8.2,8.31-17.32,8.1-27.1-.37-17,10.21-29.23,17.9-42.75,12.29-5.06,19.6-17.9,33.49-20.8,7.41-1.55,14.59-4.7,21.51-7.93,8.23-3.84,16.79-5.33,25.66-5.4,20.28-.15,40.56-1.11,60.38,5.28,10.39,3.35,19.85,7.69,28.36,14.6,13.16,10.68,25.35,21.91,34,36.94,4.71,8.17,11.85,14.97,16.05,23.65,1.83,3.79,3.36,7.74,5.32,11.45,2.69,5.09,1.54,8-3.67,10.94-12.15,6.87-18.66,17.37-19.41,31.76-.38,7.41-4.81,14.32-3.58,22.23.35,2.24-1.71,4.23-3.4,5.79-4,3.7-5.18,8.24-4.8,13.53.39,5.56-1.14,10.51-5.12,14.74-4.04,4.3-6.33,9.82-7.29,15.44-1.78,10.33-11.56,10.92-17.87,15.68-1.68,1.27-3.44-.76-5.08-1.72-9.88-5.77-19.49-12.04-31.58-12.53-4.51-.18-6.75-4.31-9.82-8.1,3.28-2.13,6.46-1.99,9.14-1.49,12.28,2.32,23.41-1.87,34.67-5.52,2.58-.83,5.58-1.44,4.72-5.13-.65-2.78-3.35-3.06-5.59-2.91-3.42.23-7.05.36-10.15,1.61-11.94,4.82-24.26,2.22-36.43,2.42-1.53.03-3.03-.51-4.02-3.36,7.05-.37,13.92-1.02,20.79-1.01,5.4,0,9.57-2.25,13.52-5.44,1.85-1.5,3.64-3.05,1.99-5.7-1.38-2.23-3.63-2.81-6-2.4-1.46.25-2.92.96-4.21,1.74-5.96,3.6-12.25,2.44-18.33,2.11-.88-2.55,1.19-3.2,1.57-4.48,3.51-11.75,12.48-11.59,22.02-10.29,1.13.16,2.24.52,3.36.79,3.46.85,7.79,1.75,8.84-2.39.78-3.08-3.09-4.58-6.14-5.65-5.11-1.79-10.18-3.26-15.7-2.72-14.86,1.45-29.77,2.48-44.57,4.36-5,.64-11.71.76-13.65,6.6-1.91,5.75,2.97,9.93,6.58,13.85,5.15,5.58,9.78,11.77,17.18,14.61-1.7,3.52-4.41,1.97-6.29,2.86-3.29,1.57-8.53,2.03-7.49,6.94.78,3.69,5.16,1.81,8.01,1.84,5.41.06,10.41,1.58,11.62,7.23,1.19,5.57-2.76,10.21-7.35,11.81-9.1,3.15-15.16,9.9-22.42,15.42-13.15,9.98-19.78,6.22-24.8-4.85-4.95-10.91-7.21-22.52-3.96-34.52,2.79-10.32,3.39-21.08,7.23-31.25,2.45-6.49,1.74-13.67-1.08-20.25-.89-2.07-2.14-4.29-3.85-5.66-8.57-6.87-20.01-7.03-29.42-12.1-.86-.46-3.14.57-4.04,1.56-2.4,2.64-4.58,2.71-8.06,1.78-9.23-2.47-9.32-2.12-12.88,7.5-6.66-4.43-13.41-9.33-21.69-1.84-2.72-8.13.36-14.83,2.54-21.49ZM256.45,322.09c-7.68-2.25-15.48-4.19-23.34-5.65-6.96-1.29-10.33-7.34-15.64-10.77-1.72-1.11-.11-3.48,1.07-5.01,2.92-3.8,7.14-5.69,11.34-7.54,4.9-2.16,9.68-4.47,14.28-7.28,3.44-2.1,4.75-7.87,9.98-6.58,6.95,1.71,14.46,1.97,20.2,7.21,5.4,4.93,10.65,9.96,13.2,17.05,3.96,11.03,10.66,20.08,18.96,28.3,13.17,13.04,24.69,27.21,28.03,46.34.49,2.81,2.5,5.36,4.75,9.95-11.89-3.11-19.39-8.3-23.02-18.03-4.32-11.58-12.38-18.79-24.1-22.62-8.11-2.65-14.89-7.74-19.83-14.75-4-5.69-9.6-8.77-15.88-10.62ZM269.75,348.86c-6.39,1.86-11.47,3.27-16.39-.1-2.03-1.39-5.2-2.76-3.5-6.05,1.33-2.59,4.27-3.39,6.95-2.61,4.71,1.38,9.26,3.3,12.95,8.76ZM236.82,333.33c-.13,1.88-2.09,3.27-4.09,3.34-8.7.33-17.32,1.42-28.01,3.53,3.13-5.73,4.67-9.94,5.92-16.03,6.97,6.03,14.5,6.19,22.04,6.41,1.87.05,4.3.31,4.13,2.74ZM236.26,229.57c-5.94.24-10.61-2.21-15.1-5.03-1.54-.96-3.56-2.11-2.33-4.45,1.04-1.97,3.18-1.89,5.08-1.79,7.07.34,7.64,7.94,12.35,11.27ZM102.12,227.68c-2.9-4.57-3.33-9.93-4.18-14.9,3.24-2.96,5.31.23,7.7.59,1.91.29,4.65,1.29,5.4-.26,4.04-8.36,9.48-3.74,15.14-2.6,6.33,1.28,14.04-.69,18.47-3.35,8.15-4.89,12.57.13,18.54,1.62-.4,5.19-3.89,4.01-6.08,3.89-15.7-.88-29.84,6.33-44.95,8.49-1.77.25-3.99.83-3.98,3.33,0,2.68,1.87,3.96,4.16,4.83,5.03,1.89,9.87,0,14.7-.85,3.92-.69,6.56-1.49,9.22,3.39,3.79,6.94,12.4,6.1,16.33-.71.57-.99,1.14-2.03,1.47-3.11.87-2.86,1.22-6.98,5.61-4.61,3.59,1.94.52,4.73-.63,6.79-7.12,12.71-19.89,16.77-33.31,10.77-3-1.34-6.01-2.65-9.5-4.19,3.58,13.9,14.8,18.77,36.04,16.02-3.47,7.05-9.48,9.41-15.88,9.13-5.9-.26-9.92-6.64-16.37-7.33,2.05,8.42,8.97,14.89,17.02,15.7,3.76.38,7.65.74,11.36-.78,2.68-1.1,5.4-1.77,6.21,2.18.6,2.93,1.49,5.94-2.48,7.77-2.72,1.25-5.11,3.3-7.5,5.18-3.31,2.61-6.59,3.78-10.39.98-3.2-2.36-7.3-2.2-10.83-3.61-17.81-7.12-27.51-28.64-21-46.98.98-2.75,1.39-4.73-.29-7.39ZM142.83,385.19c-8.3-1.91-11.03-7.39-12.61-13.35-4.69-17.76-13.68-33.76-20.35-50.7-1.28-3.25-1.97-6.54-2.82-9.85-.92-3.6-1.23-7.3,2.58-8.99,4.37-1.94,9.02.43,10.83,3.76,2.18,4.02,4.62,8.37,3.5,13.95-3.26,16.23,1.28,30.89,10.38,44.46,3.94,5.87,8.83,11.52,8.48,20.73ZM195.78,441.11c-23.95-11.11-37.95-28.82-38.32-55.8-.07-4.74-1.56-9.06-3.79-13.11-5.17-9.4-9.14-19.17-12.3-29.5-2.7-8.8-2.72-17.33-1.96-26.06.87-9.97,8.42-16.03,14.75-22.5,2.65-2.71,5.88-.82,7.44,2.35,5.62,11.41,15.72,14.67,27.35,15.9,9.43,1,11.06,4.1,7.44,12.95-2.49,6.1-6.47,11.2-11.05,15.95-9.57,9.94-13.97,20.67-5.9,34.04,2.68,4.44,4.45,10.28,2.86,15.53-4,13.19,2.16,23.09,9.62,32.6,4.26,5.43,6.71,10.85,3.87,17.65ZM192.69,364.17c-2.11-4.22-2.41-7.19-1.32-10.12,1.08-2.89,3.38-2.49,5.63-1.52,2.43,1.04,2.12,2.58.77,4.39-1.56,2.09-3,4.27-5.08,7.25ZM378.54,375.31c-3.18-5.79-7.47-10.65-11.44-15.81-2.29-2.98-5.17-5.2-8.8-3.33-4.09,2.1-2.55,5.79-1.29,9.07,4.6,11.98,11.75,22.34,20.29,31.8,4.55,5.04,7.96,10.75,11.57,16.5,7.74,12.31,14.46,26.63,30.72,30.99,3.22.86,6.38,2.52,7.66,6.28-2.46,2.4-5.09,1.25-7.41.41-4.08-1.47-8.22-1.71-12.46-1.66-8.95.11-17.11-2-24.68-7.22-6.59-4.55-13.7-8.42-21.44-10.98-5.15-1.7-9.54-4.83-13.43-8.66-1.9-1.87-3.92-3.68-6.08-5.23-2.64-1.89-5.66-2.62-8.59-.67-3,1.99-1.06,4.7-.9,7.26.36,5.85,4.08,8.41,8.67,11.06,11.93,6.89,23.56,14.3,35.33,21.47,3.62,2.21,7,4.62,9.67,8.02,3.13,3.99,7.04,6.99,11.91,8.71,2.4.85,5.44,1.34,5.06,5.1-3.12,2.43-5.82.12-8.56-.8-11.29-3.78-22.64-7.3-34.63-8.07-3.92-.25-7.47-1.47-10.69-3.78-9.96-7.14-21.09-12.52-30.6-20.34-13.13-10.8-28.26-18.09-43.64-25-7.06-3.17-15.26-4.48-19.19-12.95-1.46-3.15-5.52-5.16-8.54-7.5-1.63-1.26-3.69-1.31-5.35-.06-1.61,1.22-2.64,3.31-1.71,5.09,3.86,7.42,5.31,15.43,16.43,18.33,15.68,4.09,30.99,10.63,43.03,22.94,6.04,6.17,13.8,10.66,21.79,16.66-5.37,1.94-9.87,1.66-13.72-.4-14.81-7.93-31.52-9.18-47.27-13.78-4.93-1.44-9.21-2.86-12.79-6.79-8.32-9.15-17.36-16.59-30.56-18.83-10.15-1.72-15.43-11.09-15.83-21.81-.2-5.36.17-11.05-1.53-15.96-2.34-6.76.64-11.16,4.45-15.49,9.67-10.97,15.48-14.21,29.43-17.71,2.07-.52,3.64-.69,5.24.72,9.88,8.69,21.62,9.05,33.65,7.13,6.7-1.07,10.76.8,13.2,7.41,3.12,8.44,10.4,13.18,17.96,17.04,10.6,5.41,20.71,11.6,30.4,18.43,6.29,4.43,13.74,4.35,20.61,6.38,4,1.18,6.22-1.87,6.11-6.16-.06-2.4-1.14-4.33-2.17-6.42-6.38-12.93-11.7-26.28-15.55-40.2-.4-1.46-.93-3.13-1.95-4.13-9.94-9.64-16.04-22.49-26.41-31.7-8.68-7.71-12.66-18.04-16.81-28.35-.97-2.4-.94-4.36,1.83-5.64,6.76-3.15,15-3.9,18.32-12.46,2.75-7.07,8.86-12.41,11.87-20.39,2.88,8.78,6.21,17.44,8.51,26.36,3,11.6,7.97,21.38,18.96,27.43,6.77,3.72,9.91,10.16,12.05,17.46,4.1,14.02,8.74,27.88,19.99,38.2,1.97,1.81,3.87,3.93,6.22,5.03,7.35,3.46,12.76,7.76,13.37,16.9.3,4.51,4.16,8.12,7.85,11,6.33,4.94,12.03,10.71,19.28,14.48,2.59,1.34,5.5,2.64,6.58,6.89-27.17-6.04-50.22-17.17-64.03-42.29Z"/><path d="M248.58,176.63c-4.25,3.1-7.47,1.63-11.33-.9-5.43-3.55-10.86-3.62-14.89,2.57-.83,1.28-2.06,3.23-3.41,2.25-7.46-5.42-13.89-3.67-20.16,2.03-.51.47-2.17-.49-3.29-.49-6.45-.01-7.86,1.69-5.62,7.26,1.13,2.81,2.66,5.56,4.47,7.99,6.76,9.08,13.21,8.1,17.92-2.54.27-.62.92-1.07,1.39-1.59q11.62,7.43,19.63-1.44c14.5,12.62,15.77,7.25,22.22-3.84,4.4,7.91,8.83,14.03,18.37,11.55,1.36-.35,3.3,1.55,4.98,2.39,2.38,1.2,4.66,2.82,7.18,3.47,4.18,1.07,7.56-.4,9.18-4.71,1.57-4.18-.8-6.41-4.14-8.18-2.69-1.42-5.86-2.45-7.87-4.56-7.99-8.37-19.52-7.76-29.14-11.93-1.5-.65-4.16-.3-5.49.67Z"/><path d="M129.12,164.85c3.03.32,6.24,1.05,9.12.43,7.85-1.71,15.6-1.95,23.66-1.97,14.29-.04,28.37-5.48,42.94-2.2,1.01.23,2.29-.23,3.32-.67,9.95-4.26,20.05-3.58,30.31-1.36,3.71.8,7.63.91,11.29-.69,1.68-.73,3.83-1.21,3.65-3.7-.12-1.7-1.54-3.09-2.87-3.15-8.46-.38-16.03-4.97-24.43-5.18-10.79-.27-21.22,4.79-32.24,2.4-1.33-.29-3.01.51-4.4,1.11-11.29,4.93-23.45,1.38-33.68,4.14-10.47-2.69-18.4,3.03-27.15,3.53-1.99.11-4.07,1.22-4.18,3.27-.15,2.81,2.24,3.79,4.65,4.04Z"/><path d="M174.46,134.03c11.65-2.66,23.3-3.35,35.18-2.24,5.15.48,10.59.64,15-3.46-1.56-4.19-4.84-5.15-8.31-5.22-14.43-.27-28.95-2.97-43.24,1.53-4.35,1.37-11.9.05-10.65,6.86,1.01,5.5,7.83,3.48,12.01,2.53Z"/><path d="M291.96,169.92c1.28,1.64,2.92,2.41,4.94,2.39,2.41-.02,4.5-.72,5.81-2.96,1.06-1.82,1.25-3.6-.3-5.22-7.62-8-11.08-18.1-14.24-28.32-1.12-3.61-3.1-6.07-7.19-6.47-4.31.17-4.61,3.3-4.22,6.47,1.58,12.9,7.31,23.99,15.21,34.11Z"/><path d="M257.42,376.13c-2.54-.02-4.68,1-5.47,3.38-.65,1.97.66,3.68,2.22,4.92,7.09,5.65,16.17,8.38,22.35,15.48,1.43,1.64,4.35,1.43,6.38-.15,2.15-1.68,1.82-4.05,1.22-6.32-1.62-6.12-19.29-17.54-26.7-17.32Z"/><path d="M364.4,260.54c5,.03,9.18-1.09,9.28-7.4.05-3.08.83-6.03,2.22-8.81,2.93-5.86,2.81-11.65-.01-17.59-1.24-2.62-3.01-5.48-.98-8.44,2.71-1.95,4.19,1.09,6.37,1.26,7.78.61,10.53-2.53,9.04-10.21-1.03-5.3-4.78-7.44-9.28-9.02-5.71-2.01-10.67-.35-14.68,3.67-5.31,5.32-7.72,12.08-8.43,19.51-.96,9.97,1.01,19.77,1.62,29.65.21,3.35-.3,7.35,4.85,7.38Z"/></svg>